<svg id="Group_125" data-name="Group 125" xmlns="http://www.w3.org/2000/svg" xmlns:xlink="http://www.w3.org/1999/xlink" width="170.88" height="71.24" viewBox="0 0 170.88 71.24">
  <defs>
    <clipPath id="clip-path">
      <rect id="Rectangle_161" data-name="Rectangle 161" width="170.88" height="71.24" transform="translate(0 0)" fill="none"/>
    </clipPath>
  </defs>
  <g id="Group_124" data-name="Group 124" clip-path="url(#clip-path)">
    <path id="Path_66" data-name="Path 66" d="M35.62,0A35.62,35.62,0,1,1,0,35.62,35.62,35.62,0,0,1,35.62,0" fill="#047a9b"/>
    <path id="Path_67" data-name="Path 67" d="M47.481,30.971c-2.581-2.04-6.519-.93-8.208.6-1.784,1.6-1.642,4.384.1,5.124,1.613.683,4.165-.028,5.048-3.349,1.67.863,1.917,3.625.256,5.627-2.657,3.2-4.944,3.587-7.591,4.327-.123-.019-.237-.028-.361-.047V21.2a4.03,4.03,0,1,0-2.22-.009V43.249c-.133.009-.266.028-.4.047-2.638-.74-4.934-1.129-7.591-4.327-1.66-2-1.414-4.773.256-5.627.882,3.321,3.435,4.033,5.048,3.349,1.736-.731,1.879-3.511.1-5.124-1.689-1.528-5.627-2.638-8.208-.6s-3.055,6.746-.047,10.371a15.688,15.688,0,0,0,5.6,4.156A6.61,6.61,0,0,0,26.928,50.4a7.1,7.1,0,0,0,4.232,6.2,5.252,5.252,0,0,0-1.091,1.888,3.71,3.71,0,0,0-.123,2.04c.133.474.332.7.531.7.436,0,.721-.892,1.48-1.812A4.928,4.928,0,0,1,34.5,57.727v2.382a2.29,2.29,0,1,0,2.23.019v-2.4a4.928,4.928,0,0,1,2.543,1.689c.759.92,1.044,1.812,1.48,1.812.2,0,.4-.228.531-.7a3.8,3.8,0,0,0-.123-2.04,5.189,5.189,0,0,0-1.1-1.9,7.084,7.084,0,0,0,4.213-6.177,6.61,6.61,0,0,0-2.325-4.906,15.7,15.7,0,0,0,5.6-4.156c2.987-3.633,2.515-8.349-.068-10.379m-6.917,2.571a.769.769,0,1,1,.769-.769.778.778,0,0,1-.769.769m-9.935-1.528a.765.765,0,1,1-.008,0Zm.019,18.379c0-1.632,1.68-3.046,3.862-3.416V53.8c-2.182-.35-3.862-1.764-3.862-3.4Zm4.991-31.331A1.765,1.765,0,1,1,37.4,17.3a1.765,1.765,0,0,1-1.765,1.765ZM36.73,53.8V46.987c2.163.37,3.824,1.784,3.824,3.406s-1.66,3.037-3.823,3.407Z" fill="#fff"/>
    <path id="Path_68" data-name="Path 68" d="M26.474,16.282a1.8,1.8,0,0,0-1.537.873H13.7a1.8,1.8,0,1,0,0,1.86H24.937a1.8,1.8,0,1,0,1.537-2.733" fill="#fff"/>
    <path id="Path_69" data-name="Path 69" d="M28.7,20.571a1.8,1.8,0,0,0-1.537.873H15.438a1.8,1.8,0,1,0,0,1.86H27.166A1.8,1.8,0,1,0,28.7,20.571" fill="#fff"/>
    <path id="Path_70" data-name="Path 70" d="M30.2,24.86a1.8,1.8,0,0,0-1.537.873H19.082a1.8,1.8,0,1,0,0,1.86h9.593A1.8,1.8,0,1,0,30.2,24.86" fill="#fff"/>
    <path id="Path_71" data-name="Path 71" d="M44.765,16.282a1.8,1.8,0,0,1,1.537.873H57.536a1.8,1.8,0,1,1,0,1.86H46.305a1.8,1.8,0,1,1-1.54-2.733" fill="#fff"/>
    <path id="Path_72" data-name="Path 72" d="M42.535,20.571a1.8,1.8,0,0,1,1.537.873H55.8a1.8,1.8,0,1,1,0,1.86H44.075a1.8,1.8,0,1,1-1.54-2.733" fill="#fff"/>
    <path id="Path_73" data-name="Path 73" d="M41.038,24.86a1.8,1.8,0,0,1,1.537.873h9.593a1.8,1.8,0,1,1,0,1.86h-9.6a1.8,1.8,0,1,1-1.53-2.733" fill="#fff"/>
    <path id="Path_74" data-name="Path 74" d="M100.507,25.621a.505.505,0,0,1-.362.231.709.709,0,0,1-.462-.1,8.259,8.259,0,0,0-1.816-.792,6.485,6.485,0,0,0-2.145-.3,5.733,5.733,0,0,0-2.623.61A6.758,6.758,0,0,0,91,26.925a7.614,7.614,0,0,0-1.386,2.425,8.247,8.247,0,0,0-.462,2.97,10.029,10.029,0,0,0,.512,3.053A7.494,7.494,0,0,0,91,37.8a6.05,6.05,0,0,0,2.079,1.6,6.313,6.313,0,0,0,2.739.578,7.871,7.871,0,0,0,2.657-.5,10.577,10.577,0,0,0,2.392-1.32.627.627,0,0,1,.495-.115.666.666,0,0,1,.429.28l1.584,2.376a.558.558,0,0,1-.165.825,13.578,13.578,0,0,1-3.53,2.013,11.1,11.1,0,0,1-3.828.627,11.446,11.446,0,0,1-4.572-.809,9.618,9.618,0,0,1-3.464-2.409A10.826,10.826,0,0,1,85.608,37.2a14.84,14.84,0,0,1-.809-4.818,12.637,12.637,0,0,1,.71-4.372A12.329,12.329,0,0,1,87.637,24.2,10.666,10.666,0,0,1,91,21.5a9.564,9.564,0,0,1,4.455-1.023,12.067,12.067,0,0,1,3.317.4,9.62,9.62,0,0,1,3.217,1.584.589.589,0,0,1,.264.412.651.651,0,0,1-.132.479Z"/>
    <path id="Path_75" data-name="Path 75" d="M109.977,51.493a.872.872,0,0,1-.824.627H106.38a.588.588,0,0,1-.528-.247.545.545,0,0,1,0-.578l3.993-9.406L104.2,28.228a.624.624,0,0,1,.033-.594.573.573,0,0,1,.527-.264h2.9q.4,0,.694.66l3.728,8.942,3.8-8.975q.232-.627.627-.627h2.9a.615.615,0,0,1,.544.264.548.548,0,0,1,.017.594Z"/>
    <path id="Path_76" data-name="Path 76" d="M132.748,42.253a10.917,10.917,0,0,1-2.031,1.172,5.544,5.544,0,0,1-2.292.511,7.9,7.9,0,0,1-3.168-.627,7.287,7.287,0,0,1-2.492-1.749,8.259,8.259,0,0,1-1.633-2.64,8.957,8.957,0,0,1-.594-3.3,8.253,8.253,0,0,1,.627-3.218,8.491,8.491,0,0,1,1.716-2.639,8.193,8.193,0,0,1,2.524-1.8,7.3,7.3,0,0,1,3.085-.66,5.662,5.662,0,0,1,2.261.478,8.521,8.521,0,0,1,2,1.2V19.714a.552.552,0,0,1,.18-.429.642.642,0,0,1,.447-.165h2.573a.639.639,0,0,1,.446.165.556.556,0,0,1,.181.429V43.243a.554.554,0,0,1-.627.627h-2.573a.61.61,0,0,1-.447-.182.6.6,0,0,1-.18-.445ZM124.53,35.62a4.983,4.983,0,0,0,.3,1.732,4.506,4.506,0,0,0,.807,1.4,3.681,3.681,0,0,0,1.255.94,3.8,3.8,0,0,0,1.633.347,3.552,3.552,0,0,0,1.617-.363,4.213,4.213,0,0,0,1.271-.973,4.437,4.437,0,0,0,.842-1.4,4.776,4.776,0,0,0,.3-1.683,4.639,4.639,0,0,0-.3-1.666,4.271,4.271,0,0,0-.842-1.37,4.129,4.129,0,0,0-1.271-.941,3.72,3.72,0,0,0-1.617-.346,3.643,3.643,0,0,0-1.584.346,4.124,4.124,0,0,0-1.27.941,4.217,4.217,0,0,0-.841,1.37,4.618,4.618,0,0,0-.3,1.666"/>
    <path id="Path_77" data-name="Path 77" d="M139.051,35.62a8.51,8.51,0,0,1,2.326-5.907,7.89,7.89,0,0,1,2.524-1.766,7.649,7.649,0,0,1,3.135-.643,7.537,7.537,0,0,1,3.119.643,7.956,7.956,0,0,1,2.508,1.766,8.22,8.22,0,0,1,1.683,2.64,9.054,9.054,0,0,1,0,6.534,8.209,8.209,0,0,1-1.683,2.64,7.9,7.9,0,0,1-2.524,1.766,7.966,7.966,0,0,1-6.271,0,7.875,7.875,0,0,1-2.524-1.766,8.192,8.192,0,0,1-1.683-2.64,8.673,8.673,0,0,1-.61-3.267m3.992,0a4.983,4.983,0,0,0,.3,1.732,4.337,4.337,0,0,0,.824,1.4,3.912,3.912,0,0,0,1.254.94,3.616,3.616,0,0,0,1.584.347,3.729,3.729,0,0,0,1.6-.347,3.849,3.849,0,0,0,1.27-.94,4.339,4.339,0,0,0,.825-1.4,5.2,5.2,0,0,0,0-3.464,4.339,4.339,0,0,0-.825-1.4,3.849,3.849,0,0,0-1.27-.94A3.729,3.729,0,0,0,147,31.2a3.616,3.616,0,0,0-1.584.347,3.913,3.913,0,0,0-1.254.94,4.337,4.337,0,0,0-.824,1.4,4.987,4.987,0,0,0-.3,1.732"/>
    <path id="Path_78" data-name="Path 78" d="M168.255,31.99a.592.592,0,0,1-.412.264.656.656,0,0,1-.479-.132,4.745,4.745,0,0,0-1.088-.594,3.53,3.53,0,0,0-1.288-.231,3.611,3.611,0,0,0-1.6.346,3.792,3.792,0,0,0-1.221.941,4.256,4.256,0,0,0-.792,1.4,5.156,5.156,0,0,0-.281,1.7,4.62,4.62,0,0,0,.313,1.716,4.451,4.451,0,0,0,.859,1.386,3.8,3.8,0,0,0,1.3.924,4.013,4.013,0,0,0,1.618.33,3.522,3.522,0,0,0,1.5-.33,3.442,3.442,0,0,0,1.205-.924.558.558,0,0,1,.445-.182.766.766,0,0,1,.445.182l1.914,1.848a.472.472,0,0,1,.182.413.766.766,0,0,1-.182.445,8,8,0,0,1-2.475,1.782,7.172,7.172,0,0,1-3.069.66,8.189,8.189,0,0,1-3.184-.611,7.554,7.554,0,0,1-2.558-1.732,8.113,8.113,0,0,1-1.7-2.624,8.93,8.93,0,0,1-.033-6.4,8.314,8.314,0,0,1,4.125-4.52,7.424,7.424,0,0,1,3.184-.744,7.9,7.9,0,0,1,4.587,1.519.631.631,0,0,1,.264.363.521.521,0,0,1-.1.462Z"/>
  </g>
</svg>
