<svg xmlns="http://www.w3.org/2000/svg" width="28.574" height="21.751" viewBox="0 0 28.574 21.751">
  <path id="medical-app" d="M36.8,86.4V69.517a.776.776,0,0,0-.775-.775H12.978a.776.776,0,0,0-.775.775V86.4Zm-6.487-8.793a5.814,5.814,0,1,1-5.814-5.814A5.814,5.814,0,0,1,30.308,77.606Zm-4.828-3.2a.291.291,0,0,1,.291.291v1.63H27.4a.291.291,0,0,1,.291.291v1.973a.291.291,0,0,1-.291.291h-1.63v1.63a.291.291,0,0,1-.291.291H23.508a.291.291,0,0,1-.291-.291v-1.63h-1.63a.291.291,0,0,1-.291-.291V76.62a.291.291,0,0,1,.291-.291h1.63V74.7a.291.291,0,0,1,.291-.291ZM38.572,87.885a2.931,2.931,0,0,1-2.913,2.608H12.915A2.931,2.931,0,0,1,10,87.885a.291.291,0,0,1,.289-.322H38.283a.291.291,0,0,1,.289.322ZM13.366,85.237V69.9H35.632V85.237Z" transform="translate(-10 -68.742)" fill="#047a9b" fill-rule="evenodd"/>
</svg>
