<svg xmlns="http://www.w3.org/2000/svg" width="43.6" height="52.411" viewBox="0 0 43.6 52.411">
  <g id="g3336" transform="translate(-69.3 -31.5)">
    <path id="rect3257" d="M93.387,31.5,79.535,42.715H73.723V75.147h-4.2l-.14,1.085a8.6,8.6,0,0,0-.082,1.132,7.862,7.862,0,0,0,1.284,4.458A4.476,4.476,0,0,0,74.2,83.911h33.832a4.437,4.437,0,0,0,3.606-2.054,8.189,8.189,0,0,0,1.26-4.516v-.012l-.128-34.614h-5.7Zm-.012,3.209,9.756,8.006H83.491ZM79.593,48.982h27.192v2.486H79.593Zm2.544,8.6h22.1v11.04h-22.1ZM71.856,77.632H103.19v.233a6.972,6.972,0,0,0,1.085,3.548H74.19A1.962,1.962,0,0,1,72.626,80.4a5.661,5.661,0,0,1-.77-2.766Z" fill="#fff"/>
  </g>
</svg>
