<svg xmlns="http://www.w3.org/2000/svg" width="33.066" height="43.41" viewBox="0 0 33.066 43.41">
  <g id="medical-certificate" transform="translate(0 0.001)">
    <path id="Path_43" data-name="Path 43" d="M271.272,10.173H278.9A1.272,1.272,0,0,0,279.8,8L272.171.372a1.272,1.272,0,0,0-2.171.9V8.9a1.272,1.272,0,0,0,1.272,1.272Zm0,0" transform="translate(-247.108)" fill="#fff"/>
    <path id="Path_44" data-name="Path 44" d="M24.164,12.718A3.82,3.82,0,0,1,20.348,8.9V0H1.272A1.272,1.272,0,0,0,0,1.272V42.138A1.272,1.272,0,0,0,1.272,43.41H31.794a1.272,1.272,0,0,0,1.272-1.272V12.718ZM8.309,9.326H9.581V8.055a1.272,1.272,0,1,1,2.544,0V9.326H13.4a1.272,1.272,0,1,1,0,2.544H12.124v1.272a1.272,1.272,0,1,1-2.544,0V11.87H8.309a1.272,1.272,0,0,1,0-2.544Zm6.528,27.216H6.359a1.272,1.272,0,1,1,0-2.544h8.478a1.272,1.272,0,1,1,0,2.544Zm0-5.059H6.359a1.272,1.272,0,1,1,0-2.544h8.478a1.272,1.272,0,1,1,0,2.544Zm0-5.059H6.359a1.272,1.272,0,1,1,0-2.544h8.478a1.272,1.272,0,1,1,0,2.544Zm0-5.143H6.359a1.272,1.272,0,0,1,0-2.544h8.478a1.272,1.272,0,0,1,0,2.544Zm11.87,15.261H21.62a1.272,1.272,0,0,1,0-2.544h5.087a1.272,1.272,0,0,1,0,2.544Zm0-5.087H21.62a1.272,1.272,0,1,1,0-2.544h5.087a1.272,1.272,0,0,1,0,2.544Zm0-5.087H21.62a1.272,1.272,0,1,1,0-2.544h5.087a1.272,1.272,0,0,1,0,2.544Zm0,0" transform="translate(0 -0.001)" fill="#fff"/>
  </g>
</svg>
