<?xml version="1.0" encoding="UTF-8"?>
<svg width="1200pt" height="1200pt" version="1.1" viewBox="0 0 1200 1200" xmlns="http://www.w3.org/2000/svg">
 <g>
  <path d="m941.87 721.4c-4.6328-22.703-11.52-44.555-20.293-65.398l-141.81-262.82-179.71-333.18-179.72 333.18-141.82 262.82c-8.8555 20.844-15.648 42.707-20.375 65.398-4.6328 22.691-7.0938 46.141-7.0938 70.211 0 24.059 2.4727 47.531 7.0938 70.211 4.7266 22.68 11.52 44.566 20.375 65.41 8.7734 20.832 19.609 40.621 32.207 59.16 12.516 18.527 26.785 35.797 42.551 51.562 15.758 15.77 33.086 30.023 51.695 42.551 18.504 12.504 38.41 23.293 59.195 32.113 20.879 8.8086 42.828 15.66 65.578 20.293 22.66 4.6484 46.18 7.0859 70.312 7.0859 24.023 0 47.566-2.4375 70.309-7.0938 22.656-4.6445 44.629-11.484 65.496-20.293 20.867-8.8086 40.668-19.609 59.27-32.113 18.516-12.527 35.844-26.773 51.602-42.551 15.863-15.758 30.047-33.035 42.648-51.562 12.504-18.539 23.352-38.316 32.207-59.16 8.7734-20.844 15.672-42.742 20.293-65.41 4.6211-22.668 7.0938-46.152 7.0938-70.211-0.003906-24.062-2.4648-47.508-7.0977-70.203zm-49.621 131.91c-3.9375 19.402-9.8516 38.102-17.34 55.895-7.5859 17.82-16.836 34.766-27.574 50.594-10.738 15.852-22.848 30.613-36.324 44.09-13.598 13.465-28.355 25.633-44.23 36.371-15.852 10.691-32.797 19.906-50.617 27.445-17.82 7.5352-36.648 13.379-56.039 17.34-19.391 3.9844-39.492 6.0469-60.059 6.0469-20.578 0-40.777-2.0625-60.18-6.0469-19.391-3.9609-38.113-9.8047-55.945-17.34-17.914-7.5352-34.848-16.754-50.711-27.445-15.852-10.754-30.625-22.906-44.113-36.371-13.488-13.477-25.703-28.234-36.434-44.09-10.738-15.816-19.992-32.762-27.48-50.594-7.5859-17.797-13.379-36.492-17.426-55.895-3.9492-19.367-6-39.457-6-60.012s2.0508-40.633 6-60.012c4.043-19.402 9.8398-38.102 17.426-55.922l121.22-224.66 153.64-284.81 153.62 284.81 121.22 224.66c7.4883 17.82 13.402 36.516 17.34 55.922 3.9258 19.379 6.1094 39.457 6.1094 60.012s-2.1836 40.645-6.1094 60.012z" fill-rule="evenodd"/>
  <path d="m573.85 704.53h52.309v113.22h113.44v52.27h-113.44v113.21h-52.309v-113.21h-113.45v-52.27h113.45v-113.22"/>
 </g>
</svg>
