<?xml version="1.0" encoding="UTF-8"?>
<svg width="1200pt" height="1200pt" version="1.1" viewBox="0 0 1200 1200" xmlns="http://www.w3.org/2000/svg">
 <g>
  <path d="m609.38 1164.8c-148.37 0-287.86-57.777-392.77-162.7-104.92-104.91-162.7-244.4-162.7-392.77s57.777-287.86 162.7-392.77c104.91-104.92 244.4-162.7 392.77-162.7s287.86 57.777 392.77 162.7c104.92 104.91 162.7 244.4 162.7 392.77s-57.777 287.86-162.7 392.77c-104.91 104.92-244.4 162.7-392.77 162.7zm0-1078.1c-288.19 0-522.66 234.46-522.66 522.66 0 288.2 234.46 522.66 522.66 522.66 288.2 0 522.66-234.46 522.66-522.66 0-288.19-234.46-522.66-522.66-522.66z"/>
  <path d="m609.38 1047.7c-241.67 0-438.28-196.61-438.28-438.28s196.61-438.28 438.28-438.28 438.28 196.61 438.28 438.28-196.61 438.28-438.28 438.28zm0-843.75c-223.58 0-405.47 181.89-405.47 405.47s181.89 405.47 405.47 405.47 405.47-181.89 405.47-405.47-181.89-405.47-405.47-405.47z"/>
  <path d="m703.12 907.03h-187.5c-9.0625 0-16.406-7.3438-16.406-16.406v-159.38h-159.38c-9.0625 0-16.406-7.3438-16.406-16.406v-187.5c0-9.0625 7.3438-16.406 16.406-16.406h159.38v-159.38c0-9.0625 7.3438-16.406 16.406-16.406h187.5c9.0625 0 16.406 7.3438 16.406 16.406v159.38h159.38c9.0625 0 16.406 7.3438 16.406 16.406v187.5c0 9.0625-7.3438 16.406-16.406 16.406h-159.38v159.38c0 9.0625-7.3438 16.406-16.406 16.406zm-171.09-32.812h154.69v-159.38c0-9.0625 7.3438-16.406 16.406-16.406h159.38v-154.69h-159.38c-9.0625 0-16.406-7.3438-16.406-16.406v-159.38h-154.69v159.38c0 9.0625-7.3438 16.406-16.406 16.406h-159.38v154.69h159.38c9.0625 0 16.406 7.3438 16.406 16.406z"/>
 </g>
</svg>
