<svg xmlns="http://www.w3.org/2000/svg" xmlns:xlink="http://www.w3.org/1999/xlink" fill="#000000" version="1.1" x="0px" y="0px" enable-background="new 0 0 100 100" xml:space="preserve" viewBox="5 15.21 90 69.57"><path d="M57.944,72.96c-2.78,2.585-5.121,4.764-6.866,6.619c-1.746-1.855-4.085-4.034-6.866-6.619  c-5.792-5.391-13.198-12.297-18.709-19.654c-0.253-0.063-0.484-0.197-0.592-0.452l-0.382-0.893  c-1.103-1.551-2.116-3.117-2.999-4.694h-3.665c8.472,16.644,30.198,31.923,33.213,37.521c3.223-5.982,27.802-23.016,34.752-40.956  h-3.509C77.667,54.576,66.179,65.298,57.944,72.96z M86.808,40.833c0.544-1.995,0.863-3.993,0.863-5.982  c0-10.847-8.791-19.638-19.639-19.638c-7.241,0-13.551,3.929-16.954,9.76c-3.404-5.831-9.713-9.76-16.955-9.76  c-10.847,0-19.639,8.792-19.639,19.638c0,3.134,0.778,6.29,2.044,9.418H5v1.717h17.565l2.395,5.588  c0.161,0.374,0.567,0.592,0.962,0.502c0.4-0.081,0.687-0.433,0.687-0.841v-7.271l1.47,3.765c0.129,0.33,0.446,0.547,0.8,0.547  h11.068c0.415,0,0.771-0.296,0.844-0.705l2.358-12.873l2.051,19.159c0.041,0.388,0.337,0.696,0.721,0.759  c0.044,0.004,0.089,0.009,0.133,0.009c0.335,0,0.646-0.197,0.785-0.51l6.595-14.886l3.664,12.625  c0.103,0.351,0.416,0.602,0.78,0.619c0.387,0.036,0.707-0.197,0.841-0.538l4.921-12.21l4.611,10.704  c0.139,0.323,0.402,0.527,0.816,0.519c0.351-0.013,0.664-0.239,0.78-0.573l2.769-7.825H95v-1.718H86.808z M83.436,40.833H72.009  c-0.362,0-0.688,0.229-0.81,0.573l-2.238,6.33l-4.556-10.582c-0.137-0.319-0.402-0.44-0.801-0.519  c-0.345,0.004-0.655,0.216-0.785,0.538l-4.764,11.816l-3.628-12.5c-0.101-0.346-0.406-0.594-0.767-0.617  c-0.363-0.006-0.698,0.179-0.843,0.509l-6.25,14.108l-2.341-21.867c-0.046-0.424-0.396-0.75-0.822-0.766  c-0.466-0.016-0.799,0.285-0.876,0.704l-3.298,17.999h-9.766l-2.917-7.469c-0.15-0.385-0.55-0.613-0.958-0.532  c-0.406,0.077-0.7,0.432-0.7,0.844v7.651l-0.971-2.264c-0.135-0.315-0.446-0.52-0.79-0.52h-3.086  c-1.425-3.16-2.314-6.324-2.314-9.418c0-9.039,7.354-16.392,16.393-16.392c5.793,0,11.216,3.123,14.151,8.149l2.804,4.802  l2.804-4.802c2.935-5.026,8.358-8.149,14.15-8.149c9.04,0,16.394,7.354,16.394,16.392C84.426,36.822,84.055,38.823,83.436,40.833z"/></svg>