<?xml version="1.0" encoding="UTF-8"?>
<svg width="1200pt" height="1200pt" version="1.1" viewBox="0 0 1200 1200" xmlns="http://www.w3.org/2000/svg">
 <g fill-rule="evenodd">
  <path d="m441.51 69.891c-6.7891-0.28516-13.379 2.3242-18.137 7.1758-49.961 50.977-78.539 109.66-79.484 170.07s26.195 120.58 79.855 172.98v-0.003906c5.1602 5.0352 12.309 7.4844 19.469 6.6719l134.35-15.188c3.6953-0.42188 7.2461-1.6953 10.363-3.7227l63.062-40.926c38.434 118.1 79.277 256.6 132.17 367.26-37.883-19.977-70.871-33.816-104.43-39.039-46.223-7.1914-90.957 4.8008-140.91 36.648-50.223-91.395-122.44-139.32-200.36-152.05-84.777-13.848-174.15 11.602-254.03 55.129v0.003907c-3.7734 2.0547-6.9258 5.0859-9.125 8.7773-2.2031 3.6914-3.375 7.9023-3.3906 12.199l-1.4219 359.38v0.003907c-0.027344 6.9297 2.9414 13.531 8.1445 18.109 107.6 94.652 238.96 92.066 371.65 45.07 235.63 90.516 460 62.52 661.61-87.008l0.003906 0.003906c4.6562-3.4531 7.9102-8.4727 9.1523-14.137 35.164-160.39-20.055-379.08-139.62-563.28-119.57-184.2-306.45-334.46-538.91-344.13zm8.7422 48.605c207.95 12.98 378.18 149.55 489.91 321.66 111.3 171.46 161.68 377.54 134.75 518.05-190.66 138.2-392.95 160.86-616.54 72.336l0.003906 0.003907c-5.4883-2.1719-11.586-2.2461-17.129-0.20312-123.77 45.578-230.48 50.449-323.72-26.059l1.3281-333.79c69.957-35.746 144.81-54.145 210.86-43.355 69.988 11.434 132.23 53.281 177.36 150.07 3.0352 6.5117 8.832 11.32 15.793 13.102 6.9609 1.7852 14.352 0.35547 20.148-3.8945 54.363-39.867 88.539-50.012 128.33-43.82 39.789 6.1914 88.656 32.504 160.67 74.195 6.2344 3.6094 13.762 4.2266 20.5 1.6836 6.7383-2.5469 11.98-7.9805 14.273-14.809 2.2969-6.8281 1.4023-14.328-2.4297-20.426-71.504-113.59-126.35-307.64-177.47-461-2.3477-7.0469-7.8281-12.609-14.84-15.062-7.0117-2.4531-14.766-1.5234-20.996 2.5195l-84.496 54.836-117.14 13.246c-40.844-42.879-58.211-86.742-57.535-129.88 0.67578-43.141 19.785-87.281 58.371-129.39z"/>
  <path d="m281.8 687.54c-27.641 0.27734-55.551 6.7656-89.211 18.988v-0.003906c-6.1133 2.0742-11.137 6.5195-13.934 12.34-2.7969 5.8203-3.1328 12.52-0.92578 18.59 2.2031 6.0703 6.7578 10.992 12.637 13.664 5.8828 2.668 12.586 2.8555 18.605 0.51953 72.129-26.188 91.684-25.41 169.85 10.203h0.003907c5.8125 2.7773 12.496 3.1016 18.547 0.90234 6.0547-2.2031 10.969-6.7461 13.641-12.605 2.6719-5.8633 2.875-12.551 0.56641-18.562-2.3125-6.0117-6.9414-10.844-12.852-13.41-46.289-21.09-81.391-30.988-116.93-30.629z"/>
 </g>
</svg>
