<svg xmlns="http://www.w3.org/2000/svg" xmlns:xlink="http://www.w3.org/1999/xlink" fill="#000000" version="1.1" x="0px" y="0px" enable-background="new 0 0 100 100" xml:space="preserve" viewBox="11.17 8.24 83.99 81.23"><metadata><?xpacket begin="&#65279;" id="W5M0MpCehiHzreSzNTczkc9d"?><x:xmpmeta xmlns:x="adobe:ns:meta/" x:xmptk="Adobe XMP Core 5.6-c111 79.158366, 2015/09/25-01:12:00        "/><?xpacket end="w"?></metadata><g><path d="M57.302,42.726c6.905,0.916,13.387,1.718,19.842,2.703c0.847,0.129,1.991,1.085,2.191,1.865   c0.184,0.714-0.492,2.031-1.186,2.529c-6.338,4.547-12.831,8.878-19.139,13.464c-4.804,3.493-9.436,7.226-14.089,10.921   c-5.887,4.676-11.704,9.441-17.582,14.128c-2.306,1.838-4.191,1.406-5.115-1.151c-0.191-0.53-0.132-1.415,0.198-1.829   c6.054-7.606,12.169-15.163,18.265-22.735c2.022-2.511,4.03-5.035,6.552-8.187c-7.039,0-13.596,0-19.84,0   c-2.034-4.419-1.969-4.433,1.172-6.799c4.765-3.59,9.357-7.418,14.205-10.889c8.908-6.378,17.86-12.704,26.986-18.761   c2.859-1.897,6.303-2.949,9.557-4.184c0.671-0.255,2.126,0.152,2.428,0.694c0.352,0.632,0.147,2.013-0.359,2.61   c-3.472,4.1-6.966,8.196-10.687,12.068c-4,4.162-8.262,8.073-12.392,12.111C57.952,41.632,57.724,42.112,57.302,42.726z    M38.497,72.828c0.171,0.185,0.342,0.37,0.514,0.556C49.677,65.392,60.342,57.4,71.3,49.189c-5.094-1.841-10.018-2.72-15.265-2.071   c-2.753,0.34-5.582,0.06-8.295,0.06c-0.476-2.536-0.355-2.394,1.934-4.353c6.518-5.578,12.964-11.243,19.352-16.97   c1.287-1.153,2.194-2.73,3.276-4.111c-6.949,3.081-37.902,26.279-39.141,28.908c5.441,0,10.89,0.334,16.27-0.132   c2.964-0.257,4.754,0.111,5.382,2.939C49.365,59.927,43.931,66.378,38.497,72.828z"/><path d="M32.679,30.642c-1.207,0-2.437,0.154-3.616-0.029c-3.554-0.55-6.798-1.725-8.469-5.287   c-0.252-0.536-0.111-1.257-0.151-1.892c0.637,0.032,1.368-0.13,1.895,0.127c3.027,1.477,5.999,3.064,9.004,4.587   c0.713,0.361,1.48,0.615,2.222,0.919C33.269,29.592,32.974,30.117,32.679,30.642z"/><path d="M95.168,39.323c-1.756,2.496-8.264,4.621-10.425,3.58c-0.661-0.318-1.191-1.242-1.395-1.994   c-0.073-0.269,0.944-1.131,1.546-1.234c2.483-0.423,4.992-0.724,7.504-0.925C93.196,38.685,94.03,39.072,95.168,39.323z"/><path d="M77.127,58.968c0.848,0.409,1.847,0.652,2.516,1.259c2.071,1.877,4.064,3.847,5.972,5.889   c0.427,0.457,0.384,1.352,0.557,2.046c-0.635,0.101-1.432,0.501-1.879,0.257c-3.607-1.968-6.239-4.831-7.858-8.539   C76.666,59.576,76.897,59.272,77.127,58.968z"/><path d="M38.729,10.633c1.09,1.278,1.832,1.89,2.238,2.676c0.996,1.929,1.882,3.92,2.712,5.928c0.22,0.531,0.077,1.213,0.101,1.825   c-0.688-0.019-1.815,0.216-1.994-0.096c-1.459-2.534-2.805-5.141-4.011-7.804C37.576,12.721,38.226,11.896,38.729,10.633z"/><path d="M62.54,78.551c-0.82,1.142-1.372,1.91-1.923,2.678c-0.578-0.707-1.354-1.33-1.694-2.137   c-0.746-1.771-1.331-3.618-1.851-5.471c-0.161-0.575,0.1-1.269,0.168-1.908c0.705,0.156,1.795,0.083,2.05,0.508   C60.472,74.199,61.423,76.316,62.54,78.551z"/><path d="M14.709,49.232c1.318,0.639,3.719,1.221,3.756,1.927c0.12,2.3-2.329,1.631-3.732,2.14   c-0.586,0.213-1.589,0.198-1.976-0.166c-0.697-0.658-1.073-1.656-1.583-2.512c0.744-0.262,1.478-0.556,2.235-0.77   c0.322-0.091,0.691-0.015,1.038-0.015C14.535,49.634,14.622,49.433,14.709,49.232z"/></g><g display="none"><path display="inline" d="M86.192,62.465c-7.932-8.441-17.819-13.48-27.984-18.767c-1.604-0.834-3.275-1.681-4.977-2.553   c2.98-2.11,5.948-4.236,8.906-6.376c0.284-0.066,0.543-0.237,0.728-0.527c1.64-1.19,3.267-2.396,4.897-3.6   c0.28,0.37,0.558,0.726,0.87,1.073c1.298,1.45,3.656-0.084,3.177-1.85c-0.175-0.645-0.283-1.304-0.366-1.967   c1.94-1.459,3.877-2.923,5.792-4.417c1.526-1.191,0.251-3.947-1.584-3.825c-0.8,0.043-1.598,0.106-2.395,0.188   c-0.75,0.068-1.28,0.423-1.61,0.891c0.111-0.914,0.232-1.819,0.339-2.705c0.096-0.797-1.283-0.991-1.412-0.191   c-0.333,2.056-0.551,4.189-0.898,6.289c-1.939,1.635-3.904,3.239-5.894,4.813c0.001-0.011,0.001-0.021,0.002-0.032   c0.187-2.147,0.396-4.263,0.41-6.422c0.006-0.95-1.416-0.938-1.468,0c-0.169,3.052-0.751,5.745-1.581,8.538   c-3.675,2.852-7.397,5.646-11.089,8.471c-0.67-0.352-1.34-0.704-2.011-1.066c-0.082-4.618-0.01-9.232,0.292-13.838   c0.37,0.201,0.759,0.372,1.196,0.471c3.217,0.729,7.675-1.123,10.185-3.031c1.233-0.938,0.591-3.491-1.177-2.793   c-3.162,1.25-6.246,3.245-9.112,2.289c0.314-0.011,0.628-0.079,0.914-0.206c3.402-1.511,7.319-3.351,10.058-5.907   c0.744-0.695,0.835-2.2,0-2.877c-0.188-0.153-0.376-0.305-0.565-0.458c-1.267-1.029-3.126-0.224-3.263,1.149   c-2.11,1.455-4.463,2.54-6.688,3.82c-0.233-0.326-0.466-0.652-0.698-0.976c0.105-0.748,0.21-1.496,0.333-2.244   c0.209-1.271-1.704-1.842-1.964-0.542c-0.03,0.149-0.053,0.298-0.082,0.447c-1.376-1.829-2.822-3.6-4.499-5.265   c-0.701-0.696-1.647,0.324-1.059,1.059c1.964,2.455,3.765,5.245,4.859,8.246c-0.081,0.526-0.135,1.053-0.208,1.579   c-1.063-1.379-2.524-4.618-4.652-3.98c-0.762,0.229-0.444,1.342,0.327,1.184c1.025-0.21,3.037,4.411,3.912,5.933   c-0.534,4.786-0.787,9.587-0.886,14.396c-3.004-1.714-5.938-3.575-8.635-5.646c3.033-1.491,5.406-3.677,5.961-7.263   c0.211-1.367-1.758-2.55-2.464-1.039c-1.426,3.05-3.517,4.925-5.952,6.293c-0.956-0.836-1.876-1.701-2.736-2.609   c0.253-0.367,0.488-0.744,0.724-1.1c1.245-1.878,2.474-3.777,3.596-5.73c0.966-1.682-1.543-3.124-2.587-1.512   c-1.204,1.86-2.168,4.417-3.501,6.328c-0.781-0.966-1.508-1.968-2.159-3.019c-0.496-0.801-1.745-0.079-1.268,0.741   c0.717,1.231,1.52,2.401,2.383,3.527c-2.248,2.061-7.15,1.6-9.968,1.642c-1.041,0.016-1.043,1.606,0,1.618   c2.25,0.025,4.463-0.111,6.706-0.238c1.373-0.077,2.987,0.122,4.265-0.51c0.252-0.124,0.477-0.283,0.687-0.459   c0.672,0.761,1.384,1.49,2.112,2.205c-3.042,1.373-6.466,2.245-9.768,3.678c-0.838,0.364-0.241,1.769,0.623,1.478   c3.111-1.046,7.492-1.728,11.307-3.156c3.276,2.863,6.925,5.377,10.628,7.67c-0.01,1.142-0.006,2.285-0.004,3.428   c-2.931,2.254-5.864,4.505-8.789,6.767c-3.704,2.865-10.778,10.695-15.494,10.245c-0.911-0.087-0.881,1.299,0,1.408   c4.634,0.576,9.206-4.335,12.801-6.795c3.86-2.641,7.679-5.342,11.499-8.041c0.106,11.258,0.528,22.537-0.417,33.76   c-0.487,0.472-0.789,1.179-0.678,1.979c0.092,0.823,0.227,1.639,0.405,2.448c0.547,2.847,4.747,2.021,4.866-0.659   c0.583-13.196-0.648-26.435-1.173-39.647c0.138-0.097,0.275-0.194,0.413-0.291c0.656-0.462,1.309-0.927,1.964-1.389   c0.279,0.162,0.563,0.331,0.841,0.491c9.511,5.49,22.258,10.417,29.405,19.31c-1.126,1.247-0.718,3.595,1.462,3.575   c0.755-0.006,1.51-0.014,2.265-0.023C86.592,66.329,87.537,63.896,86.192,62.465z"/></g></svg>