<?xml version="1.0" encoding="UTF-8"?>
<svg width="1200pt" height="1200pt" version="1.1" viewBox="0 0 1200 1200" xmlns="http://www.w3.org/2000/svg">
 <path d="m977.59 643.99c13.363-14.348 24.5-30.613 33.039-48.262h22.82c15.188 0.023438 29.57-6.8359 39.109-18.652 9.543-11.82 13.211-27.324 9.9844-42.164-3.2266-14.844-13.008-27.422-26.594-34.211 0.22656-3.2812 0.44922-6.5625 0.44922-9.8828v0.003906c-0.52734-56.43-23.316-110.37-63.406-150.09-40.09-39.719-94.238-62-150.67-62s-110.58 22.281-150.67 62c-40.09 39.715-62.879 93.656-63.406 150.09 0 3.3359 0.22656 6.6016 0.44922 9.8828v-0.003906c-7.5586 3.7617-14.055 9.3672-18.883 16.293-4.918-7.0508-11.551-12.738-19.273-16.516-2.9336-35.031-14.453-68.801-33.535-98.32-19.086-29.52-45.152-53.883-75.891-70.938 0.69922-1.2773 1.0703-2.707 1.0898-4.1641 0-37.477-19.996-72.109-52.453-90.852-32.461-18.738-72.449-18.738-104.91 0-32.461 18.742-52.453 53.375-52.453 90.852 0.015626 1.4258 0.37109 2.8242 1.0312 4.0898-13.23 7.2773-25.648 15.938-37.051 25.836-0.75391 0.68359-1.3867 1.4883-1.875 2.3828-2.7031 0.32422-5.375 0.87109-7.9883 1.6289-10.391-12.324-22.734-22.859-36.543-31.18-11.738-6.3555-25.543-7.707-38.289-3.75-16.742 5.0664-29.621 18.516-33.957 35.465-4.332 16.949 0.51172 34.93 12.77 47.41-12.234 12.516-17.035 30.516-12.66 47.461 4.375 16.945 17.293 30.367 34.055 35.395 4.0586 1.2227 8.2539 1.9141 12.488 2.0625-0.1875 1.707-0.33594 3.75-0.44922 6.6172v0.15234c-13.645 6.7578-23.48 19.348-26.734 34.223-3.2539 14.875 0.42187 30.422 9.9961 42.262 9.5781 11.84 24.012 18.688 39.238 18.617h22.82-0.003906c8.5508 17.645 19.688 33.918 33.039 48.281 21.402 23.125 48.137 40.672 77.867 51.109-12.199 3.8164-23.988 8.8438-35.191 15l-0.24219 0.11328h-0.003906c-24.523 13.5-45.812 32.18-62.383 54.742-16.57 22.562-28.02 48.469-33.559 75.91l-25.312 125.77c-0.56641 2.7578 0.14063 5.625 1.9219 7.8047 1.7812 2.1797 4.4492 3.4453 7.2656 3.4453h409.42c2.8164 0 5.4844-1.2656 7.2656-3.4453 1.7812-2.1797 2.4883-5.0469 1.9219-7.8047l-25.145-125.76h0.003906c-5.543-27.445-17.004-53.352-33.578-75.918-16.578-22.57-37.871-41.25-62.406-54.75h-0.11328 0.003906c-10.906-5.9922-22.367-10.914-34.219-14.699 24.461-7.9961 46.996-20.988 66.172-38.156 19.172-17.172 34.566-38.137 45.203-61.574h21.262c16.582-0.007812 32.094-8.1953 41.457-21.883 9.3555 13.684 24.859 21.871 41.438 21.883h21.281c10.641 23.434 26.039 44.398 45.219 61.57 19.176 17.168 41.711 30.16 66.172 38.16-11.863 3.7852-23.336 8.707-34.254 14.699h-0.11328c-24.535 13.492-45.836 32.172-62.414 54.742-16.574 22.566-28.031 48.477-33.566 75.926l-25.145 125.76c-0.5625 2.7578 0.14453 5.625 1.9258 7.8047 1.7812 2.1797 4.4453 3.4453 7.2617 3.4453h409.39c2.8164 0 5.4844-1.2656 7.2656-3.4453 1.7773-2.1797 2.4844-5.0469 1.9219-7.8047l-25.145-125.76c-5.5391-27.438-16.996-53.34-33.562-75.902-16.57-22.562-37.855-41.246-62.379-54.746l-0.24219-0.11328h-0.003906c-11.195-6.1523-22.98-11.18-35.172-15 29.723-10.457 56.438-28.016 77.828-51.148zm55.836-67.012h-15 0.003906c2.7266-7.7344 4.9375-15.637 6.6172-23.664 0.60156-2.793 1.293-5.625 1.7617-8.3984 0.35547-2.1367 0.52344-4.293 0.78906-6.4492 0.46875-3.75 0.89844-7.3125 1.1445-10.969 0.13281-2.2695 0.13281-4.5391 0.1875-6.8047 0.054688-2.2695 0.22656-4.5547 0.1875-6.8438h4.332v-0.003906c8.5039-0.20703 16.73 3.0273 22.82 8.9688s9.5234 14.09 9.5234 22.598c0 8.5078-3.4336 16.656-9.5234 22.598-6.0898 5.9414-14.316 9.1758-22.82 8.9688zm-386.38-86.156c0.50391-51.473 21.305-100.67 57.883-136.89s85.973-56.539 137.45-56.539c51.477 0 100.87 20.32 137.45 56.539 36.578 36.219 57.379 85.414 57.883 136.89 0 1.5742-0.13281 3.1328-0.20703 4.6875-1.3672-0.11328-2.6797-0.41406-4.0703-0.41406h-5.9219c-2.5312-21.305-8.7617-42.004-18.414-61.164-7.707-15.051-21.043-26.449-37.113-31.715-16.066-5.2656-33.562-3.9766-48.684 3.5898l-19.086 9.543-0.003906 0.003906c-33.195 16.551-69.777 25.184-106.88 25.219h-76.895c-15.402-0.18359-30.34 5.2617-42.016 15.309-11.676 10.051-19.281 24.012-21.395 39.27h-5.625c-1.3867 0-2.6797 0.30078-4.0508 0.41406-0.16797-1.6133-0.30078-3.168-0.30078-4.7422zm-75.898 4.5547c-0.91797 0-1.875-0.28125-2.7383-0.28125h-5.625c-2.1172-15.262-9.7266-29.223-21.406-39.273-11.676-10.047-26.621-15.492-42.023-15.309h-77.062c-10.035-0.046875-20.055-0.72656-30-2.0234-1.1367-11.117-5.9844-21.527-13.766-29.551 12.156-12.559 16.898-30.539 12.52-47.461-4.3789-16.922-17.246-30.344-33.969-35.434-2.0625-0.55469-4.1602-0.97656-6.2812-1.2539 34.406-4.9961 69.523-0.63672 101.66 12.621 32.141 13.262 60.113 34.93 80.988 62.73s33.879 60.711 37.645 95.273zm-212.38-78.395c6.8984 4.1133 11.945 10.727 14.094 18.465 2.1445 7.7383 1.2305 16.008-2.5625 23.086-3.9023 7.375-10.59 12.887-18.574 15.312-7.9805 2.4258-16.605 1.5625-23.949-2.3945-10.469-6.3516-19.945-14.211-28.125-23.324 1.4688-1.1641 2.8633-2.418 4.1797-3.75 9.457-9.3867 14.766-22.168 14.738-35.492-0.035156-3.3906-0.42578-6.7656-1.1641-10.07-0.14844-0.73047-0.30078-1.4609-0.46875-2.1758-0.79688-3.1602-1.8945-6.2344-3.2812-9.1875-0.20703-0.44922-0.46875-0.84375-0.71094-1.293-1.3594-2.6328-2.9453-5.1445-4.7422-7.5-0.375-0.48828-0.69531-0.99219-1.0859-1.4609h-0.003906c-2.0742-2.543-4.3984-4.875-6.9375-6.957-0.17188-0.19141-0.35156-0.37109-0.54297-0.54297 8.207-9.1602 17.73-17.047 28.258-23.402 9.7148-5.1719 21.434-4.875 30.871 0.79297 9.4375 5.6641 15.211 15.863 15.215 26.871 0 11.008-5.7695 21.211-15.207 26.879l-13.5 8.0625zm-77.324 20.625c-4.1719 1.9258-8.7188 2.9102-13.312 2.8867h-27.188c-8.3828 0.042968-16.438-3.2578-22.383-9.168-5.9453-5.9102-9.293-13.945-9.3047-22.332-0.074219-8.3594 3.2656-16.391 9.2422-22.234 2.7031-2.6445 5.8281-4.8164 9.2461-6.4336 4.1172-1.8789 8.5977-2.8438 13.125-2.832h27.262c8.3828-0.039063 16.438 3.2617 22.383 9.1719 5.9453 5.9102 9.293 13.945 9.3047 22.328-0.03125 6.0234-1.7773 11.91-5.0312 16.977s-7.8828 9.1055-13.344 11.637zm30.789-103.46c-10.988 7.7188-20.988 16.754-29.777 26.906-4.6367-1.4609-9.4609-2.2383-14.324-2.3086h-3.4688c14.645-10.371 30.652-18.668 47.57-24.656zm65.117-93.188c21.957 0.058594 43.062 8.5078 58.992 23.625 15.926 15.113 25.469 35.75 26.676 57.676-26.973-11.961-56.152-18.141-85.66-18.141-29.504 0-58.684 6.1797-85.656 18.141 1.1914-21.934 10.727-42.578 26.652-57.707 15.926-15.125 37.031-23.586 58.996-23.652zm-238.73 217.63c-3.7422-7.1133-4.6133-15.395-2.4375-23.133 2.1758-7.7383 7.2383-14.348 14.141-18.473l13.5-8.043-13.52-8.0625c-7.0117-4.1523-12.125-10.879-14.25-18.746-2.125-7.8672-1.0977-16.254 2.8672-23.375 3.9648-7.1211 10.551-12.41 18.355-14.746 8.0078-2.5078 16.688-1.6406 24.039 2.3984 10.473 6.3359 19.953 14.191 28.125 23.305-1.4375 1.1367-2.8086 2.3477-4.1055 3.6406-9.5703 9.3672-14.918 22.23-14.812 35.625 0.042969 3.4102 0.43359 6.8086 1.1602 10.141 0.14844 0.73047 0.30078 1.4453 0.46875 2.1562 0.79297 3.1953 1.8906 6.3008 3.2812 9.2812 0.1875 0.39453 0.42969 0.75 0.61719 1.1445h0.003906c1.3828 2.7031 3.0078 5.2773 4.8555 7.6875 0.33594 0.44922 0.65625 0.9375 1.0312 1.3867 1.1719 1.4414 2.4219 2.8125 3.75 4.1094-1.6484 3.75-3.2812 7.668-4.6484 11.586-6.0078 5.8164-12.695 10.891-19.914 15.113-7.3281 3.9688-15.949 4.8086-23.906 2.3242-7.9844-2.4375-14.676-7.9492-18.602-15.32zm45.133 32.664 0.13281-0.71094c2.0938-0.66016 4.1445-1.4609 6.1289-2.4023 1.0859-0.5625 2.3828-1.5195 3.5234-2.2109-0.52344 3.0391-0.91797 6.1133-1.293 9.1875h-5.9414c-1.1445 0-2.2109 0.26172-3.3359 0.33594 0.16797-1.5 0.39062-2.6797 0.78516-4.1992zm2.625 85.742c-8.5039 0.20703-16.734-3.0234-22.824-8.9648-6.0859-5.9453-9.5195-14.09-9.5195-22.598 0-8.5078 3.4336-16.656 9.5195-22.598 6.0898-5.9414 14.32-9.1758 22.824-8.9688h4.3125c0 2.4766 0.14844 4.9492 0.22656 7.4062 0 2.0078 0 3.9922 0.16797 6 0.24219 4.0703 0.71094 8.1172 1.2578 12.168 0.22656 1.7617 0.35547 3.5234 0.63672 5.2891 0.61719 3.75 1.4805 7.3516 2.3242 11.023 1.6055 7.1953 3.6406 14.289 6.0938 21.242zm266.95 145.59c-9.8516 18.402-26.051 32.598-45.586 39.945s-41.074 7.3477-60.609 0-35.738-21.543-45.586-39.945h0.14844c23.637-11.383 49.535-17.297 75.77-17.297s52.133 5.9141 75.77 17.297zm94.461 121.99 22.914 114.54h-61.145v-127.12c0-5.1758-4.1992-9.375-9.375-9.375-5.1797 0-9.375 4.1992-9.375 9.375v127.11h-226.88v-127.11c0-5.1758-4.1992-9.375-9.375-9.375-5.1797 0-9.375 4.1992-9.375 9.375v127.11l-61.105 0.003906 22.914-114.54-0.003906-0.003906c4.6875-23.16 14.051-45.125 27.516-64.547 13.469-19.422 30.754-35.891 50.805-48.402 11.934 22.332 31.582 39.566 55.277 48.484 23.699 8.9219 49.832 8.9219 73.531 0 23.695-8.918 43.344-26.152 55.277-48.484 20.055 12.508 37.344 28.977 50.812 48.398 13.465 19.422 22.828 41.387 27.508 64.551zm-52.461-206.79c-15.73 15.797-34.508 28.23-55.191 36.543s-42.844 12.332-65.129 11.812c-22.52-0.6875-44.668-5.9062-65.129-15.344-20.457-9.4336-38.809-22.895-53.953-39.574-13.379-14.453-24.262-31.031-32.211-49.051-2.418-5.457-4.4609-10.969-6.2812-16.48-0.32031-0.99219-0.65625-1.9883-0.95703-2.9805-1.4062-4.5742-2.5117-9.168-3.4883-13.781-0.35547-1.6875-0.78906-3.375-1.0859-5.082-0.73047-4.125-1.1797-8.25-1.5742-12.395-0.1875-1.875-0.48828-3.75-0.60156-5.625-0.34766-5.8672-0.34766-11.754 0-17.625v-1.0117l0.22656-1.9688c1.0117-13.152 3.5938-26.141 7.6875-38.68 3.1328-3.0938 6.0938-6.2422 9-9.543v-0.003906c4.6367 1.4609 9.4609 2.2383 14.324 2.3086h27.168c4.8633-0.070312 9.6875-0.84766 14.324-2.3086 10.402 12.316 22.746 22.848 36.543 31.184 13.391 7.3047 29.395 8.0469 43.402 2.0195 14.008-6.0273 24.473-18.156 28.375-32.902 10.453 1.3359 20.98 2.0312 31.52 2.082h77.008-0.003906c10.832-0.19141 21.363 3.5742 29.617 10.598 8.25 7.0234 13.652 16.816 15.195 27.539 0.32031 2.5312 0.28125 5.1367 0.48828 7.6875v1.125c0.28125 3.9766 0.73047 7.9297 0.73047 11.906 0 5.625-0.28125 11.117-0.80469 16.613-1.6172 16.477-5.668 32.617-12.02 47.906v0.44922c-8.6484 20.48-21.289 39.035-37.18 54.582zm73.125-60.805h-13.82c0-0.24219 0.13281-0.50781 0.20703-0.75 1.0117-3.0938 1.875-6.2422 2.7188-9.375 0.67578-2.457 1.3125-4.9297 1.875-7.4062 0.5625-2.4766 1.1445-5.3047 1.6328-7.9688 0.60156-3.3555 1.0703-6.7305 1.5-10.125 0.24219-2.082 0.5625-4.1445 0.75-6.2266 0.50781-5.625 0.82422-11.25 0.82422-16.969 0-1.4258 0-2.8672-0.11328-4.2734h4.3867c11.094 0.26953 21.23 6.3438 26.703 16 5.4688 9.6562 5.4688 21.473 0 31.129-5.4727 9.6562-15.609 15.73-26.703 16zm96.695 0h-13.805c-11.094-0.27344-21.23-6.3477-26.699-16.004-5.4727-9.6523-5.4727-21.473 0-31.129 5.4688-9.6562 15.605-15.73 26.699-16h4.3867c0 1.4062-0.11328 2.8516-0.11328 4.2734 0 5.7734 0.33594 11.512 0.86328 17.211 0.16797 1.875 0.42969 3.543 0.65625 5.3242 0.44922 3.75 0.97656 7.5 1.6484 11.137 0.42969 2.418 0.9375 4.8203 1.4609 7.2188 0.63672 2.7734 1.3516 5.625 2.1016 8.3047s1.5742 5.793 2.4922 8.6445c0.082031 0.34375 0.15625 0.69922 0.26953 1.0195zm22.238 6.168v-0.39453h-0.003906c-6.375-15.258-10.457-31.379-12.113-47.832-0.55078-5.5508-0.82422-11.176-0.82422-16.875 0-4.2734 0.46875-8.5117 0.78906-12.77v-0.14844c0.1875-2.5859 0.14844-5.2109 0.46875-7.7812 1.543-10.723 6.9492-20.512 15.199-27.535 8.25-7.0195 18.781-10.789 29.613-10.602h76.93c39.977-0.054687 79.398-9.3594 115.18-27.188l19.086-9.5625h0.003906c10.715-5.3477 23.105-6.2422 34.477-2.4883 11.371 3.7578 20.793 11.855 26.215 22.531 9.875 19.535 15.789 40.832 17.402 62.664v0.13281c0 0.16797 0.20703 1.875 0.22656 1.9688 0 0.33594 0 0.65625 0.11328 0.99219h-0.003906c0.34766 5.9375 0.34766 11.891 0 17.828-0.09375 1.5-0.33594 2.9805-0.46875 4.4805-0.41406 4.5391-0.91797 9.0938-1.7422 13.633-0.26172 1.4258-0.60156 2.8125-0.89844 4.2383-1.0312 4.8945-2.2109 9.7891-3.75 14.664-0.22656 0.76953-0.46875 1.5195-0.71094 2.2891l-0.003906-0.003906c-7.9219 24.516-21.105 47-38.625 65.887-15.141 16.684-33.484 30.145-53.941 39.578-20.457 9.4375-42.605 14.656-65.121 15.344-22.293 0.49219-44.457-3.5391-65.148-11.852-20.695-8.3086-39.488-20.73-55.246-36.508-15.887-15.59-28.516-34.191-37.145-54.711zm230.93 139.45-0.003907-0.003906c-9.8516 18.402-26.051 32.598-45.586 39.945s-41.074 7.3477-60.609 0c-19.535-7.3477-35.734-21.543-45.586-39.945h0.09375c23.633-11.387 49.531-17.301 75.77-17.301 26.234 0 52.133 5.9141 75.766 17.301zm94.48 121.97 22.895 114.54h-61.109v-127.11c0-5.1758-4.1992-9.375-9.375-9.375-5.1797 0-9.375 4.1992-9.375 9.375v127.11h-226.88v-127.11c0-5.1758-4.1992-9.375-9.375-9.375-5.1797 0-9.375 4.1992-9.375 9.375v127.11l-61.09 0.003906 22.895-114.54v-0.003906c4.6875-23.16 14.051-45.125 27.516-64.547 13.469-19.422 30.754-35.891 50.805-48.402 11.934 22.332 31.578 39.566 55.277 48.484 23.699 8.9219 49.832 8.9219 73.531 0 23.695-8.918 43.344-26.152 55.277-48.484 20.055 12.508 37.348 28.977 50.816 48.398s22.832 41.387 27.52 64.551zm-573.14-232.65c-8.4023 14.703-21.738 25.957-37.645 31.773-15.906 5.8125-33.355 5.8125-49.262 0-15.906-5.8164-29.242-17.07-37.648-31.773-1.4219-2.1562-1.8945-4.8008-1.3047-7.3164 0.59375-2.5117 2.1953-4.6719 4.4297-5.9648 2.2383-1.293 4.9062-1.6094 7.3828-0.86719 2.4727 0.73828 4.5312 2.4648 5.6914 4.7734 6.2031 10.898 16.066 19.242 27.836 23.555 11.773 4.3125 24.695 4.3125 36.465 0 11.773-4.3125 21.637-12.656 27.836-23.555 1.1875-2.2656 3.2422-3.9453 5.6953-4.6602 2.4531-0.71094 5.0938-0.39062 7.3047 0.89062 2.2109 1.2773 3.8047 3.4023 4.4141 5.8828 0.60938 2.4844 0.17578 5.1055-1.1953 7.2617zm402.71 36.133h0.003906c-25.73-0.11719-49.465-13.871-62.363-36.133-1.4219-2.1562-1.8945-4.8008-1.3047-7.3164 0.59375-2.5117 2.1953-4.6719 4.4297-5.9648 2.2383-1.293 4.9062-1.6094 7.3828-0.86719 2.4727 0.73828 4.5312 2.4648 5.6914 4.7734 6.207 10.895 16.07 19.242 27.844 23.551 11.773 4.3125 24.695 4.3125 36.469 0 11.773-4.3086 21.641-12.656 27.844-23.551 1.1602-2.3086 3.2188-4.0352 5.6953-4.7734 2.4727-0.74219 5.1445-0.42578 7.3789 0.86719 2.2344 1.293 3.8398 3.4531 4.4297 5.9648 0.59375 2.5156 0.12109 5.1602-1.3047 7.3164-12.867 22.211-36.523 35.957-62.191 36.133zm-526.33-102.62c0.003906 5.4219-2.1445 10.625-5.9766 14.461-3.8281 3.8359-9.0273 5.9922-14.449 5.9961s-10.621-2.1484-14.457-5.9805c-3.8359-3.832-5.9922-9.0312-5.9922-14.449 0-5.4219 2.1523-10.621 5.9844-14.457 3.832-3.8359 9.0312-5.9883 14.453-5.9883 5.418 0 10.613 2.1523 14.445 5.9805 3.832 3.8281 5.9883 9.0195 5.9922 14.438zm163.55 0c0.011718 5.4297-2.1367 10.637-5.9688 14.48-3.832 3.8438-9.0352 6.0078-14.461 6.0156-5.4258 0.003907-10.637-2.1445-14.477-5.9805-3.8398-3.832-6-9.0391-6.0039-14.465-0.003906-5.4258 2.1484-10.633 5.9844-14.473 3.8398-3.8398 9.043-5.9961 14.473-5.9961 5.418 0 10.613 2.1484 14.449 5.9766 3.8359 3.8281 5.9961 9.0234 6.0039 14.441zm424.09 0h0.003906c-0.003906-5.4258 2.1445-10.633 5.9805-14.473 3.832-3.8398 9.0352-6 14.461-6 5.4297-0.003906 10.633 2.1484 14.473 5.9844 3.8398 3.8359 5.9961 9.0391 5.9961 14.465 0.003906 5.4258-2.1523 10.629-5.9883 14.469-3.8359 3.8359-9.0391 5.9922-14.465 5.9922-5.4102-0.019531-10.59-2.1797-14.41-6.0117-3.8203-3.8281-5.9688-9.0156-5.9727-14.426zm-122.64 0h0.003906c0.011719 5.4297-2.1367 10.637-5.9688 14.48s-9.0352 6.0078-14.461 6.0156c-5.4297 0.003907-10.637-2.1445-14.477-5.9805-3.8438-3.832-6.0039-9.0391-6.0078-14.465 0-5.4258 2.1523-10.633 5.9883-14.473 3.8359-3.8398 9.043-5.9961 14.469-5.9961 5.4219-0.003906 10.621 2.1445 14.457 5.9727s5.9961 9.0273 6 14.445zm80.082 281.14h0.003906c0 4.9727-1.9766 9.7422-5.4922 13.262-3.5156 3.5156-8.2852 5.4883-13.258 5.4883-4.9727 0-9.7422-1.9727-13.258-5.4883-3.5156-3.5195-5.4922-8.2891-5.4922-13.262 0-4.9727 1.9766-9.7422 5.4922-13.258s8.2852-5.4922 13.258-5.4922c4.9727 0 9.7422 1.9766 13.258 5.4922s5.4922 8.2852 5.4922 13.258zm0 50.758h0.003906c0 4.9727-1.9766 9.7422-5.4922 13.258-3.5156 3.5156-8.2852 5.4922-13.258 5.4922-4.9727 0-9.7422-1.9766-13.258-5.4922-3.5156-3.5156-5.4922-8.2852-5.4922-13.258s1.9766-9.7422 5.4922-13.258c3.5156-3.5156 8.2852-5.4922 13.258-5.4922 4.9727 0 9.7422 1.9766 13.258 5.4922 3.5156 3.5156 5.4922 8.2852 5.4922 13.258z"/>
</svg>
