<svg xmlns="http://www.w3.org/2000/svg" fill="#000000" x="0px" y="0px" viewBox="27.16 16 466.75 474.31"><title>Breathing-lungs-medicine-organ</title><path d="M156.862,442.143A309.366,309.366,0,0,1,104.237,474.1q-1.761.821-3.492,1.593l6.51,14.616q1.859-.828,3.75-1.711a325.57,325.57,0,0,0,55.416-33.628c19.839-14.779,47.3-38.34,65.436-66.659l-13.472-8.63C201.545,405.972,175.634,428.159,156.862,442.143Z"/><path d="M478.76,234.567l15.154-5.134c-1.853-5.471-3.852-10.965-5.937-16.331l-14.913,5.8C475.065,224.047,476.981,229.318,478.76,234.567Z"/><path d="M455.347,180.09c3.977,7.521,7.751,15.308,11.215,23.145l14.633-6.47c-3.615-8.178-7.552-16.3-11.7-24.154-33.154-62.7-74.891-98.523-96.82-114.293l-9.342,12.99C384.119,86.259,423.719,120.273,455.347,180.09Z"/><path d="M352.238,83.054a37.871,37.871,0,0,0-59.584,28.624c-.984,15.987-2.245,38.8-3.207,64.112L280,164.994V40a24,24,0,0,0-48,0V164.994l-9.447,10.8c-.962-25.317-2.223-48.125-3.208-64.112a37.87,37.87,0,0,0-59.586-28.622C143.629,94.4,102.672,127.286,70.8,187.568c-39.176,74.093-52.061,163.3-38.3,265.142.716,5.305,4.322,17.724,22.3,18.483.572.025,1.151.036,1.738.036,25.418,0,64.537-22.379,90.766-41.917,18.311-13.642,61.788-49.347,69.974-86.187,4.259-19.172,6.511-50.046,6.7-91.79L256,219.314l32.021,32.021c.189,41.744,2.441,72.618,6.7,91.79,8.186,36.84,51.663,72.545,69.974,86.187,26.23,19.54,65.348,41.92,90.766,41.917.586,0,1.167-.011,1.738-.036,17.977-.759,21.583-13.178,22.3-18.482,13.765-101.842.88-191.05-38.3-265.143C409.328,127.286,368.371,94.4,352.238,83.054ZM264,160H248V144h16Zm0-32H248V112h16Zm0-32H248V80h16Zm-8-64a8.009,8.009,0,0,1,8,8V64H248V40A8.009,8.009,0,0,1,256,32ZM201.66,339.655c-4.872,21.922-28.764,50.642-63.914,76.826C106.18,440,72.332,455.922,55.477,455.208c-6.531-.276-6.871-2.8-7.12-4.639-13.307-98.469-1-184.439,36.585-255.522,30.252-57.215,68.835-88.226,84.017-98.9a21.871,21.871,0,0,1,34.416,16.516c1.195,19.408,2.8,48.921,3.775,80.733L176.144,228.83l-7.46-7.46,7.161-35.8-15.69-3.138-5.068,25.342-17.43-17.43-11.314,11.314,17.43,17.43-25.342,5.068,3.138,15.69,35.8-7.161,8.213,8.214-22.035,25.183-29.02-9.671-5.058,15.18,22.652,7.549-2.819,3.222a22.566,22.566,0,0,0-3.847,23.437l-11,6.6-33-15.631-6.85,14.46L97.965,322.3,76.824,334.98,85.057,348.7l21.136-12.682-1.229,25.811,15.982.761,1.737-36.467,14.119-8.471a22.563,22.563,0,0,0,25.386-4.525L168,307.314v25.373l-21.657,21.656,11.314,11.314,24-24A8,8,0,0,0,184,336V291.314l23.792-23.791C207.172,299.878,205.117,324.094,201.66,339.655ZM256,200a8,8,0,0,0-5.657,2.343l-99.468,99.469a6.53,6.53,0,0,1-10.049-1,6.54,6.54,0,0,1,.519-7.92L243.63,176h24.74L370.655,292.9a6.54,6.54,0,0,1,.519,7.92,6.529,6.529,0,0,1-10.048,1l-99.469-99.469A8,8,0,0,0,256,200ZM463.643,450.57c-.249,1.841-.589,4.362-7.12,4.638-16.854.69-50.7-15.212-82.269-38.727-35.15-26.184-59.042-54.9-63.914-76.826-3.457-15.561-5.512-39.777-6.132-72.133L328,291.314V336a8,8,0,0,0,2.343,5.657l24,24,11.314-11.314L344,332.687V307.314l5.812,5.812a22.437,22.437,0,0,0,15.9,6.6c.745,0,1.5-.037,2.246-.112a22.566,22.566,0,0,0,7.235-1.963l14.119,8.471,1.737,36.467,15.982-.761-1.229-25.811L426.943,348.7l8.233-13.719L414.035,322.3,437.4,311.23l-6.85-14.46-33,15.631-11-6.6a22.566,22.566,0,0,0-3.847-23.437l-2.819-3.222,22.652-7.549-5.058-15.18-29.02,9.671L346.416,240.9l8.213-8.214,35.8,7.161,3.138-15.69-25.342-5.068,17.43-17.43-11.314-11.314-17.43,17.43-5.068-25.342-15.69,3.138,7.161,35.8-7.46,7.46L304.85,193.4c.973-31.812,2.58-61.325,3.774-80.733a21.87,21.87,0,0,1,34.414-16.518c15.185,10.677,53.768,41.688,84.02,98.9C464.642,266.13,476.95,352.1,463.643,450.57Z"/></svg>