<?xml version="1.0" encoding="UTF-8"?>
<svg width="1200pt" height="1200pt" version="1.1" viewBox="0 0 1200 1200" xmlns="http://www.w3.org/2000/svg">
 <path d="m322.5 1118.6c-26.723-0.22266-52.023-12.066-69.309-32.449-17.285-20.379-24.836-47.277-20.691-73.676l43.5-252.75c0.89062-5.3828-0.93359-10.855-4.875-14.625l-183.75-178.88c-16.504-15.949-26.41-37.512-27.758-60.422-1.3477-22.91 5.9609-45.488 20.48-63.262 14.52-17.773 35.184-29.441 57.902-32.691l253.88-37.5c5.3281-0.85156 9.9258-4.1953 12.375-9l112.5-229.88c10.105-20.57 27.562-36.598 48.918-44.918 21.355-8.3164 45.059-8.3164 66.414 0 21.355 8.3203 38.812 24.348 48.918 44.918l112.5 229.88c2.4023 4.8477 7.0234 8.2109 12.375 9l253.88 37.5c22.719 3.25 43.383 14.918 57.902 32.691 14.52 17.773 21.828 40.352 20.48 63.262-1.3477 22.91-11.254 44.473-27.758 60.422l-183.75 178.88c-3.8867 3.8047-5.7031 9.25-4.875 14.625l45.75 252.75c4.0234 22.648-0.63281 45.98-13.039 65.352-12.402 19.367-31.648 33.355-53.902 39.176-22.254 5.8164-45.883 3.043-66.184-7.7773l-226.88-119.25c-4.8281-2.4688-10.547-2.4688-15.375 0l-226.88 117.75c-13.148 7.0586-27.828 10.789-42.75 10.875zm277.5-962.25c-3.1406-0.070312-6.2344 0.78125-8.8984 2.4453-2.668 1.668-4.7852 4.0742-6.1016 6.9297l-112.5 229.88c-13.301 27.109-39.117 45.91-69 50.25l-253.5 36.75c-4.2109 0.47266-8.0742 2.5469-10.801 5.7891-2.7227 3.2461-4.0938 7.4141-3.8281 11.641 0.26562 4.2266 2.1484 8.1914 5.2539 11.07l183.75 178.88c21.488 21.07 31.293 51.332 26.25 81l-44.25 252.75c-0.77734 4.1016 0.023438 8.3438 2.25 11.875 2.2266 3.5352 5.707 6.0898 9.7422 7.1562 4.0391 1.0664 8.3281 0.56641 12.008-1.4062l226.88-119.25c26.648-14.004 58.477-14.004 85.125 0l226.88 119.25c3.6797 1.9727 7.9688 2.4727 12.008 1.4062 4.0352-1.0664 7.5156-3.6211 9.7422-7.1562 2.2266-3.5312 3.0273-7.7734 2.25-11.875l-43.5-252.75c-5.043-29.668 4.7617-59.93 26.25-81l183.75-178.88c3.1055-2.8789 4.9883-6.8438 5.2539-11.07 0.26562-4.2266-1.1055-8.3945-3.8281-11.641-2.7266-3.2422-6.5898-5.3164-10.801-5.7891l-253.88-37.5c-29.883-4.3398-55.699-23.141-69-50.25l-112.5-229.88c-1.4219-2.7148-3.5898-4.9688-6.2461-6.4961s-5.6914-2.2656-8.7539-2.1289z"/>
</svg>
