<?xml version="1.0" encoding="UTF-8"?>
<svg width="1200pt" height="1200pt" version="1.1" viewBox="0 0 1200 1200" xmlns="http://www.w3.org/2000/svg">
 <path d="m1097.1 1037.1h-227.16c22.395-14.133 38.965-35.844 38.965-60.746 0-43.863-51.363-77.887-95.543-77.887-10.055 0-34.27 3.6953-63.129 10.168-18.738-24.082-32.301-53.711-40.207-88.297-12.766-55.824-2.1016-113.71 29.262-158.81 16.098-23.152 31.324-37.699 31.715-38.078 92.602-94.863 66.336-189.24 65.191-193.16-34.453-120.87-182.9-203.75-225.32-225.28 24.324-24.824 36.734-50.219 36.734-75.633 0-28.395-15.359-56.762-45.66-84.324-3.2656-2.9805-8.2695-2.9805-11.535 0-30.293 27.562-45.652 55.934-45.652 84.324 0 25.559 12.57 51.102 37.168 76.059-38.203 21.855-170.17 104.39-213.89 224.21-1.4883 3.9688-35.383 98.402 50.156 193.81 0.71094 0.71875 70.473 72.707 76.734 139.63 0.089844 0.79688 8.3633 79.137-43.379 145.8-29.355-6.6289-54.059-10.414-64.242-10.414-44.188 0-95.551 34.027-95.551 77.887 0 24.902 16.57 46.609 38.969 60.746h-227.91c-33.082 0-60 26.918-60 60s26.918 60 60 60h994.29c33.082 0 60-26.918 60-60 0.003906-33.082-26.918-60-59.996-60zm-205.34-60.746c0 32.711-43.109 60.746-78.398 60.746-55.68 0-204.46-24.066-204.46-49.496 0-18.992 76.121-46.309 138.24-61.238 0.96094-0.0625 1.8789-0.26953 2.7891-0.66016 26.223-6.1875 49.691-10.098 63.426-10.098 35.289 0 78.398 28.035 78.398 60.746zm-291.43 28.754c14.457 14.035 45.492 24.441 79.586 31.988l-159.16 0.003906c34.09-7.5469 65.125-17.957 79.578-31.992zm-4.1406-436.54c-37.809 0-68.57-46.684-68.57-104.07 0-57.387 30.762-104.07 68.57-104.07s68.57 46.684 68.57 104.07c0 57.391-30.762 104.07-68.57 104.07zm85.715-104.07c0-66.84-38.453-121.21-85.715-121.21s-85.715 54.375-85.715 121.21c0 52.113 23.422 96.52 56.125 113.61-18.48 3.8984-44.645 4.9648-70.746-9.2227-50.172-27.246-70.648-96.195-46.633-156.96 21.344-53.98 52.09-117.77 146.81-193.51 88.879 75.117 144.3 141.75 160.43 192.93 19.195 60.879-7.0312 130.04-59.707 157.46-27.531 14.336-53.422 13.406-71.445 9.5352 32.945-16.91 56.594-61.492 56.594-113.86zm-119.99-335.12c0-21.605 11.52-43.852 34.277-66.203 22.758 22.348 34.285 44.598 34.285 66.203 0 21.598-11.527 43.844-34.285 66.195-22.762-22.352-34.277-44.602-34.277-66.195zm-49.93 631.91c-6.8125-72.816-78.492-146.71-81.277-149.55-78.113-87.137-47.922-172.52-46.582-176.16 24.48-67.086 79.797-122.91 128.33-161.63-48.98 55.66-67.652 102.55-79.168 131.68-27.152 68.68-3.2656 147.01 54.383 178.32 47.914 26.008 94.527 8.9883 108.47 2.7461 8.1289 3.7656 27.43 11.258 52.199 11.258 16.84 0 36.219-3.4648 56.332-13.938 59.824-31.137 89.758-109.25 68.145-177.82-13.359-42.371-51.273-93.977-110.7-151.32 58.172 38.086 135.14 101.35 157.61 180.14 1.0312 3.5977 24.316 89.062-60.746 176.21-0.66797 0.63672-16.59 15.812-33.766 40.496-34.109 49.059-45.738 111.91-31.891 172.43 7.8008 34.141 20.781 63.945 38.641 88.812-51.141 12.766-109.99 32.941-131.63 56.379-21.488-23.281-79.695-43.34-130.59-56.121 51.055-70.742 42.629-148.7 42.246-151.94zm-203.08 215.07c0-32.711 43.117-60.746 78.406-60.746 13.855 0 37.621 3.9805 64.129 10.266 1.1953 0.58984 2.4531 0.99609 3.7422 0.99609 0.082032 0 0.15625-0.050781 0.23828-0.050781 61.758 15.027 136.34 41.988 136.34 60.789-0.003906 25.426-148.77 49.492-204.45 49.492-35.289 0-78.406-28.035-78.406-60.746zm788.2 163.6h-994.29c-23.629 0-42.855-19.227-42.855-42.855 0-23.629 19.227-42.855 42.855-42.855h994.29c23.629 0 42.855 19.227 42.855 42.855 0.003906 23.629-19.223 42.855-42.852 42.855z"/>
</svg>
