<svg xmlns="http://www.w3.org/2000/svg" xmlns:xlink="http://www.w3.org/1999/xlink" fill="#000000" version="1.1" x="0px" y="0px" style="enable-background:new -180 272 250 250;" xml:space="preserve" viewBox="-102.47 351.4 94.96 91.2"><path d="M-19.4,412.7c-7.8-6.4-19.8-6.4-27.5,0l-10.9,9.1l-10.9,9.1c-4.3,3.6-11.7,3.6-16,0c-1.8-1.5-2.9-3.5-2.9-5.5  c0-2,1-4,2.9-5.5c4.3-3.6,11.7-3.6,16,0c1.9,1.6,4.8,1.3,6.4-0.6c1.6-2,1.3-4.9-0.6-6.5c-7.8-6.4-19.8-6.4-27.5,0  c-4,3.3-6.2,7.8-6.2,12.5s2.2,9.3,6.2,12.5c3.9,3.2,8.8,4.8,13.8,4.8c4.9,0,9.9-1.6,13.8-4.8l8.1-6.6l8.1,6.6  c3.9,3.2,8.8,4.8,13.8,4.8s9.9-1.6,13.8-4.8c4-3.3,6.2-7.8,6.2-12.5C-13.2,420.4-15.5,416-19.4,412.7z M-25.2,430.8  c-4.3,3.6-11.7,3.6-16,0l-6.6-5.5l6.6-5.5c4.3-3.6,11.7-3.6,16,0c1.8,1.5,2.9,3.5,2.9,5.5C-22.3,427.3-23.4,429.2-25.2,430.8z"/><path d="M-10,363.3c-2.2-1.1-4.9-0.2-6.1,2c-7.5,14.9-22.4,24.1-38.9,24.1s-31.4-9.3-38.9-24.1c-1.1-2.3-3.9-3.1-6.1-2  s-3.1,3.9-2,6.2c9.1,17.9,27.1,29.1,47,29.1s37.9-11.2,47-29.1C-6.9,367.2-7.7,364.4-10,363.3z"/><ellipse cx="-55" cy="364.9" rx="13.4" ry="13.5"/></svg>