<svg width="24" height="24" viewBox="0 0 24 24" fill="none" xmlns="http://www.w3.org/2000/svg">
<mask id="mask0_675_5385" style="mask-type:alpha" maskUnits="userSpaceOnUse" x="0" y="0" width="24" height="24">
<rect width="24" height="24" fill="#D9D9D9"/>
</mask>
<g mask="url(#mask0_675_5385)">
<path d="M5.30775 20.5C4.80258 20.5 4.375 20.325 4.025 19.975C3.675 19.625 3.5 19.1974 3.5 18.6923V5.30775C3.5 4.80258 3.675 4.375 4.025 4.025C4.375 3.675 4.80258 3.5 5.30775 3.5H9.75775C9.83725 2.9385 10.0853 2.46483 10.502 2.079C10.9187 1.693 11.418 1.5 12 1.5C12.582 1.5 13.0813 1.693 13.498 2.079C13.9147 2.46483 14.1628 2.9385 14.2423 3.5H18.6923C19.1974 3.5 19.625 3.675 19.975 4.025C20.325 4.375 20.5 4.80258 20.5 5.30775V18.6923C20.5 19.1974 20.325 19.625 19.975 19.975C19.625 20.325 19.1974 20.5 18.6923 20.5H5.30775ZM12 4.34625C12.2167 4.34625 12.3958 4.27542 12.5375 4.13375C12.6792 3.99208 12.75 3.81292 12.75 3.59625C12.75 3.37958 12.6792 3.20042 12.5375 3.05875C12.3958 2.91708 12.2167 2.84625 12 2.84625C11.7833 2.84625 11.6042 2.91708 11.4625 3.05875C11.3208 3.20042 11.25 3.37958 11.25 3.59625C11.25 3.81292 11.3208 3.99208 11.4625 4.13375C11.6042 4.27542 11.7833 4.34625 12 4.34625ZM12 13.0385C12.9025 13.0385 13.6698 12.7225 14.302 12.0905C14.934 11.4583 15.25 10.691 15.25 9.7885C15.25 8.886 14.934 8.11867 14.302 7.4865C13.6698 6.8545 12.9025 6.5385 12 6.5385C11.0975 6.5385 10.3302 6.8545 9.698 7.4865C9.066 8.11867 8.75 8.886 8.75 9.7885C8.75 10.691 9.066 11.4583 9.698 12.0905C10.3302 12.7225 11.0975 13.0385 12 13.0385ZM5.2115 19H18.7885C18.859 18.9308 18.9071 18.776 18.9327 18.5355C18.9584 18.2952 18.9808 18.1307 19 18.0422C18.1 17.1589 17.0542 16.4631 15.8625 15.9548C14.6708 15.4464 13.3833 15.1923 12 15.1923C10.6167 15.1923 9.32917 15.4464 8.1375 15.9548C6.94583 16.4631 5.9 17.1589 5 18.0422C5.01917 18.1307 5.04158 18.2952 5.06725 18.5355C5.09292 18.776 5.141 18.9308 5.2115 19Z" fill="white"/>
</g>
</svg>
