<svg xmlns="http://www.w3.org/2000/svg" width="23.655" height="21.624" viewBox="0 0 23.655 21.624">
  <g id="warning_2_" data-name="warning (2)" transform="translate(0 -20.882)">
    <g id="Group_38" data-name="Group 38" transform="translate(0 20.882)">
      <path id="Path_17" data-name="Path 17" d="M219.441,333.382a1.216,1.216,0,1,0,0,2.431,1.216,1.216,0,0,0,0-2.431Z" transform="translate(-207.613 -318.186)" fill="#147a9b"/>
      <path id="Path_18" data-name="Path 18" d="M23.079,40.386a4.151,4.151,0,0,0,.01-4.2L15.474,23a4.2,4.2,0,0,0-7.284,0L.565,36.194a4.211,4.211,0,0,0,3.647,6.312h15.21A4.188,4.188,0,0,0,23.079,40.386Zm-1.653-.953A2.3,2.3,0,0,1,19.417,40.6H4.207a2.266,2.266,0,0,1-1.984-1.138,2.3,2.3,0,0,1,0-2.319l7.625-13.2a2.29,2.29,0,0,1,3.978,0l7.62,13.2A2.27,2.27,0,0,1,21.426,39.433Z" transform="translate(0 -20.882)" fill="#147a9b"/>
      <path id="Path_19" data-name="Path 19" d="M218.663,157.211a1.322,1.322,0,0,0-.938,1.327c.029.384.053.773.083,1.157.083,1.464.165,2.9.248,4.362a.891.891,0,0,0,.909.856.909.909,0,0,0,.909-.885c0-.3,0-.579.029-.885.053-.939.112-1.877.165-2.815.029-.608.083-1.216.112-1.823a1.5,1.5,0,0,0-.112-.608A1.219,1.219,0,0,0,218.663,157.211Z" transform="translate(-207.138 -150.549)" fill="#147a9b"/>
    </g>
  </g>
</svg>
