<svg xmlns="http://www.w3.org/2000/svg" fill="#000000" x="0px" y="0px" viewBox="9.97 7.41 44.05 49.19"><title>brain, neuroscience, brain, neurology</title><g data-name="Brain"><path d="M52.685,34.816a5.513,5.513,0,0,0,.341-.662c1.3-3.073-.4-6.591-1.019-7.7.221-1.407.658-6.087-2.847-7.882a9.723,9.723,0,0,0-2.211-.818c.641-3.475-.968-5.919-2.883-6.77a4.446,4.446,0,0,0-1.376-.353c-.015-.014-.022-.033-.039-.047-3.5-2.806-7.114-3.856-9.45-2.737A3.661,3.661,0,0,0,32,8.77a3.661,3.661,0,0,0-1.2-.924c-2.334-1.117-5.955-.071-9.45,2.737-.017.014-.024.033-.039.047a4.4,4.4,0,0,0-1.376.353c-1.915.851-3.524,3.3-2.883,6.77a9.723,9.723,0,0,0-2.211.818c-3.5,1.795-3.068,6.475-2.847,7.882-.619,1.11-2.324,4.628-1.019,7.7a5.513,5.513,0,0,0,.341.662A5.593,5.593,0,0,0,10.288,40.3a7.47,7.47,0,0,0,3.033,4.163,7.514,7.514,0,0,0,1.828,5.984,6.353,6.353,0,0,0,3.692,2.213,6.473,6.473,0,0,0,6.127,3.929,8.957,8.957,0,0,0,1.14-.075A7.8,7.8,0,0,0,32,53.189a7.8,7.8,0,0,0,5.892,3.329,8.969,8.969,0,0,0,1.14.075,6.474,6.474,0,0,0,6.127-3.929,6.353,6.353,0,0,0,3.692-2.213,7.514,7.514,0,0,0,1.828-5.984A7.47,7.47,0,0,0,53.712,40.3,5.593,5.593,0,0,0,52.685,34.816ZM25.854,54.535c-4.182.527-5.231-2.738-5.334-3.107a1,1,0,0,0-1.077-.736,3.853,3.853,0,0,1-2.785-1.554,5.572,5.572,0,0,1-1.228-5.053,1,1,0,0,0-.84-1.238c-.519-.068-1.851-1.334-2.386-3.118a3.764,3.764,0,0,1,.448-3.365A10.013,10.013,0,0,0,17.1,38.306a1,1,0,0,0,.4-1.959c-2.484-.51-4.06-1.509-4.683-2.969-1.132-2.654,1.048-6.168,1.071-6.2a1.015,1.015,0,0,0,.132-.743c-.01-.047-.961-4.7,1.732-6.081,2.1-1.077,4.185-1.091,5.711-.036A4.817,4.817,0,0,1,23.4,24.861a1,1,0,0,0,1.989.221,6.815,6.815,0,0,0-2.79-6.413,6.47,6.47,0,0,0-3.541-1.131c-.507-2.489.467-4.185,1.686-4.727,1.462-.649,3.144.183,4.389,2.172a1,1,0,0,0,1.7-1.062,7.334,7.334,0,0,0-2.859-2.767c2.636-1.726,4.835-2.045,5.965-1.505A2.131,2.131,0,0,1,31,11.781v9.538c-.094-.075-.185-.156-.284-.223a3.572,3.572,0,0,0-3.424-.391,1,1,0,1,0,.748,1.854,1.591,1.591,0,0,1,1.557.2A3.709,3.709,0,0,1,31,25.806v17c-.161-.146-.327-.288-.5-.421a4.759,4.759,0,0,0-4.05-1.014,1,1,0,0,0,.559,1.921,2.9,2.9,0,0,1,2.291.692A3.988,3.988,0,0,1,31,47.011v3.173C31,50.221,30.86,53.9,25.854,54.535ZM51.8,39.729c-.535,1.784-1.867,3.05-2.386,3.118a1,1,0,0,0-.84,1.238,5.572,5.572,0,0,1-1.228,5.053,3.855,3.855,0,0,1-2.785,1.554,1,1,0,0,0-1.076.73c-.1.375-1.155,3.647-5.335,3.113C33.14,53.9,33,50.221,33,50.184V21.214a1.675,1.675,0,0,1,.481-1.321,3.091,3.091,0,0,1,2.087-.523,1,1,0,0,0,.225-1.988A5.639,5.639,0,0,0,33,17.85V11.781a2.131,2.131,0,0,1,1.065-2.132c1.13-.54,3.329-.221,5.965,1.505a7.34,7.34,0,0,0-2.859,2.767,1,1,0,0,0,1.7,1.062c1.246-1.989,2.927-2.821,4.389-2.172,1.219.542,2.193,2.238,1.686,4.727A6.47,6.47,0,0,0,41.4,18.669a6.815,6.815,0,0,0-2.79,6.413,1,1,0,0,0,1.989-.221,4.817,4.817,0,0,1,1.938-4.546c1.526-1.055,3.609-1.041,5.711.036,2.693,1.379,1.742,6.034,1.732,6.081a1.015,1.015,0,0,0,.132.743c.023.035,2.2,3.549,1.071,6.2-.623,1.46-2.2,2.459-4.683,2.969a1,1,0,1,0,.4,1.959,10.013,10.013,0,0,0,4.446-1.942A3.764,3.764,0,0,1,51.8,39.729ZM36.067,29.266A1,1,0,0,1,37.3,27.689c2.03,1.585,3.819,2.079,5.32,1.47,1.91-.776,3.056-3.234,3.342-5.326a1,1,0,0,1,1.982.272c-.338,2.467-1.739,5.756-4.572,6.907a5.4,5.4,0,0,1-1.092.307,2.487,2.487,0,0,0,.567,1.124,3.277,3.277,0,0,0,2.455.878,1,1,0,0,1-.019,2h-.018a5.155,5.155,0,0,1-3.917-1.553,4.627,4.627,0,0,1-1.1-2.461A9.628,9.628,0,0,1,36.067,29.266ZM45.446,43.6a1,1,0,0,1-1,.986h-.01a6.827,6.827,0,0,0-2.015.327c-.017.007-.035.011-.053.017a5.226,5.226,0,0,0-2.114,1.215,4.556,4.556,0,0,0-1.235,3.369,1,1,0,0,1-2,0,6.476,6.476,0,0,1,1.838-4.8,6.88,6.88,0,0,1,2.26-1.454,6.15,6.15,0,0,0-1.084-3.951A5.312,5.312,0,0,0,36.1,37.489a1,1,0,0,1-.913-1.08.988.988,0,0,1,1.079-.913,7.2,7.2,0,0,1,5.353,2.594,7.821,7.821,0,0,1,1.5,4.619,8.84,8.84,0,0,1,1.338-.121A1,1,0,0,1,45.446,43.6ZM17.15,25.2a1,1,0,0,1,1.981-.273c.288,2.093,1.433,4.551,3.345,5.326,1.5.61,3.289.115,5.318-1.469a1,1,0,0,1,1.23,1.576A9.62,9.62,0,0,1,24.847,32.4a4.611,4.611,0,0,1-1.1,2.461,5.159,5.159,0,0,1-3.917,1.554h-.018a1,1,0,0,1-.019-2,3.267,3.267,0,0,0,2.468-.892,2.5,2.5,0,0,0,.557-1.11,5.4,5.4,0,0,1-1.094-.307C18.89,30.955,17.489,27.665,17.15,25.2Zm6.9,20.609a6.474,6.474,0,0,1,1.839,4.8,1,1,0,0,1-2,0,4.554,4.554,0,0,0-1.236-3.369,6.608,6.608,0,0,0-4.181-1.559h-.009a1,1,0,0,1-.016-2,7.988,7.988,0,0,1,1.339.119,7.825,7.825,0,0,1,1.5-4.616,7.209,7.209,0,0,1,5.354-2.6,1,1,0,0,1,.166,1.994A5.312,5.312,0,0,0,22.874,40.4a6.159,6.159,0,0,0-1.083,3.951A6.912,6.912,0,0,1,24.051,45.807Z"/></g></svg>