<svg xmlns="http://www.w3.org/2000/svg" xmlns:xlink="http://www.w3.org/1999/xlink" fill="#000000" version="1.1" x="0px" y="0px" style="enable-background:new 0 0 68 68;" xml:space="preserve" viewBox="2 2.8 64 62.41"><g><path d="M39.581543,3.1811404c-0.9619141-0.6328125-2.1645508-0.4741211-2.9238281,0.3886719   c-6.9257813,7.8701177-8.3652344,21.4052734-8.6069336,28.7729492c-0.0195313,0.590332-0.3598633,1.0288086-0.6416016,1.2924805   c-1.8457031,1.7265625-2.6835938,4.2651367-2.2412109,6.7910156c0.5948105,3.3981209,3.5681057,6.1157227,7.3310547,6.1157227   c4.1572418,0,7.4755859-3.3521194,7.4755859-7.4604492c0-2.4384766-1.1928711-4.7255859-3.1914063-6.1176758   c-0.4121094-0.2875977-0.684082-0.6694336-0.7651367-1.074707c-2.0385742-10.2021484,1.8554688-20.5986328,4.3583984-25.8876953   C40.8647461,4.9692264,40.5375977,3.8100467,39.581543,3.1811404z M38.5688477,5.1459842   c-3.1865234,6.7333989-6.5556641,16.9072266-4.5117188,27.1352539c0.1826172,0.9145508,0.7446289,1.7392578,1.5825195,2.3237305   c1.4619141,1.0185547,2.3349609,2.6918945,2.3349609,4.4765625c0,3.398922-3.0808983,6.0313721-6.5698242,5.3544922   c-2.1699219-0.421875-3.8847656-2.171875-4.2670898-4.3544922c-0.3251953-1.8583984,0.2871094-3.7216797,1.6376953-4.9853516   c0.7890625-0.7382813,1.2416992-1.6923828,1.2744141-2.6875c0.2329102-7.1005859,1.5957031-20.1162109,8.1088867-27.5175781   c0.0263672-0.0292969,0.081543-0.0922852,0.171875-0.0922852c0.0424805,0,0.0932617,0.0141602,0.1518555,0.0532227   C38.6542969,4.9648318,38.5966797,5.0873904,38.5688477,5.1459842z"/><path d="M61.125,27.8447151H41.4194336c-0.7202148,0-1.3574219,0.4321289-1.6225586,1.1010742   c-0.2646484,0.6669922-0.0976563,1.4165039,0.4257813,1.9091797c2.3566666,2.216156,3.5595703,5.2443466,3.5595703,8.2294922   c0,6.2167969-5.0576172,11.2739258-11.2739258,11.2739258c-7.2870235,0-12.6978989-6.7960701-10.9311523-13.9697266   c0.6967621-2.8558617,2.5163803-4.3209648,2.7250977-5.7680664c0.1484375-0.9887695-0.1875-1.6220703-0.4951172-1.9794922   c-0.4423828-0.5136719-1.1152344-0.7963867-1.8945313-0.7963867H6.875c-2.6879883,0-4.875,2.1870117-4.875,4.875   c0,4.600956,0,16.8248482,0,27.609375c0,2.6879883,2.1870117,4.8749962,4.875,4.8749962h54.25   c2.6879883,0,4.875-2.1870079,4.875-4.8749962c0-10.7805862,0-23.0070534,0-27.609375   C66,30.0317268,63.8129883,27.8447151,61.125,27.8447151z M61.125,29.8447151c1.5854492,0,2.875,1.2895508,2.875,2.875v1.90625   H44.9821777c-0.6269531-1.7749023-1.6137695-3.4130859-2.9362793-4.78125H61.125z M6.875,29.8447151h15.0375977   c0.2016602,0,0.3354492,0.0512695,0.3789063,0.1015625c0.03125,0.0361328,0.0581055,0.1367188,0.0454102,0.2861328   c-0.0058594,0.0229492-0.0112305,0.0458984-0.0151367,0.0688477c-0.0691109,0.3765869-0.1224422,0.380846-0.4423828,0.8959961   c-0.6879883,1.0751953-1.3808594,2.1894531-1.8525391,3.4287109H4v-1.90625C4,31.1342659,5.2895508,29.8447151,6.875,29.8447151z    M64,60.3290901c0,1.5854492-1.2895508,2.875-2.875,2.875H6.875c-1.5854492,0-2.875-1.2895508-2.875-2.875v-23.703125h15.4614258   c-0.0078125,0.0415039-0.0102539,0.0834961-0.0175781,0.125c-0.251688,1.4050255-0.2738552,3.1298599-0.0014648,4.675293   c1.0647659,6.1108322,6.4261913,10.9321289,13.065918,10.9321289c7.3193359,0,13.2739258-5.9545898,13.2739258-13.2739258   c0-0.7830582-0.1101837-1.8216438-0.2319336-2.4584961H64V60.3290901z"/><path d="M11.1289063,39.9785042c-2.0522461,0-3.722168,1.6694336-3.722168,3.722168s1.6699219,3.722168,3.722168,3.722168   s3.722168-1.6694336,3.722168-3.722168S13.1811523,39.9785042,11.1289063,39.9785042z M11.1289063,45.4228401   c-0.949707,0-1.722168-0.7724609-1.722168-1.722168s0.7724609-1.722168,1.722168-1.722168s1.722168,0.7724609,1.722168,1.722168   S12.0786133,45.4228401,11.1289063,45.4228401z"/><path d="M17.6074219,47.2338753c-2.0522461,0-3.722168,1.6694336-3.722168,3.7216797   c0,2.0527344,1.6699219,3.7226563,3.722168,3.7226563s3.722168-1.6699219,3.722168-3.7226563   C21.3295898,48.9033089,19.659668,47.2338753,17.6074219,47.2338753z M17.6074219,52.6782112   c-0.949707,0-1.722168-0.7724609-1.722168-1.7226563c0-0.9492188,0.7724609-1.7216797,1.722168-1.7216797   s1.722168,0.7724609,1.722168,1.7216797C19.3295898,51.9057503,18.5571289,52.6782112,17.6074219,52.6782112z"/><path d="M9.7446289,53.0795784c-2.0522461,0-3.722168,1.6699219-3.722168,3.7226563   c0,2.0522461,1.6699219,3.722168,3.722168,3.722168s3.722168-1.6699219,3.722168-3.722168   C13.4667969,54.7495003,11.796875,53.0795784,9.7446289,53.0795784z M9.7446289,58.5244026   c-0.949707,0-1.722168-0.7729492-1.722168-1.722168c0-0.9501953,0.7724609-1.7226563,1.722168-1.7226563   s1.722168,0.7724609,1.722168,1.7226563C11.4667969,57.7514534,10.6943359,58.5244026,9.7446289,58.5244026z"/><path d="M55.6469727,47.0864143c2.0522461,0,3.722168-1.6699219,3.722168-3.722168s-1.6699219-3.722168-3.722168-3.722168   s-3.722168,1.6699219-3.722168,3.722168S53.5947266,47.0864143,55.6469727,47.0864143z M55.6469727,41.6420784   c0.949707,0,1.722168,0.7724609,1.722168,1.722168s-0.7724609,1.722168-1.722168,1.722168s-1.722168-0.7724609-1.722168-1.722168   S54.6972656,41.6420784,55.6469727,41.6420784z"/><path d="M49.168457,54.3412971c2.0522461,0,3.722168-1.6694336,3.722168-3.7216797   c0-2.0527344-1.6699219-3.7226563-3.722168-3.7226563s-3.722168,1.6699219-3.722168,3.7226563   C45.4462891,52.6718636,47.1162109,54.3412971,49.168457,54.3412971z M49.168457,48.8969612   c0.949707,0,1.722168,0.7724609,1.722168,1.7226563c0,0.9492188-0.7724609,1.7216797-1.722168,1.7216797   s-1.722168-0.7724609-1.722168-1.7216797C47.4462891,49.6694221,48.21875,48.8969612,49.168457,48.8969612z"/><path d="M53.3085938,56.4658089c0,2.0522461,1.6699219,3.722168,3.7226563,3.722168   c2.0522461,0,3.722168-1.6699219,3.722168-3.722168s-1.6699219-3.722168-3.722168-3.722168   C54.9785156,52.7436409,53.3085938,54.4135628,53.3085938,56.4658089z M58.753418,56.4658089   c0,0.949707-0.7724609,1.722168-1.722168,1.722168s-1.7226563-0.7724609-1.7226563-1.722168s0.7729492-1.722168,1.7226563-1.722168   S58.753418,55.5161018,58.753418,56.4658089z"/><path d="M27.0444336,53.729969c-2.0522461,0-3.722168,1.6699219-3.722168,3.7226563   c0,2.0522461,1.6699219,3.722168,3.722168,3.722168s3.722168-1.6699219,3.722168-3.722168   C30.7666016,55.3998909,29.0966797,53.729969,27.0444336,53.729969z M27.0444336,59.1747932   c-0.949707,0-1.722168-0.7729492-1.722168-1.722168c0-0.9501953,0.7724609-1.7226563,1.722168-1.7226563   s1.722168,0.7724609,1.722168,1.7226563C28.7666016,58.401844,27.9941406,59.1747932,27.0444336,59.1747932z"/><path d="M38.6064453,53.4819221c-2.0522461,0-3.722168,1.6694336-3.722168,3.7216797   c0,2.0527344,1.6699219,3.7226563,3.722168,3.7226563s3.722168-1.6699219,3.722168-3.7226563   C42.3286133,55.1513557,40.6586914,53.4819221,38.6064453,53.4819221z M38.6064453,58.9262581   c-0.949707,0-1.722168-0.7724609-1.722168-1.7226563c0-0.9492188,0.7724609-1.7216797,1.722168-1.7216797   s1.722168,0.7724609,1.722168,1.7216797C40.3286133,58.1537971,39.5561523,58.9262581,38.6064453,58.9262581z"/></g></svg>