<svg xmlns="http://www.w3.org/2000/svg" width="18.944" height="24.299" viewBox="0 0 18.944 24.299">
  <g id="doctor" transform="translate(-5.291)">
    <path id="Path_38" data-name="Path 38" d="M18.854,0A5.278,5.278,0,1,0,24.13,5.277,5.282,5.282,0,0,0,18.854,0Z" transform="translate(-4.092)" fill="#64c3b9"/>
    <path id="Path_39" data-name="Path 39" d="M18.839,23.117a11.613,11.613,0,0,1,.386,3.146c.776.688,2.812,2.716,2.369,4.717a2.343,2.343,0,0,1-1.64,1.663.506.506,0,0,1-.327-.958,1.367,1.367,0,0,0,.975-.9c.3-1.372-1.216-3.038-2.06-3.779-1.01.491-2.921,1.694-2.995,3.072a1.358,1.358,0,0,0,.7,1.15.507.507,0,1,1-.57.838A2.34,2.34,0,0,1,14.536,30c.115-2.139,2.91-3.6,3.69-3.963a13.8,13.8,0,0,0-.5-3.214.565.565,0,0,1-.005-.083,8.773,8.773,0,0,0-2.309-.317h-1.3a8.789,8.789,0,0,0-2.576.386.462.462,0,0,1-.028.108,22.021,22.021,0,0,0-1.631,5.777,2.074,2.074,0,1,1-1.02-.023,24.689,24.689,0,0,1,1.373-5.336,8.826,8.826,0,0,0-4.939,7.911v3.618a.506.506,0,0,0,.506.506H23.729a.512.512,0,0,0,.506-.513V31.247A8.839,8.839,0,0,0,18.839,23.117Z" transform="translate(0 -11.072)" fill="#64c3b9"/>
  </g>
</svg>
