<svg xmlns="http://www.w3.org/2000/svg" xmlns:xlink="http://www.w3.org/1999/xlink" fill="#000000" version="1.1" x="0px" y="0px" viewBox="0 0 80 92"><path d="M4.13958982,29.6587548 C2.4550688,35.9229651 3.01364748,42.9626674 5.80068422,50.5801295 C6.73482104,53.1337398 7.98887776,55.5690048 9.20413412,57.819769 C9.34615806,58.0836568 9.62288511,58.4872066 9.91645005,58.9135433 C10.771522,60.1602109 11.6558772,61.4495121 11.7503158,62.6741277 C11.75178,62.699855 12.7005585,74.9959957 13.2020347,81.5020419 L23.0236488,83.2750148 C22.7740088,71.6389611 27.7916999,63.6980711 30.9286719,59.8919127 C33.6542137,56.277606 37.0225237,53.1521164 40.6324208,50.6007113 C37.6689522,51.0468948 34.7896731,51.200523 32.5033806,51.200523 C30.6944056,51.200523 29.2565963,51.1056998 28.4381284,50.9866196 C24.4197295,50.400774 19.9657417,47.97727 20.6407214,43.0758672 C20.7263751,42.4495931 21.3076483,42.0122304 21.9247935,42.0997029 C22.5485275,42.1864404 22.9833843,42.7634652 22.8969986,43.3890042 C22.8230583,43.9292758 22.8501454,44.4122124 22.9460481,44.8503102 C23.3852974,44.790035 25.5332264,44.3644333 25.6613408,41.7939166 C25.8128818,38.7434034 22.0873158,36.4022265 20.5353016,36.2728553 C19.5623644,36.1912633 17.1399046,36.164801 15.6391362,37.6709459 C14.7035352,38.611092 14.3060146,40.0172683 14.4582877,41.8512515 C14.9224278,47.4531697 18.6033368,53.0492075 25.7835985,53.0492075 C25.8619313,53.0492075 25.9409962,53.0484724 26.0200611,53.0470023 C26.6562405,53.0359763 27.1672338,53.5402298 27.178215,54.1709142 C27.1884642,54.8030688 26.6869879,55.3227586 26.0581293,55.3337845 C25.9644228,55.3352547 25.8714484,55.3359897 25.7777419,55.3359897 C21.7373805,55.3359897 18.3046473,53.8467513 15.8353342,51.0196974 C13.7672022,48.650588 12.4714168,45.461883 12.188101,42.0408979 C11.9779934,39.5056642 12.5973349,37.4915904 14.0292876,36.0538064 C15.5600713,34.5167888 17.998637,33.7670242 20.7241788,33.9934237 C23.3252667,34.2110024 28.1577409,37.462923 27.9359201,41.9078514 C27.7851111,44.9414581 25.8092214,46.366011 24.210354,46.8937865 C25.6488954,48.1433943 27.837821,48.5881077 28.7653691,48.7233593 C31.9426057,49.1857142 42.1837028,49.0592833 48.6875206,45.9970091 C48.7504797,45.9676066 48.8134388,45.9462898 48.8785941,45.9293833 C54.1473893,43.6227543 59.3166213,42.5885201 63.2888991,43.0986541 C69.8322493,43.9366264 72.9692213,47.8765663 74.3997099,50.6940643 L75.9414749,49.9104867 L67.2970488,38.9837692 C66.9602911,38.5566973 66.8636562,37.9833479 67.0378918,37.4680684 C67.2926564,36.7175687 73.0255917,18.9650523 51.551426,7.36869197 C44.377753,3.49564287 36.4075747,2.26735192 29.1079836,3.91389395 C23.5858879,5.15909137 18.3800518,8.09493462 14.0549104,12.4038763 C9.34103349,17.0987263 5.91269279,23.065236 4.13958982,29.6587548 Z M54.4760942,50.0163359 C54.5207512,50.0163359 54.5676045,50.0163359 54.6122615,50.0170709 C60.3818009,50.0464735 66.7560401,52.8404495 70.0291794,54.4950772 C70.0489456,54.1591532 70.0482136,54.018021 70.0474815,53.9849432 C70.0101453,53.3505835 70.3505635,52.7515068 70.9193913,52.4618918 L72.3762348,51.722418 C71.1097327,49.1923298 68.4603274,46.0661051 63.0004587,45.3677949 C59.3869012,44.9032348 54.6920584,45.8345601 49.8793504,47.9243454 C49.8105347,47.9787401 49.7373264,48.0279893 49.6546012,48.0669477 C49.2395106,48.2624746 48.8112425,48.4425651 48.3756536,48.615305 C45.8609515,49.8274246 43.344053,51.3475357 40.9545369,53.1440307 C44.9290109,51.3431253 49.6143366,50.0163359 54.4760942,50.0163359 Z M2.80793239,51.6841947 C-0.211174386,43.4323729 -0.799036351,35.7406694 1.06118439,28.8244578 C2.98070378,21.6869921 6.69675277,15.2228445 11.8096145,10.1310603 C16.5608276,5.39725191 22.3018158,2.16738329 28.4095772,0.789874467 C36.45516,-1.02499709 45.2108625,0.309878061 53.0617115,4.5497238 C74.1742286,15.9505573 71.3125194,33.5141623 70.2978536,37.6297824 L79.6538634,49.4562175 C79.9525529,49.8333051 80.0660257,50.3243274 79.9628021,50.7940329 C79.8610427,51.2644735 79.5535682,51.6628779 79.1260322,51.8797216 L73.1998272,54.8920114 C73.162491,55.4425739 73.0987999,56.1526452 73.0094859,56.9979681 C73.0226633,57.3184558 72.939938,57.6448239 72.7539892,57.9329688 C72.2876529,58.6511257 71.3425348,58.874585 70.6067922,58.4386924 C70.5196745,58.3872379 61.772757,53.2550252 54.5961557,53.2182721 C54.5566232,53.2182721 54.5178229,53.2182721 54.4797546,53.2182721 C45.6684139,53.2182721 36.8534127,58.3122615 33.3518638,61.9721422 C30.3378816,65.6437839 25.4548937,73.4920559 26.3011806,85.0891513 C26.3363206,85.5823789 26.143783,86.0645805 25.778474,86.3960941 C25.4827128,86.662187 25.1020301,86.8069945 24.7110982,86.8069945 C24.6173917,86.8069945 24.5229531,86.7981737 24.4292466,86.7812673 L11.4252714,84.4342098 C10.7114913,84.3055737 10.174143,83.7087022 10.1177726,82.9824596 C10.1177726,82.9824596 8.5818643,63.0637113 8.57307931,62.9365454 C8.51231649,62.5109437 7.68725991,61.3083799 7.29047139,60.729885 C6.94785694,60.230777 6.62500872,59.7596013 6.40099158,59.3457606 C5.1286328,56.9891473 3.8123491,54.4296566 2.80793239,51.6841947 Z M51.8986526,88.4897017 L52.0662994,76.5941705 C52.0714239,76.1604831 52.2529803,75.7481125 52.5670436,75.4511469 C52.8818389,75.1534462 53.3086428,74.9976128 53.7347146,75.0174595 C59.1543187,75.2717914 65.6683857,75.0314257 66.8587513,74.2897467 C67.0403076,73.9846954 67.6647737,72.5616127 68.541076,66.700217 C66.0117322,64.2576013 56.5246797,61.215909 50.7609969,62.3589326 C45.1466589,63.4740237 40.0879713,68.1556426 38.4598206,73.7443297 C36.7577296,79.5822033 37.1486614,84.0528589 37.4371018,85.8780214 L51.8986526,88.4897017 Z M35.3989851,72.8453471 C37.3477878,66.1592104 43.4108921,60.555822 50.1431196,59.2187417 C56.9690535,57.8618146 68.273134,61.3871787 71.240995,64.9176883 C71.6582818,65.2609629 71.8947444,65.8049098 71.8127512,66.3804645 C70.6319027,74.5984734 69.7585287,75.9862731 69.0323032,76.6419496 C67.1135159,78.3759642 59.6675083,78.420068 55.2310905,78.280406 L55.0605154,90.4214483 C55.0539266,90.8918889 54.8423549,91.3351321 54.4807063,91.6343029 C54.192998,91.8724635 53.8335457,91.9996294 53.4667725,91.9996294 C53.3723339,91.9996294 53.2778953,91.9915437 53.1849209,91.9746373 L35.8148078,88.8381217 C35.2664782,88.7388881 34.8352818,88.3676811 34.6324951,87.8891548 C34.5936947,87.8075628 34.5622152,87.7222955 34.5380565,87.6326177 C34.4692408,87.3841663 32.8923358,81.445589 35.3989851,72.8453471 Z" fill="#000000"/></svg>