<svg xmlns="http://www.w3.org/2000/svg" fill="#000000" data-name="Layer 1" x="0px" y="0px" viewBox="10 0 108 128"><title>medicine and healthcare 03 final</title><path d="M116.01758,21.355c.16991-.28516.3291-.57568.47559-.86816l.15039-.3125c.12988-.27393.252-.5498.36133-.82715.0459-.11719.08887-.23633.165-.44971.08984-.252.17676-.50342.251-.75537.04883-.16357.08984-.3291.12988-.49512l.05371-.21533c.04688-.19043.09375-.38037.12988-.56787.0459-.23584.08008-.47559.124-.80176l.02051-.13672c.01953-.12891.03809-.2583.05176-.395.0459-.46924.06934-.93359.06934-1.37988A14.15515,14.15515,0,0,0,103.87207,0c-.44824,0-.89941.02295-1.37988.06982-.13281.0127-.26367.03223-.39453.05225l-.249.03564c-.22949.03125-.459.064-.68457.10791-.19141.0376-.37793.0835-.56445.13037L100.375.45166c-.16309.04-.32617.08008-.48047.126-.25781.07568-.50977.16406-.77344.25781l-.0957.03467c-.11426.04053-.22754.08154-.34375.12744-.27832.11084-.55078.23193-.82227.35986l-.31348.15186c-.29492.14844-.584.30762-.86328.47363l-.20215.123q-.2959.18237-.58105.37744a14.05058,14.05058,0,0,0-15.9502-.00146A14.05243,14.05243,0,0,0,64,2.48193a14.05243,14.05243,0,0,0-15.94922,0,14.05172,14.05172,0,0,0-15.9502.001c-.18848-.12891-.37793-.252-.56348-.36621l-.21582-.13135c-.2832-.16846-.57227-.32764-.8623-.47363-.1084-.0542-.2168-.106-.31738-.15283-.27148-.12939-.54687-.25146-.82129-.35986-.123-.04932-.248-.09424-.45117-.1665-.251-.08984-.50293-.17822-.75977-.25391-.15332-.04541-.30957-.084-.46484-.12207l-.252-.0625C27.21.34814,27.02637.30322,26.83594.26563c-.23633-.04639-.47754-.08008-.79492-.123L25.915.124c-.13672-.02148-.27344-.0415-.4082-.05469C25.02832.02295,24.57715,0,24.12793,0A14.13782,14.13782,0,0,0,10,14.15039c0,.44629.02344.91113.06934,1.38818.01367.13086.0332.25977.05273.38818l.03125.21436c.03223.24219.06543.4834.11133.71826.03613.18506.08008.36572.125.5459l.06543.26416c.03809.15771.07715.31494.123.46875.07617.25781.16309.50928.28418.84766.042.11963.085.23926.13184.35938.11035.2793.23145.55273.35938.82324l.15234.31689c.14746.29443.30663.582.47168.8623l.124.20459q.18311.29736.37891.58594a14.111,14.111,0,0,0-.001,15.98,14.111,14.111,0,0,0,0,15.97852,14.111,14.111,0,0,0,0,15.97852,14.111,14.111,0,0,0,0,15.97852,14.13069,14.13069,0,0,0,4.6377,20.2627,16.44651,16.44651,0,0,0,7.22266,9.81738,5.79114,5.79114,0,0,0,6.48438-.252,5.69077,5.69077,0,0,0,2.2041-6.06543c-.34473-1.38574-.64355-2.76562-.8916-4.11621a14.14388,14.14388,0,0,0,3.63965-19.64648,14.17707,14.17707,0,0,0,.7998-1.33533,9.66667,9.66667,0,0,0,5.34375-2.69788c.19458-.19336.36249-.40765.5387-.61554a9.5213,9.5213,0,0,0,1.99548.73077A9.64579,9.64579,0,0,0,51.585,89.30469a9.65733,9.65733,0,0,0,2.55078,4.5918,9.50654,9.50654,0,0,0,2.54675,1.80939,30.19209,30.19209,0,0,0-.663,6.32636c0,9.09473,3.95605,17.0752,9.96777,20.38281V126a2,2,0,0,0,4,0v-4.833a2,2,0,0,0-1.21582-1.83984c-5.15332-2.19629-8.752-9.30859-8.752-17.29492,0-9.31055,4.8457-17.1748,11.10449-17.91309a5.51662,5.51662,0,0,1,.85059-.05957,9.92891,9.92891,0,0,1,6.63867,2.55762,2.00028,2.00028,0,0,0,2.67285-.001A10.01739,10.01739,0,0,1,92.03906,84.96a1.99946,1.99946,0,0,0,2.64355-2.66016,10.012,10.012,0,0,1-.93848-4.23535,10.15384,10.15384,0,0,1,2.51172-6.67383,1.9972,1.9972,0,0,0,0-2.63086,10.12229,10.12229,0,0,1,0-13.34766,1.99943,1.99943,0,0,0,.001-2.63086,10.12082,10.12082,0,0,1-.001-13.34766,1.99943,1.99943,0,0,0,.001-2.63086,10.14976,10.14976,0,0,1-2.5127-6.67383,10.01052,10.01052,0,0,1,.86035-4.0542,2,2,0,0,0-2.6377-2.63477,10.139,10.139,0,0,1-10.69922-1.6543,2.00054,2.00054,0,0,0-2.63672-.00049,10.06464,10.06464,0,0,1-13.3125.00049,2.00054,2.00054,0,0,0-2.63672,0,10.06464,10.06464,0,0,1-13.3125-.00049,2.00054,2.00054,0,0,0-2.63672.00049,10.13794,10.13794,0,0,1-10.69922,1.6543,1.99995,1.99995,0,0,0-2.6377,2.63477,10.01052,10.01052,0,0,1,.86035,4.0542,10.14976,10.14976,0,0,1-2.5127,6.67383,1.99943,1.99943,0,0,0,.001,2.63086,10.12082,10.12082,0,0,1-.001,13.34766,1.99943,1.99943,0,0,0,.001,2.63086,10.12229,10.12229,0,0,1,0,13.34766,1.9972,1.9972,0,0,0,0,2.63086,10.12229,10.12229,0,0,1,0,13.34766,1.9972,1.9972,0,0,0,0,2.63086,10.147,10.147,0,0,1-2.76855,15.58691,2.00033,2.00033,0,0,0-1.01367,2.07227c.30273,1.873.7002,3.80762,1.18359,5.75293a1.74685,1.74685,0,0,1-.67969,1.87012,1.78336,1.78336,0,0,1-2.02441.0791,12.519,12.519,0,0,1-5.65527-8.21387,1.998,1.998,0,0,0-1.07324-1.35059,10.13388,10.13388,0,0,1-3.20117-15.79687,1.9972,1.9972,0,0,0,0-2.63086,10.12229,10.12229,0,0,1,0-13.34766,1.9972,1.9972,0,0,0,0-2.63086,10.12229,10.12229,0,0,1,0-13.34766,1.99943,1.99943,0,0,0,.001-2.63086,10.12082,10.12082,0,0,1-.001-13.34766,1.99943,1.99943,0,0,0,.001-2.63086,10.12,10.12,0,0,1,0-13.34814,2.00092,2.00092,0,0,0-.002-2.63281c-.18359-.209-.35449-.42627-.57325-.72168-.15038-.20752-.292-.4209-.44042-.6626l-.07324-.12061c-.12109-.20361-.23535-.41113-.33887-.61816l-.1123-.2334c-.09082-.19434-.17871-.38965-.25684-.58789l-.082-.22461-.03516-.09814c-.06445-.18164-.12988-.36279-.18457-.54932-.02734-.09424-.05078-.18994-.07422-.28564l-.06836-.27881c-.02832-.11279-.05664-.22559-.08008-.34375-.03125-.16162-.05273-.32617-.085-.57031l-.05664-.38379c-.03125-.32715-.0498-.65723-.0498-.99268A10.13763,10.13763,0,0,1,24.12793,4c.335,0,.66406.01855.99414.05078.05957.00586.11816.01611.17676.02539l.2832.041c.16406.022.32813.043.4834.07324.12012.02393.23828.0542.35547.0835l.27148.06738c.0957.02344.19141.04639.28711.07422.18359.0542.36328.11914.626.21289l.24023.08838c.19824.07813.38965.165.59082.26025l.22266.10742c.21094.10547.416.21875.62109.34082l.14355.08789c.21777.13428.43066.27539.71.48047.22461.166.44141.33887.65137.52246a2.00036,2.00036,0,0,0,2.63574-.001,10.06408,10.06408,0,0,1,13.31152,0,2.00054,2.00054,0,0,0,2.63672.00049,10.06464,10.06464,0,0,1,13.3125-.00049,2.00054,2.00054,0,0,0,2.63672,0,10.06464,10.06464,0,0,1,13.3125.00049,2.00054,2.00054,0,0,0,2.63672-.00049,10.06464,10.06464,0,0,1,13.3125.00049,2.00092,2.00092,0,0,0,2.63867-.002c.208-.18311.42383-.355.7207-.57471.20605-.15039.41895-.2915.6543-.43652l.12988-.07959c.20117-.11963.40625-.23291.62207-.34082l.22363-.1084c.19434-.0918.39063-.17969.58691-.25781l.31738-.11572c.18066-.06445.36035-.12939.55176-.18555.09863-.0293.19824-.05273.29785-.07715l.252-.062c.11816-.02979.23535-.06055.35645-.084.15137-.02979.30469-.04932.458-.07031l.49219-.07031C103.208,4.01855,103.53809,4,103.87207,4A10.15026,10.15026,0,0,1,114,14.15039c0,.335-.01855.665-.0498.98633l-.06641.47217c-.02246.1626-.04395.3252-.07617.4917-.02344.12256-.05469.2417-.084.36133l-.05957.24121c-.02441.09961-.04785.2002-.0791.30469-.05469.187-.12012.36914-.18164.543l-.03516.09863-.084.22754c-.07812.19873-.165.39258-.28027.63672l-.08691.18164c-.10547.21094-.21973.4165-.335.6123l-.0918.15039c-.13574.2207-.27734.43506-.418.62988l-.06348.0835q-.24756.33691-.52051.65234a1.999,1.999,0,0,0,0,2.63135,10.12082,10.12082,0,0,1-.001,13.34766,1.99943,1.99943,0,0,0,.001,2.63086,10.12082,10.12082,0,0,1-.001,13.34766,1.99943,1.99943,0,0,0,.001,2.63086,10.12229,10.12229,0,0,1,0,13.34766,1.9972,1.9972,0,0,0,0,2.63086,10.12229,10.12229,0,0,1,0,13.34766,1.9972,1.9972,0,0,0,0,2.63086,10.124,10.124,0,0,1-14.375,14.21387,2.00314,2.00314,0,0,0-2.65527-.01953,10.016,10.016,0,0,1-8.40723,2.28516,1.99948,1.99948,0,0,0-2.36133,1.69824c-.75781,5.65527-3.32227,10.46973-6.86035,12.87793a1.99934,1.99934,0,0,0-.874,1.65332V126a2,2,0,0,0,4,0v-4.91211c3.58887-2.84863,6.25-7.57715,7.37207-13.07324a13.8654,13.8654,0,0,0,8.42676-2.40625,14.12684,14.12684,0,0,0,19.7666-19.55469,14.111,14.111,0,0,0,0-15.97852,14.111,14.111,0,0,0,0-15.97852,14.111,14.111,0,0,0,0-15.97852,14.111,14.111,0,0,0-.001-15.98c.12988-.19092.25488-.38428.374-.57812Zm-41.7959,58.481c-.0094.1355-.03217.26782-.05182.40094a13.86085,13.86085,0,0,0-2.19525-.17731,9.28748,9.28748,0,0,0-1.3916.09668c-5.62195.66193-10.29987,5.19476-12.73962,11.61658a5.44688,5.44688,0,0,1-.8717-.69666,5.68008,5.68008,0,0,1-1.63574-3.64453,1.99982,1.99982,0,0,0-1.8584-1.86816,5.65719,5.65719,0,0,1-5.27246-5.2998,1.99969,1.99969,0,0,0-1.85742-1.86816A5.71018,5.71018,0,0,1,44.356,77.885c.0437-.149.10345-.29236.14008-.4436a9.65448,9.65448,0,0,0,7.168-7.13086c.06317-.01489.1225-.0412.1853-.05737a5.70205,5.70205,0,0,1,.56372,2.10815,2.00022,2.00022,0,0,0,1.85645,1.86719,5.6893,5.6893,0,0,1,3.6377,1.65527,5.60085,5.60085,0,0,1,1.3457,2.16992A1.94857,1.94857,0,0,0,61.209,79.41309a1.99916,1.99916,0,0,0,1.86914-1.47656,5.63749,5.63749,0,0,1,5.1084-4.166,1.99969,1.99969,0,0,0,1.86816-1.85742,5.6813,5.6813,0,0,1,1.65723-3.6377c.06042-.06018.13483-.10114.19788-.158.08777.09564.16235.20142.25427.2937a9.66356,9.66356,0,0,0,4.5791,2.57617,9.65587,9.65587,0,0,0,2.55078,4.59277c.19427.19519.40948.36371.61835.54047-.06354.07074-.11011.15375-.17792.22125a5.68008,5.68008,0,0,1-3.64453,1.63574A1.99982,1.99982,0,0,0,74.22168,79.83594ZM63.4248,60.62891c.16156-.16071.3067-.33136.45453-.50031a9.77256,9.77256,0,0,0,.66071.73517,12.504,12.504,0,0,0,5.07324,2.957c.06415.27112.15991.53174.24683.79541a8.95307,8.95307,0,0,0-.97046.82324,9.673,9.673,0,0,0-2.5752,4.58008,9.66347,9.66347,0,0,0-4.59375,2.55078,9.84538,9.84538,0,0,0-.70215.78125c-.08984-.09766-.18164-.19434-.27539-.28906a9.67281,9.67281,0,0,0-4.5791-2.57422,9.52032,9.52032,0,0,0-.72974-2.01672A9.29711,9.29711,0,0,0,58.833,63.18018,9.65736,9.65736,0,0,0,63.4248,60.62891ZM62.31348,45.95068a9.59463,9.59463,0,0,0-3.92676-1.98193,9.65483,9.65483,0,0,0-2.28247-4.28125,5.48659,5.48659,0,0,1,1.42212-.29932,1.99988,1.99988,0,0,0,1.86719-1.85693,5.6424,5.6424,0,0,1,1.33789-3.28955c.03418-.04053.06738-.082.09863-.12549a5.87449,5.87449,0,0,1,.60059-.71729,5.67973,5.67973,0,0,1,9.68066,3.666,1.99982,1.99982,0,0,0,1.8584,1.86816c.03546.00244.06952.011.10486.01416A9.374,9.374,0,0,0,69.167,44.60938a9.665,9.665,0,0,0-4.5918,2.55078c-.16162.16077-.30682.33142-.45471.50043a9.765,9.765,0,0,0-.66052-.7348A9.596,9.596,0,0,0,62.31348,45.95068ZM79.94922,82.5791a13.97686,13.97686,0,0,0-1.61267-.96637,9.64789,9.64789,0,0,0,4.21912-2.435,9.14541,9.14541,0,0,0,.95618-1.13666c.1217.03461.238.08435.36121.1142a9.38548,9.38548,0,0,0,.87842,2.2851A13.94412,13.94412,0,0,0,79.94922,82.5791Zm7.2959-50.33789a5.68041,5.68041,0,0,1,1.65527-3.63672,5.61348,5.61348,0,0,1,.457-.39307c.175-.018.351-.02441.52539-.04932a13.89631,13.89631,0,0,0-.13867,1.9668,14.13182,14.13182,0,0,0,2.47949,7.98926,14.14242,14.14242,0,0,0-2.22913,5.39813c-.082.09326-.15015.1969-.23865.285a5.67893,5.67893,0,0,1-3.64551,1.63623,2.0004,2.0004,0,0,0-1.86719,1.85791,5.678,5.678,0,0,1-1.65527,3.63574,5.59381,5.59381,0,0,1-2.1709,1.34668,2,2,0,0,0,.11816,3.8252,5.63956,5.63956,0,0,1,4.167,5.10986,2.00028,2.00028,0,0,0,1.85742,1.8667,5.67076,5.67076,0,0,1,3.40985,1.46619,14.1464,14.1464,0,0,0,2.25421,5.52942,14.10466,14.10466,0,0,0-2.31641,10.126c-.12335-.0177-.24792-.02081-.37164-.035-.09119-.08051-.18872-.15265-.27484-.23938A5.67946,5.67946,0,0,1,87.624,76.28223,2.00022,2.00022,0,0,0,85.76758,74.415a5.66109,5.66109,0,0,1-5.27344-5.30078,1.99982,1.99982,0,0,0-1.8584-1.86816,5.66117,5.66117,0,0,1-5.27246-5.30127,2.00028,2.00028,0,0,0-1.85742-1.8667,5.637,5.637,0,0,1-3.28809-1.33789c-.041-.03516-.084-.06885-.12793-.10059a5.77881,5.77881,0,0,1-.71582-.59814,5.61924,5.61924,0,0,1-1.33228-2.19086,9.75726,9.75726,0,0,0,.06921-3.86957A5.62982,5.62982,0,0,1,71.041,48.35986,2.00041,2.00041,0,0,0,72.9082,46.502,5.65811,5.65811,0,0,1,78.209,41.22949a2.00028,2.00028,0,0,0,1.86719-1.85693,5.661,5.661,0,0,1,5.30176-5.27344A2,2,0,0,0,87.24512,32.24121Zm4.97852,21.85547a14.14373,14.14373,0,0,0-2.29529,5.74408,9.35614,9.35614,0,0,0-1.47522-.50189,9.64241,9.64241,0,0,0-3.333-5.2959c.09766-.08936.19336-.18115.28809-.27539A9.65922,9.65922,0,0,0,87.98438,49.188a9.43159,9.43159,0,0,0,1.96832-.70831A14.14667,14.14667,0,0,0,92.22363,54.09668ZM48.05078,25.81885a14.05243,14.05243,0,0,0,15.94922,0,14.05243,14.05243,0,0,0,15.94922,0,14.12915,14.12915,0,0,0,4.563,2.04468,9.43614,9.43614,0,0,0-1.00836,2.48462,9.55736,9.55736,0,0,0-6.63361,5.58167,9.50985,9.50985,0,0,0-2.008-.73743,9.65624,9.65624,0,0,0-17.22754-3.48291,9.5881,9.5881,0,0,0-1.9834,3.92822,9.6729,9.6729,0,0,0-3.31665,1.50519,9.70767,9.70767,0,0,0-1.07788-.34064,9.64731,9.64731,0,0,0-7.12988-7.168,9.67587,9.67587,0,0,0-.61285-1.77789A14.11823,14.11823,0,0,0,48.05078,25.81885Zm-9.95032,38.341c.051-.05493.09039-.11853.14368-.17157a5.67868,5.67868,0,0,1,3.64551-1.63623,2,2,0,0,0,1.86719-1.85791,5.67807,5.67807,0,0,1,1.65527-3.63623,5.59843,5.59843,0,0,1,2.1709-1.34619,2,2,0,0,0-.11816-3.8252,5.6395,5.6395,0,0,1-4.167-5.11035,2,2,0,0,0-1.8584-1.8667,5.6739,5.6739,0,0,1-3.50073-1.54224,14.14715,14.14715,0,0,0-2.16235-5.04907,14.09358,14.09358,0,0,0,2.34082-9.95605c.31335.04462.62872.06573.94385.08838A5.67111,5.67111,0,0,1,40.376,31.50781a2.00028,2.00028,0,0,0,1.85742,1.8667,5.65921,5.65921,0,0,1,5.27246,5.30029A1.9993,1.9993,0,0,0,49.36328,40.543a5.65994,5.65994,0,0,1,5.27344,5.30176,2,2,0,0,0,1.8584,1.8667,5.63622,5.63622,0,0,1,3.28711,1.3374c.041.03516.084.06885.12793.10059a5.37957,5.37957,0,0,1,2.048,2.78918,9.7569,9.7569,0,0,0-.069,3.86951A5.62829,5.62829,0,0,1,56.959,59.4292a2,2,0,0,0-1.86719,1.85791,5.65823,5.65823,0,0,1-5.2998,5.27246A1.99969,1.99969,0,0,0,47.92383,68.417a5.661,5.661,0,0,1-5.30176,5.27344,2.00047,2.00047,0,0,0-1.86719,1.8584,5.6753,5.6753,0,0,1-1.65625,3.63574,5.59491,5.59491,0,0,1-.976.75977,13.96553,13.96553,0,0,0-2.34625-9.86914A14.14688,14.14688,0,0,0,38.10046,64.15985Zm-2.3241-10.06317a14.14319,14.14319,0,0,0,2.34821-6.12677,9.29854,9.29854,0,0,0,1.4223.48029A9.66578,9.66578,0,0,0,42.09863,53.043a9.41946,9.41946,0,0,0,.78125.70313c-.09766.08984-.19336.18164-.28809.27539a9.66151,9.66151,0,0,0-2.57617,4.57959,9.40844,9.40844,0,0,0-2.03925.74164A14.14383,14.14383,0,0,0,35.77637,54.09668Z"/></svg>