<svg xmlns="http://www.w3.org/2000/svg" width="19.753" height="24.268" viewBox="0 0 19.753 24.268">
  <path id="medical-record" d="M9.458,4.354V1.25h7.337v3.1a.279.279,0,0,1-.282.282H9.74A.279.279,0,0,1,9.458,4.354ZM23,5.483v15.8a4.234,4.234,0,0,1-4.233,4.233H7.483A4.234,4.234,0,0,1,3.25,21.285V5.483A4.234,4.234,0,0,1,7.483,1.25h.282v3.1A1.985,1.985,0,0,0,9.74,6.329h6.772a1.985,1.985,0,0,0,1.975-1.975V1.25h.282A4.234,4.234,0,0,1,23,5.483ZM18.488,15.641a.853.853,0,0,0-.847-.847H16.05l-.643-2.573a1.194,1.194,0,0,0-1.151-.914,1.145,1.145,0,0,0-1.174.88l-1.3,4.549-.6-1.174a1.408,1.408,0,0,0-1.253-.768H8.623a.847.847,0,1,0,0,1.693h1.14L10.846,18.6a1.194,1.194,0,0,0,1.072.655h.124a1.2,1.2,0,0,0,1.038-.869l1.14-3.984.26,1.016a1.411,1.411,0,0,0,1.366,1.072h1.817a.853.853,0,0,0,.847-.847Z" transform="translate(-3.25 -1.25)" fill="#ffb226"/>
</svg>
