<svg id="patient_1_" data-name="patient (1)" xmlns="http://www.w3.org/2000/svg" width="24.695" height="24.695" viewBox="0 0 24.695 24.695">
  <path id="Path_40" data-name="Path 40" d="M14.659,24.232a1.029,1.029,0,0,1-.856-.458l-1.752-2.629H10.029a1.029,1.029,0,1,1,0-2.058H12.6a1.03,1.03,0,0,1,.856.458l1.074,1.611,2.294-4.588A1.03,1.03,0,0,1,17.706,16a1.015,1.015,0,0,1,.922.5l2.787,4.647h1.99a1.029,1.029,0,0,1,0,2.058H20.833a1.027,1.027,0,0,1-.882-.5l-2.123-3.537-2.248,4.5a1.03,1.03,0,0,1-.857.567Z" transform="translate(0.26 0.463)" fill="#c583cf"/>
  <circle id="Ellipse_9" data-name="Ellipse 9" cx="5.274" cy="5.274" r="5.274" transform="translate(4.52)" fill="#c583cf"/>
  <path id="Path_41" data-name="Path 41" d="M7.2,20.232a3.091,3.091,0,0,1,3.087-3.087h2.572a3.085,3.085,0,0,1,1.5.388l.884-1.769a3.07,3.07,0,0,1,2.278-1.64A5.128,5.128,0,0,0,13.376,12H5.145A5.145,5.145,0,0,0,0,17.145v3.344a.772.772,0,0,0,.772.772h6.62A3.052,3.052,0,0,1,7.2,20.232Z" transform="translate(0 0.347)" fill="#c583cf"/>
</svg>
