<?xml version="1.0" encoding="UTF-8"?>
<svg width="1200pt" height="1200pt" version="1.1" viewBox="0 0 1200 1200" xmlns="http://www.w3.org/2000/svg">
 <g>
  <path d="m289.96 749.46c71.117 87.598 95.238 205.55 64.52 315.52-5.7422 20.543-12.406 41.441-19.754 62.125-1.4062 3.9336-0.80469 8.3047 1.5898 11.719 2.4102 3.4141 6.3281 5.4492 10.512 5.4492h378.88c3.5156 0 6.8633-1.4414 9.293-3.9766 2.4258-2.543 3.7148-5.9609 3.5508-9.4766-2.6602-57.797 11.25-117.43 41.367-177.37h61.07c37.332 0 67.699-30.367 67.699-67.691v-51.773l29.18-14.613c11.703-4.8125 18.785-12.078 21.027-21.586 2.4609-10.414-1.8086-20.648-7.5156-29.281 8.2031-7.1641 12.926-15.445 14.078-24.719 1.3047-10.395-1.9102-20.992-9.7617-32.074l34.652-10.855c11.836-3.6836 21.496-12.281 26.535-23.59 4.9883-11.234 4.9062-24.066-0.23437-35.207-14.195-30.77-37.801-74.723-69.574-109.39-14.801-16.129-18.164-33.949-10.312-54.457 27.992-72.34 25.094-149.37-7.9336-211.33-69.438-130.25-204.24-211.16-351.78-211.16-110.89 0-213.8 44.531-289.77 125.39-75.973 80.859-113.99 186.64-107.04 297.88 5.7578 91.867 46.773 192.97 109.72 270.47zm287.09-668.03c138.03 0 264.12 75.695 329.08 197.55 29.516 55.355 31.941 124.59 6.6445 190-11.367 29.691-6.0586 57.723 15.352 81.07 29.531 32.219 51.746 73.676 65.191 102.79 2.0586 4.4766 2.0938 9.4414 0.066406 13.98-2.0273 4.5469-5.9102 8.0039-10.699 9.4844l-53.555 16.781c-4.3359 1.3633-7.6328 4.9219-8.6719 9.3594-1.0391 4.4375 0.35156 9.082 3.6484 12.23 11 10.465 16.625 19.664 15.836 25.914-0.71875 5.75-7.6016 10.738-13.258 13.91-3.3633 1.8906-5.707 5.207-6.3789 9.0156-0.65234 3.8164 0.43359 7.7266 2.9805 10.641 11.484 13.176 10.598 17.68 10.582 17.719-0.050782 0.24219-1.2891 1.8672-6.6289 4.1016l-37.148 18.574c-4.3711 2.1758-7.1133 6.6289-7.1133 11.5v59.707c0 23.145-18.832 41.977-41.988 41.977h-68.922c-4.7891 0-9.1758 2.6602-11.402 6.8984-32.293 61.75-48.449 123.56-48.148 183.93l-347.64-0.003906c5.2383-15.586 10.043-31.223 14.379-46.656v-0.007812c32.945-117.98 7.0312-244.58-69.34-338.64-58.812-72.406-98.672-170.45-104.01-255.87-13.461-215.66 156.69-395.95 371.15-395.95z"/>
  <path d="m534.26 703.38c58.715-0.007812 177.34-0.027344 169.94-0.023438 7.0977 0 12.855-5.7578 12.855-12.855-4.8125-152.71 10.684-182.77-12.855-182.77h-28.242c-4.9922-69.566-108.4-69.984-113.42 0h-15.387c-1.4414-24.457 3.8242-36.023-6.1953-42.078-9.4805-5.7695-13.199 3.0898-26.871 3.0898-17.16 0-31.105-13.945-31.105-31.09 0-23.156 25.316-38.047 45.367-27.59 8.5938 4.4414 18.801-1.7695 18.801-11.402-2.6797-27.418 8.0898-58.887-12.855-58.887-152.71 4.8125-182.76-10.684-182.76 12.855 0 1.7891-0.015625 169.75-0.015625 168.01v169.88c0.003906 23.93 33.004 8.1406 182.75 12.859zm-12.859-25.715h-144.18v-142.27h16.02c-0.13281 1.4062-0.78516 8.0273-0.78516 9.4414 0 80.699 126.7 71.824 112.95-9.4414h15.988c1.582 26.43-7.3633 48.762 22.605 40.293 21.035-5.6367 39.453 10.293 39.453 29.801 0 22.805-24.027 37.512-43.746 28.301-8.5195-3.9766-18.316 2.2344-18.316 11.645zm64.789-149.06c4.7773-5.9688 1.9102-10.637 1.9102-16.758 0-45.559 71.73-37.758 61.707 5.8828-5.2305 22.941 31.305 13.891 41.535 15.711v144.2h-144.19v-15.609c82.543 4.9062 80.312-120.59 0-113.11v-15.477c24.199-1.1797 32.73 3.1055 39.039-4.8398zm-208.95-163.11h144.19v15.844c-33.871-4.4141-64.168 22.273-64.168 56.316 0 34.102 30.09 60.781 64.168 56.316v15.719c-27.875 1.6289-39.527-4.2383-45.586 6.6055-5.5781 9.9883 4.5859 13.977 4.5859 28.52 0 46.453-73.75 36.977-61.176-8.1016 2.8086-7.8438 4.5469-8.4102 4.9453-13.082 0.17969-2.1055-0.92969-6.5039-1.3945-7.3359-0.72266-1.2891-2.9062-3.7109-4.6211-4.7539-2.0273-0.82422-3.0664-1.5195-5.9727-1.6758-0.22656-0.011719-0.41016-0.17188-0.64062-0.17188h-34.336z"/>
  <path d="m606.23 349.34c-45.789 52.762 27.176 126.07 80.207 80.215 36.551 33.668 21.367 34.129 69.879-11.754 6.5938-6.5938 4.1914-17.797-4.5352-21.117-12.203-4.5938-20.141-16.16-20.141-29.105-0.054687-27.613 33.562-41.477 53.152-21.891 8.6602 8.6836 5.957 16.734 16.305 18.969 4.2539 0.94531 8.707-0.38672 11.82-3.4727l31.824-31.809c2.4102-2.4102 3.7656-5.6758 3.7656-9.0898 0-3.4062-1.3555-6.6797-3.7656-9.0898l-120.15-120.15c-5.0234-5.0234-13.16-5.0234-18.18 0-115.21 116.98-133.88 124.6-120.15 138.32zm109.27-131.02 101.97 101.97-11.031 11.023c-1.1055-1.3242-2.2617-2.5938-3.4648-3.8008-18.324-18.324-42.012-17.055-40.297-16.707-53.191 0-76.859 67.238-36.227 100.5l-10.949 10.941c-18.668-17.055-21-25.234-31.02-24.199-7.6211 0.85547-8.9414 6.2383-13.191 10.512-29.168 29.148-73.117-15.047-44.047-44.078 4.3789-4.3789 9.6602-5.5898 10.48-13.199 0.43359-3.875-0.92188-7.7422-3.6836-10.496l-20.508-20.508z"/>
 </g>
</svg>
