<svg xmlns="http://www.w3.org/2000/svg" width="43.212" height="43.219" viewBox="0 0 43.212 43.219">
  <g id="link" transform="translate(-0.039 0)">
    <g id="Group_2" data-name="Group 2" transform="translate(0.039 13.893)">
      <g id="Group_1" data-name="Group 1" transform="translate(0)">
        <path id="Path_1" data-name="Path 1" d="M26.406,167.567a9.8,9.8,0,0,0-1.692-1.361,10.084,10.084,0,0,0-12.567,1.361l-9.161,9.168A10.083,10.083,0,0,0,17.238,191l7.562-7.562a.72.72,0,0,0-.511-1.232H24a12.122,12.122,0,0,1-4.609-.893.72.72,0,0,0-.785.158l-5.437,5.445A4.323,4.323,0,0,1,7.054,180.8l9.2-9.189a4.321,4.321,0,0,1,6.107,0,2.953,2.953,0,0,0,4.047,0,2.853,2.853,0,0,0,0-4.047Z" transform="translate(-0.039 -164.614)" fill="#fff"/>
      </g>
    </g>
    <g id="Group_4" data-name="Group 4" transform="translate(16.029 0)">
      <g id="Group_3" data-name="Group 3">
        <path id="Path_2" data-name="Path 2" d="M213.771,2.954a10.083,10.083,0,0,0-14.26,0L191.956,10.5a.723.723,0,0,0,.526,1.232h.266a12.1,12.1,0,0,1,4.6.9.72.72,0,0,0,.785-.158l5.423-5.416a4.323,4.323,0,1,1,6.114,6.114l-6.755,6.748-.058.065L200.5,22.334a4.321,4.321,0,0,1-6.107,0,2.953,2.953,0,0,0-4.047,0,2.871,2.871,0,0,0,0,4.062,10,10,0,0,0,2.881,2.016c.151.072.3.13.454.194s.31.115.461.173.31.108.461.151l.425.115c.288.072.576.13.871.18a10.025,10.025,0,0,0,1.073.1h.547l.432-.05c.158-.007.324-.043.511-.043h.245l.5-.072.23-.043.418-.086h.079a10.082,10.082,0,0,0,4.674-2.65l9.168-9.168A10.083,10.083,0,0,0,213.771,2.954Z" transform="translate(-189.502 0)" fill="#fff"/>
      </g>
    </g>
  </g>
</svg>
