<svg width="24" height="24" viewBox="0 0 24 24" fill="none" xmlns="http://www.w3.org/2000/svg">
<mask id="mask0_240_19004" style="mask-type:alpha" maskUnits="userSpaceOnUse" x="0" y="0" width="24" height="24">
<rect width="24" height="24" fill="#D9D9D9"/>
</mask>
<g mask="url(#mask0_240_19004)">
<path d="M15.9351 13.8077C15.2093 13.8077 14.5915 13.5537 14.0819 13.0455C13.5722 12.5373 13.3174 11.9203 13.3174 11.1945C13.3174 10.4687 13.5715 9.851 14.0796 9.3415C14.5878 8.83183 15.2048 8.577 15.9306 8.577C16.6565 8.577 17.2742 8.831 17.7839 9.339C18.2934 9.84717 18.5481 10.4642 18.5481 11.19C18.5481 11.9158 18.2941 12.5336 17.7861 13.0433C17.278 13.5529 16.661 13.8077 15.9351 13.8077ZM11.2214 19.423C10.9652 19.423 10.7505 19.3364 10.5774 19.1633C10.404 18.9899 10.3174 18.7753 10.3174 18.5193V17.9078C10.3174 17.6239 10.3863 17.3536 10.5241 17.0968C10.662 16.8399 10.852 16.6359 11.0944 16.4848C11.8187 16.0603 12.5831 15.7388 13.3876 15.5203C14.1923 15.3016 15.0407 15.1923 15.9329 15.1923C16.8251 15.1923 17.6734 15.3016 18.4779 15.5203C19.2824 15.7388 20.0469 16.0603 20.7714 16.4848C21.0135 16.6359 21.2036 16.8399 21.3414 17.0968C21.4792 17.3536 21.5481 17.6239 21.5481 17.9078V18.5193C21.5481 18.7753 21.4615 18.9899 21.2884 19.1633C21.115 19.3364 20.9004 19.423 20.6444 19.423H11.2214ZM10.1924 13.75H4.19238C3.97988 13.75 3.8018 13.6781 3.65813 13.5343C3.5143 13.3904 3.44238 13.2122 3.44238 12.9998C3.44238 12.7871 3.5143 12.609 3.65813 12.4655C3.8018 12.3218 3.97988 12.25 4.19238 12.25H10.1924C10.4049 12.25 10.583 12.3219 10.7269 12.4658C10.8705 12.6096 10.9424 12.7878 10.9424 13.0003C10.9424 13.2129 10.8705 13.391 10.7269 13.5345C10.583 13.6782 10.4049 13.75 10.1924 13.75ZM14.1924 5.75H4.19238C3.97988 5.75 3.8018 5.67808 3.65813 5.53425C3.5143 5.39042 3.44238 5.21225 3.44238 4.99975C3.44238 4.78708 3.5143 4.609 3.65813 4.4655C3.8018 4.32183 3.97988 4.25 4.19238 4.25H14.1924C14.4049 4.25 14.583 4.32192 14.7269 4.46575C14.8705 4.60958 14.9424 4.78775 14.9424 5.00025C14.9424 5.21292 14.8705 5.391 14.7269 5.5345C14.583 5.67817 14.4049 5.75 14.1924 5.75ZM11.3981 9.75H4.19238C3.97988 9.75 3.8018 9.67808 3.65813 9.53425C3.5143 9.39042 3.44238 9.21225 3.44238 8.99975C3.44238 8.78708 3.5143 8.609 3.65813 8.4655C3.8018 8.32183 3.97988 8.25 4.19238 8.25H12.1349C11.9592 8.46917 11.8117 8.70217 11.6924 8.949C11.5732 9.19583 11.4751 9.46283 11.3981 9.75Z" fill="#7F8485"/>
</g>
</svg>
