<svg width="24" height="24" viewBox="0 0 24 24" fill="none" xmlns="http://www.w3.org/2000/svg">
<mask id="mask0_240_18992" style="mask-type:alpha" maskUnits="userSpaceOnUse" x="0" y="0" width="24" height="24">
<rect width="24" height="24" fill="#D9D9D9"/>
</mask>
<g mask="url(#mask0_240_18992)">
<path d="M13.4819 21.5C11.8174 21.5 10.3995 20.9163 9.22819 19.749C8.05686 18.5817 7.47119 17.1653 7.47119 15.5V14.9537C6.12119 14.7782 4.99203 14.1763 4.08369 13.148C3.17536 12.1198 2.72119 10.9038 2.72119 9.5V4.654C2.72119 4.39783 2.80777 4.18317 2.98094 4.01C3.15427 3.83667 3.36894 3.75 3.62494 3.75H5.72119V3.5C5.72119 3.2875 5.79311 3.10942 5.93694 2.96575C6.08078 2.82192 6.25894 2.75 6.47144 2.75C6.68411 2.75 6.86219 2.82192 7.00569 2.96575C7.14936 3.10942 7.22119 3.2875 7.22119 3.5V5.5C7.22119 5.7125 7.14927 5.89067 7.00544 6.0345C6.86161 6.17817 6.68336 6.25 6.47069 6.25C6.25819 6.25 6.08011 6.17817 5.93644 6.0345C5.79294 5.89067 5.72119 5.7125 5.72119 5.5V5.25H4.22119V9.5C4.22119 10.6 4.61286 11.5417 5.39619 12.325C6.17953 13.1083 7.12119 13.5 8.22119 13.5C9.32119 13.5 10.2629 13.1083 11.0462 12.325C11.8295 11.5417 12.2212 10.6 12.2212 9.5V5.25H10.7212V5.5C10.7212 5.7125 10.6493 5.89067 10.5054 6.0345C10.3616 6.17817 10.1834 6.25 9.97069 6.25C9.75819 6.25 9.58011 6.17817 9.43644 6.0345C9.29294 5.89067 9.22119 5.7125 9.22119 5.5V3.5C9.22119 3.2875 9.29311 3.10942 9.43694 2.96575C9.58061 2.82192 9.75878 2.75 9.97144 2.75C10.1839 2.75 10.362 2.82192 10.5057 2.96575C10.6494 3.10942 10.7212 3.2875 10.7212 3.5V3.75H12.8172C13.0734 3.75 13.288 3.83667 13.4612 4.01C13.6345 4.18317 13.7212 4.39783 13.7212 4.654V9.5C13.7212 10.9038 13.267 12.1198 12.3587 13.148C11.4504 14.1763 10.3212 14.7782 8.97119 14.9537V15.5C8.97119 16.75 9.40961 17.8125 10.2864 18.6875C11.1633 19.5625 12.228 20 13.4807 20C14.7307 20 15.7932 19.5625 16.6682 18.6875C17.5432 17.8125 17.9807 16.75 17.9807 15.5V13.8828C17.455 13.7174 17.0224 13.4118 16.6827 12.966C16.3429 12.5202 16.1729 12.0122 16.1729 11.4423C16.1729 10.7319 16.4218 10.1281 16.9194 9.63075C17.4169 9.13342 18.0211 8.88475 18.7319 8.88475C19.4426 8.88475 20.0464 9.13342 20.5432 9.63075C21.04 10.1281 21.2884 10.7319 21.2884 11.4423C21.2884 12.0122 21.1185 12.5202 20.7787 12.966C20.439 13.4118 20.0064 13.7174 19.4807 13.8828V15.5C19.4807 17.1653 18.897 18.5817 17.7297 19.749C16.5624 20.9163 15.1464 21.5 13.4819 21.5Z" fill="#7F8485"/>
</g>
</svg>
