<svg width="24" height="24" viewBox="0 0 24 24" fill="none" xmlns="http://www.w3.org/2000/svg">
<mask id="mask0_240_18998" style="mask-type:alpha" maskUnits="userSpaceOnUse" x="0" y="0" width="24" height="24">
<rect width="24" height="24" fill="#D9D9D9"/>
</mask>
<g mask="url(#mask0_240_18998)">
<path d="M16.225 9.22516C15.3058 8.50695 13.9033 8.89792 13.3015 9.43568C12.6657 10.0004 12.717 10.9789 13.3352 11.2397C13.9097 11.4803 14.8189 11.2298 15.1332 10.0605C15.7282 10.3644 15.8145 11.3367 15.2241 12.0414C14.2776 13.1672 13.4632 13.3041 12.5204 13.5645C12.475 13.5577 12.4359 13.5546 12.3918 13.5478V5.7845C12.725 5.6916 13.013 5.48286 13.2028 5.1967C13.3925 4.91055 13.4713 4.56626 13.4245 4.22726C13.3778 3.88826 13.2086 3.57737 12.9483 3.35186C12.688 3.12634 12.354 3.00139 12.0078 3.00001C11.6616 2.99864 11.3266 3.12093 11.0645 3.34437C10.8023 3.56781 10.6307 3.87734 10.5812 4.21596C10.5316 4.55458 10.6076 4.89948 10.795 5.18714C10.9824 5.47479 11.2687 5.68582 11.6011 5.78136V13.547C11.5557 13.5501 11.5067 13.5568 11.459 13.5636C10.5193 13.3032 9.70132 13.1659 8.75528 12.0405C8.16486 11.3358 8.25161 10.3604 8.84612 10.0596C9.16041 11.2267 10.0697 11.4794 10.6442 11.2388C11.2628 10.9816 11.3132 10.0031 10.6778 9.43478C10.076 8.89613 8.67354 8.50605 7.75429 9.22426C6.83505 9.94246 6.66428 11.5993 7.73749 12.8754C8.28287 13.5047 8.96444 14.0046 9.73176 14.3383C9.47792 14.5518 9.27285 14.8162 9.13012 15.1139C8.98739 15.4115 8.91025 15.7358 8.9038 16.0652C8.9241 16.5315 9.07604 16.983 9.34243 17.3684C9.60882 17.7539 9.97904 18.058 10.4112 18.2463C10.236 18.4385 10.1035 18.665 10.0224 18.9111C9.9395 19.1415 9.92376 19.3904 9.97701 19.6293C10.0224 19.7962 10.0951 19.8766 10.1664 19.8766C10.3217 19.8766 10.4235 19.5624 10.6937 19.2387C10.9242 18.9507 11.2413 18.7425 11.5993 18.644V19.4825C11.4403 19.5681 11.3145 19.7035 11.2417 19.8674C11.169 20.0313 11.1533 20.2144 11.1973 20.3881C11.2412 20.5617 11.3423 20.716 11.4845 20.8268C11.6268 20.9375 11.8022 20.9984 11.9833 21C12.1644 21.0015 12.3409 20.9436 12.4851 20.8352C12.6293 20.7269 12.733 20.5744 12.7799 20.4015C12.8269 20.2286 12.8144 20.0452 12.7445 19.8801C12.6746 19.715 12.5512 19.5775 12.3937 19.4892V18.644C12.7528 18.7428 13.0708 18.952 13.3015 19.2414C13.5741 19.5655 13.6735 19.8793 13.8288 19.8793C13.8997 19.8793 13.971 19.7989 14.0182 19.6319C14.0697 19.3929 14.054 19.1446 13.9728 18.9137C13.8919 18.666 13.7582 18.4383 13.5809 18.2458C14.0109 18.0574 14.3792 17.7539 14.644 17.3696C14.9088 16.9853 15.0597 16.5355 15.0796 16.071C15.0732 15.7416 14.996 15.4174 14.8533 15.1197C14.7106 14.822 14.5055 14.5577 14.2517 14.3442C15.019 14.0105 15.7006 13.5105 16.2459 12.8813C17.3137 11.6002 17.1443 9.94022 16.225 9.22516ZM13.7594 10.1292C13.7055 10.1292 13.6528 10.1134 13.608 10.0838C13.5631 10.0542 13.5282 10.0121 13.5076 9.96293C13.487 9.91372 13.4816 9.85957 13.4921 9.80732C13.5026 9.75508 13.5285 9.70709 13.5667 9.66943C13.6048 9.63176 13.6533 9.60611 13.7062 9.59572C13.7591 9.58533 13.8138 9.59066 13.8636 9.61104C13.9134 9.63143 13.956 9.66595 13.9859 9.71024C14.0159 9.75453 14.0319 9.8066 14.0319 9.85987C14.0307 9.93094 14.0016 9.99878 13.9507 10.049C13.8999 10.0993 13.8313 10.128 13.7594 10.1292ZM10.2209 9.59054C10.2748 9.59054 10.3275 9.60634 10.3723 9.63593C10.4171 9.66553 10.452 9.70759 10.4727 9.7568C10.4933 9.80602 10.4987 9.86017 10.4882 9.91241C10.4777 9.96466 10.4517 10.0126 10.4136 10.0503C10.3755 10.088 10.3269 10.1136 10.2741 10.124C10.2212 10.1344 10.1664 10.1291 10.1166 10.1087C10.0668 10.0883 10.0243 10.0538 9.99432 10.0095C9.96438 9.96521 9.94839 9.91314 9.94839 9.85987C9.94839 9.82435 9.9555 9.78918 9.96931 9.75638C9.98312 9.72359 10.0034 9.69382 10.0289 9.66879C10.0543 9.64375 10.0846 9.62396 10.1179 9.61053C10.1511 9.5971 10.1868 9.5903 10.2227 9.59054H10.2209ZM10.2277 16.0611C10.2277 15.4866 10.8259 14.9887 11.6034 14.8586V17.2605C10.8277 17.1389 10.2295 16.6411 10.2295 16.0629L10.2277 16.0611ZM12.0053 5.03129C11.881 5.03129 11.7595 4.99485 11.6561 4.92659C11.5528 4.85832 11.4722 4.7613 11.4246 4.64778C11.377 4.53426 11.3646 4.40935 11.3888 4.28884C11.4131 4.16833 11.473 4.05763 11.5609 3.97075C11.6488 3.88386 11.7608 3.8247 11.8827 3.80073C12.0046 3.77676 12.131 3.78906 12.2459 3.83608C12.3607 3.8831 12.4589 3.96273 12.528 4.06489C12.597 4.16706 12.6339 4.28717 12.6339 4.41004C12.6342 4.57473 12.5683 4.7328 12.4508 4.84959C12.3333 4.96639 12.1738 5.03237 12.0072 5.03308L12.0053 5.03129ZM12.3941 17.2605V14.8622C13.1662 14.9923 13.7566 15.4906 13.7566 16.0616C13.7566 16.6325 13.1667 17.1317 12.3968 17.2623L12.3941 17.2605Z" fill="#7F8485"/>
<path d="M8.74177 4.05408C8.63143 4.05447 8.52305 4.08296 8.42711 4.13682C8.33116 4.19069 8.25089 4.26809 8.19404 4.36156H4.19233C4.11992 4.24273 4.01012 4.15061 3.87972 4.0993C3.74931 4.048 3.60549 4.04033 3.47026 4.07747C3.33503 4.11461 3.21584 4.19451 3.13091 4.30495C3.04598 4.4154 3 4.55029 3 4.68901C3 4.82773 3.04598 4.96263 3.13091 5.07307C3.21584 5.18352 3.33503 5.26341 3.47026 5.30055C3.60549 5.33769 3.74931 5.33002 3.87972 5.27872C4.01012 5.22741 4.11992 5.1353 4.19233 5.01647H8.19404C8.25205 5.11122 8.33416 5.18929 8.43221 5.24291C8.53025 5.29653 8.64079 5.32382 8.75283 5.32207C8.86486 5.32033 8.97448 5.2896 9.07076 5.23294C9.16704 5.17629 9.24662 5.09569 9.30157 4.99918C9.35653 4.90267 9.38494 4.79361 9.38397 4.68287C9.383 4.57213 9.3527 4.46358 9.29607 4.36802C9.23944 4.27246 9.15847 4.19323 9.06121 4.13823C8.96396 4.08322 8.85382 4.05392 8.74177 4.05408Z" fill="#7F8485"/>
<path d="M9.53612 5.56421C9.42578 5.5646 9.3174 5.59309 9.22145 5.64696C9.12551 5.70082 9.04524 5.77822 8.98839 5.87169H4.81001C4.7376 5.75286 4.62779 5.66074 4.49739 5.60944C4.36699 5.55813 4.22317 5.55047 4.08794 5.58761C3.95271 5.62475 3.83351 5.70464 3.74858 5.81509C3.66365 5.92553 3.61768 6.06042 3.61768 6.19914C3.61768 6.33786 3.66365 6.47276 3.74858 6.58321C3.83351 6.69365 3.95271 6.77355 4.08794 6.81069C4.22317 6.84783 4.36699 6.84016 4.49739 6.78886C4.62779 6.73755 4.7376 6.64543 4.81001 6.5266H8.98839C9.0464 6.62135 9.12851 6.69942 9.22655 6.75304C9.32459 6.80666 9.43514 6.83396 9.54718 6.83221C9.65921 6.83046 9.76883 6.79973 9.86511 6.74308C9.96139 6.68642 10.041 6.60583 10.0959 6.50932C10.1509 6.4128 10.1793 6.30375 10.1783 6.19301C10.1773 6.08227 10.147 5.97371 10.0904 5.87815C10.0338 5.78259 9.95281 5.70336 9.85556 5.64836C9.75831 5.59336 9.64817 5.56405 9.53612 5.56421Z" fill="#7F8485"/>
<path d="M10.0696 7.0741C9.95929 7.07449 9.85092 7.10299 9.75497 7.15685C9.65903 7.21071 9.57875 7.28811 9.52191 7.38158H6.10835C6.03594 7.26275 5.92613 7.17063 5.79573 7.11933C5.66533 7.06803 5.52151 7.06035 5.38628 7.09749C5.25105 7.13463 5.13185 7.21453 5.04693 7.32497C4.962 7.43542 4.91602 7.57031 4.91602 7.70903C4.91602 7.84775 4.962 7.98266 5.04693 8.0931C5.13185 8.20354 5.25105 8.28344 5.38628 8.32058C5.52151 8.35772 5.66533 8.35005 5.79573 8.29874C5.92613 8.24744 6.03594 8.15533 6.10835 8.0365H9.52554C9.58361 8.13134 9.66583 8.20947 9.764 8.26309C9.86217 8.31671 9.97286 8.34394 10.085 8.34207C10.1972 8.3402 10.3068 8.30931 10.4031 8.25244C10.4994 8.19558 10.5789 8.11474 10.6337 8.01802C10.6885 7.92129 10.7167 7.81206 10.7154 7.70121C10.7142 7.59036 10.6835 7.48177 10.6265 7.38629C10.5695 7.29081 10.4882 7.21177 10.3906 7.15707C10.2931 7.10237 10.1827 7.07392 10.0705 7.07455L10.0696 7.0741Z" fill="#7F8485"/>
<path d="M15.2589 4.05347C15.3693 4.05386 15.4776 4.08235 15.5736 4.13621C15.6695 4.19007 15.7498 4.26748 15.8067 4.36095H19.8084C19.8808 4.24212 19.9906 4.15 20.121 4.09869C20.2514 4.04739 20.3952 4.03972 20.5304 4.07686C20.6657 4.114 20.7849 4.1939 20.8698 4.30434C20.9547 4.41479 21.0007 4.54968 21.0007 4.6884C21.0007 4.82712 20.9547 4.96202 20.8698 5.07246C20.7849 5.18291 20.6657 5.2628 20.5304 5.29994C20.3952 5.33708 20.2514 5.32941 20.121 5.27811C19.9906 5.2268 19.8808 5.13469 19.8084 5.01586H15.8067C15.7486 5.11061 15.6665 5.18868 15.5685 5.2423C15.4704 5.29592 15.3599 5.32321 15.2479 5.32146C15.1358 5.31972 15.0262 5.28899 14.9299 5.23233C14.8337 5.17568 14.7541 5.09508 14.6991 4.99857C14.6442 4.90206 14.6158 4.793 14.6167 4.68226C14.6177 4.57152 14.648 4.46297 14.7046 4.36741C14.7613 4.27185 14.8422 4.19262 14.9395 4.13762C15.0367 4.08261 15.1469 4.05331 15.2589 4.05347Z" fill="#7F8485"/>
<path d="M14.464 5.56421C14.5743 5.5646 14.6827 5.59309 14.7787 5.64696C14.8746 5.70082 14.9549 5.77822 15.0117 5.87169H19.1901C19.2625 5.75286 19.3723 5.66074 19.5027 5.60944C19.6331 5.55813 19.7769 5.55047 19.9122 5.58761C20.0474 5.62475 20.1666 5.70464 20.2515 5.81509C20.3365 5.92553 20.3824 6.06042 20.3824 6.19914C20.3824 6.33786 20.3365 6.47276 20.2515 6.58321C20.1666 6.69365 20.0474 6.77355 19.9122 6.81069C19.7769 6.84783 19.6331 6.84016 19.5027 6.78886C19.3723 6.73755 19.2625 6.64543 19.1901 6.5266H15.0117C14.9537 6.62135 14.8716 6.69942 14.7736 6.75304C14.6755 6.80666 14.565 6.83396 14.4529 6.83221C14.3409 6.83046 14.2313 6.79973 14.135 6.74308C14.0387 6.68642 13.9592 6.60583 13.9042 6.50932C13.8492 6.4128 13.8208 6.30375 13.8218 6.19301C13.8228 6.08227 13.8531 5.97371 13.9097 5.87815C13.9663 5.78259 14.0473 5.70336 14.1446 5.64836C14.2418 5.59336 14.352 5.56405 14.464 5.56421Z" fill="#7F8485"/>
<path d="M13.9301 7.0741C14.0404 7.07449 14.1488 7.10299 14.2447 7.15685C14.3407 7.21071 14.421 7.28811 14.4778 7.38158H17.895C17.9674 7.26275 18.0772 7.17063 18.2076 7.11933C18.338 7.06803 18.4818 7.06035 18.6171 7.09749C18.7523 7.13463 18.8715 7.21453 18.9564 7.32497C19.0413 7.43542 19.0873 7.57031 19.0873 7.70903C19.0873 7.84775 19.0413 7.98266 18.9564 8.0931C18.8715 8.20354 18.7523 8.28344 18.6171 8.32058C18.4818 8.35772 18.338 8.35005 18.2076 8.29874C18.0772 8.24744 17.9674 8.15533 17.895 8.0365H14.4746C14.4025 8.15529 14.2929 8.2474 14.1627 8.29872C14.0325 8.35003 13.8889 8.3577 13.7538 8.32055C13.6188 8.2834 13.4998 8.20348 13.4151 8.09306C13.3305 7.98264 13.2848 7.84781 13.2852 7.70926C13.2858 7.5406 13.354 7.37905 13.4748 7.26C13.5957 7.14095 13.7594 7.0741 13.9301 7.0741Z" fill="#7F8485"/>
</g>
</svg>
