<svg xmlns="http://www.w3.org/2000/svg" width="576" height="320" viewBox="0 0 576 320">
  <path id="users-line-solid" d="M211.2,96a64,64,0,1,0-64,64,64,64,0,0,0,64-64ZM32,256a31.966,31.966,0,0,0,32,32h85.6a128.128,128.128,0,0,1,75.8-86.6A63.383,63.383,0,0,0,192,192H96A64.059,64.059,0,0,0,32,256Zm461.6,32H576a31.966,31.966,0,0,0,32-32,64.059,64.059,0,0,0-64-64H448a63.4,63.4,0,0,0-32.1,8.6A128.332,128.332,0,0,1,493.6,288ZM391.2,226.4a95.98,95.98,0,0,0-21.6-2.4h-96a98.48,98.48,0,0,0-24.5,3.1A96.133,96.133,0,0,0,177.5,320a31.966,31.966,0,0,0,32,32h224a31.966,31.966,0,0,0,32-32,94.367,94.367,0,0,0-5.5-32,96.116,96.116,0,0,0-68.9-61.6ZM563.2,96a64,64,0,1,0-64,64,64,64,0,0,0,64-64ZM321.6,192a80,80,0,1,0-80-80A80,80,0,0,0,321.6,192Z" transform="translate(-32 -32)"/>
</svg>
