<svg id="Layer_1" data-name="Layer 1" xmlns="http://www.w3.org/2000/svg" viewBox="0 0 1920 1080"><defs><style>.cls-1{fill:#96c8d6;}.cls-2{opacity:0.07;}.cls-3,.cls-4{stroke:#000;stroke-linecap:round;stroke-miterlimit:10;stroke-width:30px;}.cls-4{fill:none;}</style></defs><rect class="cls-1" width="1920" height="1080"/><g class="cls-2"><line class="cls-3" x1="800.97" y1="621.01" x2="666.35" y2="643.27"/><line class="cls-3" x1="829.07" y1="662.27" x2="698.19" y2="683.91"/><line class="cls-3" x1="849.74" y1="704.39" x2="728.58" y2="724.42"/><circle class="cls-4" cx="895.97" cy="595.63" r="29.69"/><circle cx="660.2" cy="644.29" r="18.37"/><circle cx="802.93" cy="620.69" r="18.37"/><circle cx="685.08" cy="686.08" r="18.37"/><circle cx="834.05" cy="661.45" r="18.37"/><circle cx="728.64" cy="724.78" r="18.37"/><circle cx="853.76" cy="704.1" r="18.37"/><line class="cls-3" x1="994.37" y1="590.78" x2="1128.99" y2="568.52"/><line class="cls-3" x1="980.23" y1="637.86" x2="1111.11" y2="616.22"/><line class="cls-3" x1="974.21" y1="684.39" x2="1095.37" y2="664.36"/><circle cx="1128.71" cy="566.82" r="18.37"/><circle cx="992.41" cy="591.1" r="18.37"/><circle cx="1115.91" cy="615.43" r="18.37"/><circle cx="975.25" cy="638.68" r="18.37"/><circle cx="1095.37" cy="664.36" r="18.37"/><circle cx="970.32" cy="685.41" r="18.37"/><line class="cls-3" x1="901.32" y1="632.29" x2="964.05" y2="1007.27"/><circle cx="964.69" cy="1011.06" r="22.22"/><path d="M921,987.44c-.68,3-6.55,23-9.52,22.37S909.57,988,910.24,985A5.51,5.51,0,1,1,921,987.44Z"/><path d="M999.69,975.57c1.59,2.59,13.62,19.71,16.21,18.12s-5.23-21.29-6.82-23.88a5.51,5.51,0,1,0-9.39,5.76Z"/><path d="M926.5,812.67c-1.5.3-3.09.6-4.52.93-.23.06-.35-.1-.58-.06.35,3.89.63,8.14,1.14,14.3-25.79-4-49.32-6.87-72.47-11.59-10.58-2.17-19-9-16.71-23.84,18.43,5.08,36.49,6.41,52-4.51,6.68-4.7,14-13.35,14.56-20.73.89-10.64-8.48-18.06-19-20.73-23-5.84-45.2-2.88-64.19,11.61-30.05,22.92-26.09,66.89,7.9,84.91,11.9,6.31,25.93,8.67,39.08,12.52,4.19,1.23,8.67,1.46,13.89,2.27-40.52,48.29-12.71,88.7,46.28,97.78-4.53,8.05-10.37,15.34-12.79,23.64-2.27,7.77-.91,16.59-1.15,25l5.08.84c5.31-16.15,9.53-33.25,31.17-37.38,1.74,7.68,3.36,14.68,4.92,21.69a16.2,16.2,0,0,0,8,11.12C948.47,937.78,937,875.31,926.5,812.67Zm-61-56.92a7.79,7.79,0,1,1-6.42,9A7.79,7.79,0,0,1,865.49,755.75Zm75.66,176.8c-18.73-2-34.09-5.16-46.76-15.92-9.85-8.35-10.72-20-.73-28.49,8.54-7.23,19.09-12.23,29.17-17.39,1.83-.94,8,1.68,8.3,3.4C934.79,892.79,937.68,911.57,941.15,932.55Z"/><path d="M1023.81,723.81c-22.64-7.61-44.6-3.26-64.51,9.67-9.11,5.92-15.59,16-11.33,25.75,3,6.79,12.63,12.64,20.46,14.94,18.21,5.34,34.88-1.73,50.69-12.47,6.93,13.31,1.18,22.49-8.14,27.94-20.4,11.93-41.75,22.21-64.89,34.3-1.49-6-2.6-10.11-3.51-13.9-.23,0-.3.22-.54.25-1.45.14-3.06.37-4.57.57,10.22,62.68,19.47,125.52,29.57,188.22a16.22,16.22,0,0,0,4-13.1c-.78-7.14-1.5-14.29-2.32-22.12,21.81-3.05,31.31,11.77,41.53,25.36l4.55-2.43c-2.92-7.84-4.48-16.63-9.12-23.25-5-7.08-12.84-12.11-19.72-18.27,52.93-27.58,66.26-74.79,12.35-107.47,4.67-2.45,8.85-4.11,12.42-6.62,11.21-7.88,23.73-14.63,33-24.44C1070.05,778.74,1059.65,735.84,1023.81,723.81Zm-45.32,29.06a7.8,7.8,0,1,1,6.42-9A7.8,7.8,0,0,1,978.49,752.87ZM1001.33,899c-8.53,14.27-22.05,22.23-39.15,30.12-3.46-21-6.77-39.69-9.31-58.51-.24-1.75,4.73-6.19,6.77-5.89,11.2,1.64,22.8,3,33.21,7.07C1005,876.55,1008,887.87,1001.33,899Z"/></g></svg>