<svg width="24" height="25" viewBox="0 0 24 25" fill="none" xmlns="http://www.w3.org/2000/svg">
<g id="award_star">
<mask id="mask0_837_4410" style="mask-type:alpha" maskUnits="userSpaceOnUse" x="0" y="0" width="24" height="25">
<rect id="Bounding box" y="0.857178" width="24" height="24" fill="#D9D9D9"/>
</mask>
<g mask="url(#mask0_837_4410)">
<path id="award_star_2" d="M12 15.1207L13.7902 16.2034C13.9544 16.3073 14.1176 16.3014 14.2797 16.1859C14.4419 16.0706 14.5013 15.9142 14.4578 15.7167L13.9865 13.6859L15.5693 12.3194C15.7244 12.1804 15.7703 12.018 15.7068 11.8322C15.6433 11.6463 15.5077 11.5451 15.3 11.5284L13.2288 11.3534L12.4115 9.43218C12.3355 9.25134 12.1985 9.16093 12.0005 9.16093C11.8027 9.16093 11.6653 9.25134 11.5885 9.43218L10.7713 11.3534L8.7 11.5284C8.49233 11.5451 8.35675 11.6463 8.29325 11.8322C8.22975 12.018 8.27558 12.1804 8.43075 12.3194L10.0135 13.6859L9.54225 15.7167C9.49875 15.9142 9.55808 16.0706 9.72025 16.1859C9.88242 16.3014 10.0456 16.3073 10.2098 16.2034L12 15.1207ZM8.858 20.3572H6.30775C5.81058 20.3572 5.385 20.1802 5.031 19.8262C4.677 19.4722 4.5 19.0466 4.5 18.5494V15.9992L2.64225 14.1224C2.47175 13.9418 2.34292 13.7424 2.25575 13.5244C2.16858 13.3063 2.125 13.0844 2.125 12.8589C2.125 12.6334 2.16858 12.411 2.25575 12.1917C2.34292 11.9725 2.47175 11.7726 2.64225 11.5919L4.5 9.71518V7.16493C4.5 6.66776 4.677 6.24218 5.031 5.88818C5.385 5.53418 5.81058 5.35718 6.30775 5.35718H8.858L10.7348 3.49943C10.9154 3.32893 11.1147 3.20009 11.3328 3.11293C11.5509 3.02576 11.7727 2.98218 11.9983 2.98218C12.2238 2.98218 12.4462 3.02576 12.6655 3.11293C12.8847 3.20009 13.0846 3.32893 13.2653 3.49943L15.142 5.35718H17.6923C18.1894 5.35718 18.615 5.53418 18.969 5.88818C19.323 6.24218 19.5 6.66776 19.5 7.16493V9.71518L21.3577 11.5919C21.5282 11.7726 21.6571 11.9719 21.7443 12.1899C21.8314 12.4081 21.875 12.6299 21.875 12.8554C21.875 13.0809 21.8314 13.3033 21.7443 13.5227C21.6571 13.7418 21.5282 13.9418 21.3577 14.1224L19.5 15.9992V18.5494C19.5 19.0466 19.323 19.4722 18.969 19.8262C18.615 20.1802 18.1894 20.3572 17.6923 20.3572H15.142L13.2653 22.2149C13.0846 22.3854 12.8853 22.5143 12.6673 22.6014C12.4491 22.6886 12.2273 22.7322 12.0017 22.7322C11.7762 22.7322 11.5538 22.6886 11.3345 22.6014C11.1153 22.5143 10.9154 22.3854 10.7348 22.2149L8.858 20.3572Z" fill="#7F8485"/>
</g>
</g>
</svg>
