<svg width="24" height="24" viewBox="0 0 24 24" fill="none" xmlns="http://www.w3.org/2000/svg">
<g id="encrypted">
<mask id="mask0_837_3769" style="mask-type:alpha" maskUnits="userSpaceOnUse" x="0" y="0" width="24" height="24">
<rect id="Bounding box" width="24" height="24" fill="#D9D9D9"/>
</mask>
<g mask="url(#mask0_837_3769)">
<path id="encrypted_2" d="M11.2828 14.75H12.7172C12.8529 14.75 12.9705 14.6935 13.07 14.5805C13.1695 14.4675 13.2026 14.3433 13.1693 14.2078L12.6943 11.5923C13.0083 11.4576 13.2611 11.2459 13.4528 10.9573C13.6444 10.6686 13.7402 10.3495 13.7402 10C13.7402 9.52133 13.5698 9.11158 13.2288 8.77075C12.8878 8.43008 12.4778 8.25975 11.999 8.25975C11.5202 8.25975 11.1106 8.43008 10.7702 8.77075C10.4299 9.11158 10.2598 9.52133 10.2598 10C10.2598 10.3495 10.3556 10.6686 10.5473 10.9573C10.7389 11.2459 10.9918 11.4576 11.3058 11.5923L10.8308 14.2078C10.7974 14.3433 10.8305 14.4675 10.93 14.5805C11.0295 14.6935 11.1471 14.75 11.2828 14.75ZM12 21.371C11.8962 21.371 11.7942 21.3627 11.6942 21.346C11.5942 21.3293 11.4974 21.3043 11.4037 21.271C9.29492 20.521 7.61708 19.1913 6.37025 17.2818C5.12342 15.3721 4.5 13.3115 4.5 11.1V6.59625C4.5 6.21642 4.60925 5.8745 4.82775 5.5705C5.04608 5.26667 5.3285 5.04642 5.675 4.90975L11.3672 2.78475C11.5814 2.70775 11.7923 2.66925 12 2.66925C12.2077 2.66925 12.4186 2.70775 12.6328 2.78475L18.325 4.90975C18.6715 5.04642 18.9539 5.26667 19.1723 5.5705C19.3908 5.8745 19.5 6.21642 19.5 6.59625V11.1C19.5 13.3115 18.8766 15.3721 17.6298 17.2818C16.3829 19.1913 14.7051 20.521 12.5963 21.271C12.5026 21.3043 12.4058 21.3293 12.3058 21.346C12.2058 21.3627 12.1038 21.371 12 21.371Z" fill="#7F8485"/>
</g>
</g>
</svg>
