<svg width="24" height="24" viewBox="0 0 24 24" fill="none" xmlns="http://www.w3.org/2000/svg">
<g id="id_card">
<mask id="mask0_837_3756" style="mask-type:alpha" maskUnits="userSpaceOnUse" x="0" y="0" width="24" height="24">
<rect id="Bounding box" width="24" height="24" fill="#D9D9D9"/>
</mask>
<g mask="url(#mask0_837_3756)">
<path id="id_card_2" d="M17.8652 12.7308C18.0777 12.7308 18.2559 12.6588 18.3997 12.515C18.5434 12.3712 18.6152 12.193 18.6152 11.9805C18.6152 11.7678 18.5434 11.5898 18.3997 11.4463C18.2559 11.3026 18.0777 11.2308 17.8652 11.2308H14.827C14.6145 11.2308 14.4363 11.3027 14.2925 11.4465C14.1488 11.5903 14.077 11.7685 14.077 11.981C14.077 12.1937 14.1488 12.3718 14.2925 12.5153C14.4363 12.6589 14.6145 12.7308 14.827 12.7308H17.8652ZM17.8652 9.84625C18.0777 9.84625 18.2559 9.77433 18.3997 9.6305C18.5434 9.48667 18.6152 9.30842 18.6152 9.09575C18.6152 8.88325 18.5434 8.70517 18.3997 8.5615C18.2559 8.418 18.0777 8.34625 17.8652 8.34625H14.827C14.6145 8.34625 14.4363 8.41817 14.2925 8.562C14.1488 8.70567 14.077 8.88383 14.077 9.0965C14.077 9.30917 14.1488 9.48725 14.2925 9.63075C14.4363 9.77442 14.6145 9.84625 14.827 9.84625H17.8652ZM9.0385 13.1538C8.46417 13.1538 7.96092 13.1999 7.52875 13.2923C7.09675 13.3846 6.71342 13.5314 6.37875 13.7327C6.07375 13.9109 5.84242 14.11 5.68475 14.33C5.52692 14.5502 5.448 14.7869 5.448 15.0402C5.448 15.2156 5.51583 15.3617 5.6515 15.4785C5.787 15.5953 5.95267 15.6538 6.1485 15.6538H11.9332C12.1291 15.6538 12.2939 15.5909 12.4277 15.4653C12.5617 15.3398 12.6287 15.1847 12.6287 15C12.6287 14.7745 12.5515 14.5556 12.397 14.3433C12.2425 14.1311 12.0095 13.9276 11.698 13.7327C11.3635 13.5314 10.9802 13.3846 10.548 13.2923C10.116 13.1999 9.61283 13.1538 9.0385 13.1538ZM9.0385 11.8463C9.52433 11.8463 9.93742 11.676 10.2777 11.3355C10.6182 10.9952 10.7885 10.5821 10.7885 10.0962C10.7885 9.61025 10.6182 9.19708 10.2777 8.85675C9.93742 8.51642 9.52433 8.34625 9.0385 8.34625C8.55267 8.34625 8.1395 8.51642 7.799 8.85675C7.45867 9.19708 7.2885 9.61025 7.2885 10.0962C7.2885 10.5821 7.45867 10.9952 7.799 11.3355C8.1395 11.676 8.55267 11.8463 9.0385 11.8463ZM4.30775 19.5C3.80258 19.5 3.375 19.325 3.025 18.975C2.675 18.625 2.5 18.1974 2.5 17.6923V6.30775C2.5 5.80258 2.675 5.375 3.025 5.025C3.375 4.675 3.80258 4.5 4.30775 4.5H19.6923C20.1974 4.5 20.625 4.675 20.975 5.025C21.325 5.375 21.5 5.80258 21.5 6.30775V17.6923C21.5 18.1974 21.325 18.625 20.975 18.975C20.625 19.325 20.1974 19.5 19.6923 19.5H4.30775Z" fill="#7F8485"/>
</g>
</g>
</svg>
