<svg width="24" height="25" viewBox="0 0 24 25" fill="none" xmlns="http://www.w3.org/2000/svg">
<g id="group">
<mask id="mask0_837_5313" style="mask-type:alpha" maskUnits="userSpaceOnUse" x="0" y="0" width="24" height="25">
<rect id="Bounding box" y="0.714233" width="24" height="24" fill="#D9D9D9"/>
</mask>
<g mask="url(#mask0_837_5313)">
<path id="group_2" d="M1.79834 17.7987C1.79834 17.2834 1.93134 16.8235 2.19734 16.419C2.46334 16.0145 2.81859 15.6998 3.26309 15.475C4.21342 15.0102 5.16901 14.6517 6.12984 14.3997C7.09084 14.1479 8.14692 14.022 9.29809 14.022C10.4494 14.022 11.5055 14.1479 12.4663 14.3997C13.4273 14.6517 14.383 15.0102 15.3333 15.475C15.7778 15.6998 16.1331 16.0145 16.3991 16.419C16.6651 16.8235 16.7981 17.2834 16.7981 17.7987V18.5027C16.7981 18.9052 16.6503 19.2591 16.3548 19.5642C16.0593 19.8694 15.7007 20.022 15.2788 20.022H3.31734C2.89567 20.022 2.53709 19.8742 2.24159 19.5787C1.94609 19.2831 1.79834 18.9244 1.79834 18.5027V17.7987ZM18.4116 20.022C18.5373 19.7925 18.6331 19.5482 18.6991 19.2892C18.7651 19.0302 18.7981 18.7681 18.7981 18.5027V17.6757C18.7981 17.0194 18.6374 16.3938 18.3161 15.799C17.9946 15.2043 17.5386 14.6941 16.9481 14.2682C17.6186 14.3682 18.2552 14.523 18.8578 14.7325C19.4603 14.9422 20.0353 15.1899 20.5828 15.4757C21.0995 15.7514 21.4985 16.0763 21.7798 16.4505C22.0612 16.8245 22.2018 17.2329 22.2018 17.6757V18.5027C22.2018 18.9244 22.0541 19.2831 21.7586 19.5787C21.4631 19.8742 21.1045 20.022 20.6828 20.022H18.4116ZM9.29809 12.4065C8.33559 12.4065 7.51167 12.0638 6.82634 11.3785C6.14101 10.693 5.79834 9.86899 5.79834 8.90649C5.79834 7.94399 6.14101 7.12008 6.82634 6.43474C7.51167 5.74924 8.33559 5.40649 9.29809 5.40649C10.2606 5.40649 11.0846 5.74924 11.7701 6.43474C12.4554 7.12008 12.7981 7.94399 12.7981 8.90649C12.7981 9.86899 12.4554 10.693 11.7701 11.3785C11.0846 12.0638 10.2606 12.4065 9.29809 12.4065ZM17.9326 8.90649C17.9326 9.86899 17.5899 10.693 16.9046 11.3785C16.2193 12.0638 15.3953 12.4065 14.4328 12.4065C14.32 12.4065 14.1764 12.3937 14.0021 12.368C13.8276 12.3423 13.684 12.3142 13.5713 12.2835C13.9657 11.8093 14.2688 11.2833 14.4806 10.7055C14.6923 10.1277 14.7981 9.52766 14.7981 8.90549C14.7981 8.28316 14.6901 7.68541 14.4741 7.11224C14.2581 6.53924 13.9572 6.01174 13.5713 5.52974C13.7148 5.47841 13.8584 5.44508 14.0021 5.42974C14.1456 5.41424 14.2892 5.40649 14.4328 5.40649C15.3953 5.40649 16.2193 5.74924 16.9046 6.43474C17.5899 7.12008 17.9326 7.94399 17.9326 8.90649Z" fill="#7F8485"/>
</g>
</g>
</svg>
