<svg xmlns="http://www.w3.org/2000/svg" version="1.0" preserveAspectRatio="xMidYMid meet" viewBox="527 198.89 730 37.11">

<g transform="translate(0.000000,867.000000) scale(0.100000,-0.100000)" fill="#000000" stroke="none">
<path d="M5270 6535 c0 -138 1 -145 20 -145 18 0 20 7 20 55 l0 55 55 0 c68 0 100 14 116 52 17 41 2 99 -31 115 -14 7 -60 13 -102 13 l-78 0 0 -145z m164 89 c9 -8 16 -24 16 -34 0 -34 -28 -50 -86 -50 l-54 0 0 50 0 50 54 0 c36 0 60 -5 70 -16z"/>
<path d="M5530 6535 c0 -138 1 -145 20 -145 19 0 20 7 20 145 0 138 -1 145 -20 145 -19 0 -20 -7 -20 -145z"/>
<path d="M7330 6630 c0 -47 -1 -50 -19 -40 -31 16 -58 12 -88 -14 -25 -21 -28 -31 -28 -81 0 -50 3 -60 28 -81 30 -26 57 -30 88 -14 13 7 19 7 19 0 0 -5 9 -10 20 -10 19 0 20 7 20 145 0 138 -1 145 -20 145 -17 0 -20 -7 -20 -50z m-16 -82 c32 -45 9 -128 -34 -128 -25 0 -50 37 -50 75 0 38 25 75 50 75 10 0 26 -10 34 -22z"/>
<path d="M7556 6664 c-9 -8 -16 -26 -16 -40 0 -15 -6 -24 -15 -24 -8 0 -15 -7 -15 -15 0 -8 7 -15 15 -15 12 0 15 -17 15 -90 0 -83 1 -90 20 -90 19 0 20 7 20 90 0 83 1 90 20 90 11 0 20 7 20 15 0 9 -9 15 -21 15 -30 0 -22 44 9 48 12 2 22 10 22 18 0 19 -54 18 -74 -2z"/>
<path d="M8220 6630 c0 -47 -1 -50 -19 -40 -31 16 -58 12 -88 -14 -25 -21 -28 -31 -28 -81 0 -50 3 -60 28 -81 30 -26 57 -30 88 -14 13 7 19 7 19 0 0 -5 9 -10 20 -10 19 0 20 7 20 145 0 138 -1 145 -20 145 -17 0 -20 -7 -20 -50z m-16 -82 c32 -45 9 -128 -34 -128 -25 0 -50 37 -50 75 0 38 25 75 50 75 10 0 26 -10 34 -22z"/>
<path d="M8300 6535 c0 -138 1 -145 20 -145 11 0 20 5 20 10 0 7 6 7 19 0 31 -16 58 -12 87 13 20 18 28 35 32 75 4 47 2 54 -26 82 -32 31 -60 37 -93 20 -18 -10 -19 -7 -19 40 0 43 -3 50 -20 50 -19 0 -20 -7 -20 -145z m124 13 c31 -43 10 -128 -31 -128 -9 0 -25 7 -35 17 -37 33 -13 133 32 133 10 0 26 -10 34 -22z"/>
<path d="M8950 6535 c0 -138 1 -145 20 -145 17 0 20 7 20 50 0 28 4 50 9 50 5 0 23 -22 41 -50 24 -38 38 -50 56 -50 24 0 24 1 -16 59 -22 33 -40 63 -40 68 0 4 17 24 37 45 35 36 36 38 14 38 -13 0 -40 -14 -60 -32 l-36 -32 -3 72 c-3 64 -5 72 -22 72 -19 0 -20 -8 -20 -145z"/>
<path d="M10050 6630 c0 -47 -1 -50 -19 -40 -31 16 -58 12 -88 -14 -25 -21 -28 -31 -28 -81 0 -50 3 -60 28 -81 30 -26 57 -30 88 -14 13 7 19 7 19 0 0 -5 9 -10 20 -10 19 0 20 7 20 145 0 138 -1 145 -20 145 -17 0 -20 -7 -20 -50z m-16 -82 c32 -45 9 -128 -34 -128 -25 0 -50 37 -50 75 0 38 25 75 50 75 10 0 26 -10 34 -22z"/>
<path d="M10470 6660 c0 -13 7 -20 20 -20 13 0 20 7 20 20 0 13 -7 20 -20 20 -13 0 -20 -7 -20 -20z"/>
<path d="M10859 6657 c-33 -18 -51 -37 -71 -76 -35 -66 -36 -121 -5 -181 53 -105 234 -122 322 -30 37 38 15 40 -51 5 -57 -31 -131 -33 -190 -6 -101 46 -96 204 9 252 133 60 266 -46 198 -158 -19 -30 -56 -51 -68 -39 -5 4 14 96 33 159 4 12 0 17 -14 17 -11 0 -22 -5 -24 -10 -2 -7 -14 -6 -35 2 -59 22 -111 -23 -120 -105 -4 -33 0 -48 17 -69 24 -31 60 -37 81 -12 11 14 13 14 21 0 14 -24 63 -19 98 10 152 128 -21 336 -201 241z m109 -109 c29 -29 -6 -118 -47 -118 -43 0 -55 59 -20 104 22 28 48 33 67 14z"/>
<path d="M11700 6630 c0 -47 -1 -50 -19 -40 -31 16 -58 12 -88 -14 -25 -21 -28 -31 -28 -81 0 -50 3 -60 28 -81 30 -26 57 -30 88 -14 13 7 19 7 19 0 0 -5 9 -10 20 -10 19 0 20 7 20 145 0 138 -1 145 -20 145 -17 0 -20 -7 -20 -50z m-16 -82 c32 -45 9 -128 -34 -128 -25 0 -50 37 -50 75 0 38 25 75 50 75 10 0 26 -10 34 -22z"/>
<path d="M12530 6660 c0 -13 7 -20 20 -20 13 0 20 7 20 20 0 13 -7 20 -20 20 -13 0 -20 -7 -20 -20z"/>
<path d="M9278 6659 c-10 -6 -18 -21 -18 -34 0 -16 -6 -25 -15 -25 -8 0 -15 -7 -15 -15 0 -8 7 -15 15 -15 12 0 15 -15 15 -78 0 -86 8 -102 52 -102 33 0 39 25 8 33 -18 5 -20 14 -20 76 0 64 2 71 20 71 11 0 20 7 20 15 0 8 -9 15 -19 15 -15 0 -21 8 -23 34 -3 30 -5 33 -20 25z"/>
<path d="M5644 6577 c-20 -18 -28 -35 -32 -75 -4 -47 -2 -54 26 -82 41 -40 91 -42 130 -3 24 24 25 28 9 31 -10 2 -26 -3 -36 -12 -25 -23 -57 -20 -75 6 -29 41 -21 48 54 48 69 0 70 1 70 26 0 15 -12 38 -29 55 -36 36 -79 38 -117 6z m90 -23 c26 -26 18 -34 -34 -34 -27 0 -50 4 -50 9 0 16 31 41 50 41 10 0 26 -7 34 -16z"/>
<path d="M5856 6579 c-14 -11 -26 -25 -26 -30 0 -15 36 -10 50 6 20 24 80 16 80 -10 0 -14 -11 -19 -66 -30 -67 -13 -86 -84 -32 -115 23 -12 33 -13 60 -2 21 8 36 8 42 2 6 -6 17 -10 26 -10 13 0 15 14 12 90 -3 79 -6 92 -25 105 -31 22 -89 19 -121 -6z m88 -140 c-22 -25 -67 -22 -72 5 -5 24 9 37 50 45 28 6 34 4 36 -12 2 -10 -4 -27 -14 -38z"/>
<path d="M6061 6581 c-41 -41 -19 -80 57 -101 45 -12 65 -36 41 -51 -24 -15 -58 -10 -71 11 -13 21 -48 28 -48 10 0 -24 50 -60 83 -60 42 0 87 33 87 65 0 29 -12 38 -78 60 -39 12 -52 21 -50 33 4 22 51 27 68 8 13 -17 50 -22 50 -8 0 24 -30 44 -72 49 -37 4 -49 2 -67 -16z"/>
<path d="M6274 6577 c-20 -18 -28 -35 -32 -75 -4 -47 -2 -54 26 -82 41 -40 91 -42 130 -3 24 24 25 28 9 31 -10 2 -26 -3 -36 -12 -25 -23 -57 -20 -75 6 -29 41 -21 48 54 48 69 0 70 1 70 26 0 15 -12 38 -29 55 -36 36 -79 38 -117 6z m90 -23 c26 -26 18 -34 -34 -34 -27 0 -50 4 -50 9 0 16 31 41 50 41 10 0 26 -7 34 -16z"/>
<path d="M6581 6581 c-41 -41 -19 -80 57 -101 45 -12 65 -36 41 -51 -24 -15 -58 -10 -71 11 -13 21 -48 28 -48 10 0 -24 50 -60 83 -60 42 0 87 33 87 65 0 29 -12 38 -78 60 -39 12 -52 21 -50 33 4 22 51 27 68 8 13 -17 50 -22 50 -8 0 24 -30 44 -72 49 -37 4 -49 2 -67 -16z"/>
<path d="M6794 6577 c-20 -18 -28 -35 -32 -75 -4 -47 -2 -54 26 -82 41 -40 91 -42 130 -3 24 24 25 28 9 31 -10 2 -26 -3 -36 -12 -25 -23 -57 -20 -75 6 -29 41 -21 48 54 48 69 0 70 1 70 26 0 15 -12 38 -29 55 -36 36 -79 38 -117 6z m90 -23 c26 -26 18 -34 -34 -34 -27 0 -50 4 -50 9 0 16 31 41 50 41 10 0 26 -7 34 -16z"/>
<path d="M6980 6495 c0 -98 1 -105 20 -105 18 0 20 7 20 74 0 78 13 106 49 106 32 0 41 -22 41 -102 0 -71 2 -78 20 -78 18 0 20 7 20 85 0 72 -3 88 -20 105 -22 22 -60 26 -91 10 -13 -7 -19 -7 -19 0 0 5 -9 10 -20 10 -19 0 -20 -7 -20 -105z"/>
<path d="M7674 6577 c-20 -18 -28 -35 -32 -75 -4 -47 -2 -54 26 -82 41 -40 91 -42 130 -3 24 24 25 28 9 31 -10 2 -26 -3 -36 -12 -25 -23 -57 -20 -75 6 -29 41 -21 48 54 48 69 0 70 1 70 26 0 15 -12 38 -29 55 -36 36 -79 38 -117 6z m90 -23 c26 -26 18 -34 -34 -34 -27 0 -50 4 -50 9 0 16 31 41 50 41 10 0 26 -7 34 -16z"/>
<path d="M7894 6577 c-20 -18 -28 -35 -32 -75 -4 -47 -2 -54 26 -82 41 -40 91 -42 130 -3 24 24 25 28 9 31 -10 2 -26 -3 -36 -12 -25 -23 -57 -20 -75 6 -29 41 -21 48 54 48 69 0 70 1 70 26 0 15 -12 38 -29 55 -36 36 -79 38 -117 6z m90 -23 c26 -26 18 -34 -34 -34 -27 0 -50 4 -50 9 0 16 31 41 50 41 10 0 26 -7 34 -16z"/>
<path d="M8546 6579 c-14 -11 -26 -25 -26 -30 0 -15 36 -10 50 6 20 24 80 16 80 -10 0 -14 -11 -19 -66 -30 -67 -13 -86 -84 -32 -115 23 -12 33 -13 60 -2 21 8 36 8 42 2 6 -6 17 -10 26 -10 13 0 15 14 12 90 -3 79 -6 92 -25 105 -31 22 -89 19 -121 -6z m88 -140 c-22 -25 -67 -22 -72 5 -5 24 9 37 50 45 28 6 34 4 36 -12 2 -10 -4 -27 -14 -38z"/>
<path d="M8774 6577 c-20 -18 -28 -35 -32 -75 -4 -47 -2 -54 26 -82 45 -45 101 -40 127 11 19 36 19 39 -3 39 -11 0 -24 -11 -30 -25 -23 -50 -82 -17 -82 46 0 66 54 104 82 59 13 -21 48 -28 48 -10 0 6 -11 22 -25 35 -31 32 -75 32 -111 2z"/>
<path d="M9389 6571 c-24 -24 -29 -38 -29 -76 0 -38 5 -52 29 -76 20 -20 39 -29 61 -29 22 0 41 9 61 29 24 24 29 38 29 76 0 38 -5 52 -29 76 -20 20 -39 29 -61 29 -22 0 -41 -9 -61 -29z m95 -23 c32 -45 9 -128 -34 -128 -25 0 -50 37 -50 75 0 38 25 75 50 75 10 0 26 -10 34 -22z"/>
<path d="M9716 6579 c-14 -11 -26 -25 -26 -30 0 -15 36 -10 50 6 20 24 80 16 80 -10 0 -14 -11 -19 -66 -30 -67 -13 -86 -84 -32 -115 23 -12 33 -13 60 -2 21 8 36 8 42 2 6 -6 17 -10 26 -10 13 0 15 14 12 90 -3 79 -6 92 -25 105 -31 22 -89 19 -121 -6z m88 -140 c-22 -25 -67 -22 -72 5 -5 24 9 37 50 45 28 6 34 4 36 -12 2 -10 -4 -27 -14 -38z"/>
<path d="M10140 6495 c0 -98 1 -105 20 -105 18 0 20 7 20 74 0 79 13 106 50 106 24 0 30 -19 30 -106 0 -67 2 -74 20 -74 18 0 20 7 20 74 0 75 13 106 44 106 27 0 36 -26 36 -102 0 -71 2 -78 20 -78 18 0 20 7 20 83 0 59 -5 89 -16 105 -18 26 -59 29 -91 7 -18 -13 -22 -13 -33 0 -17 20 -59 19 -82 -2 -17 -15 -18 -15 -18 0 0 10 -8 17 -20 17 -19 0 -20 -7 -20 -105z"/>
<path d="M10470 6495 c0 -98 1 -105 20 -105 19 0 20 7 20 105 0 98 -1 105 -20 105 -19 0 -20 -7 -20 -105z"/>
<path d="M10550 6495 c0 -98 1 -105 20 -105 18 0 20 7 20 74 0 78 13 106 49 106 32 0 41 -22 41 -102 0 -71 2 -78 20 -78 18 0 20 7 20 85 0 72 -3 88 -20 105 -22 22 -60 26 -91 10 -13 -7 -19 -7 -19 0 0 5 -9 10 -20 10 -19 0 -20 -7 -20 -105z"/>
<path d="M11204 6577 c-20 -18 -28 -35 -32 -75 -4 -47 -2 -54 26 -82 45 -45 101 -40 127 11 19 36 19 39 -3 39 -11 0 -24 -11 -30 -25 -23 -50 -82 -17 -82 46 0 66 54 104 82 59 13 -21 48 -28 48 -10 0 6 -11 22 -25 35 -31 32 -75 32 -111 2z"/>
<path d="M11376 6533 c53 -139 56 -150 44 -172 -6 -12 -17 -21 -25 -21 -8 0 -15 -7 -15 -15 0 -24 47 -18 65 9 12 18 95 248 95 263 0 2 -9 3 -20 3 -15 0 -24 -15 -43 -76 l-24 -76 -30 74 c-22 56 -34 74 -51 76 l-22 3 26 -68z"/>
<path d="M11809 6571 c-24 -24 -29 -38 -29 -76 0 -38 5 -52 29 -76 20 -20 39 -29 61 -29 22 0 41 9 61 29 24 24 29 38 29 76 0 38 -5 52 -29 76 -20 20 -39 29 -61 29 -22 0 -41 -9 -61 -29z m95 -23 c32 -45 9 -128 -34 -128 -25 0 -50 37 -50 75 0 38 25 75 50 75 10 0 26 -10 34 -22z"/>
<path d="M12034 6577 c-20 -18 -28 -35 -32 -75 -4 -47 -2 -54 26 -82 45 -45 101 -40 127 11 19 36 19 39 -3 39 -11 0 -24 -11 -30 -25 -23 -50 -82 -17 -82 46 0 66 54 104 82 59 13 -21 48 -28 48 -10 0 6 -11 22 -25 35 -31 32 -75 32 -111 2z"/>
<path d="M12336 6579 c-14 -11 -26 -25 -26 -30 0 -15 36 -10 50 6 20 24 80 16 80 -10 0 -14 -11 -19 -66 -30 -67 -13 -86 -84 -32 -115 23 -12 33 -13 60 -2 21 8 36 8 42 2 6 -6 17 -10 26 -10 13 0 15 14 12 90 -3 79 -6 92 -25 105 -31 22 -89 19 -121 -6z m88 -140 c-22 -25 -67 -22 -72 5 -5 24 9 37 50 45 28 6 34 4 36 -12 2 -10 -4 -27 -14 -38z"/>
<path d="M12530 6495 c0 -98 1 -105 20 -105 19 0 20 7 20 105 0 98 -1 105 -20 105 -19 0 -20 -7 -20 -105z"/>
<path d="M12220 6410 c0 -13 7 -20 20 -20 13 0 20 7 20 20 0 13 -7 20 -20 20 -13 0 -20 -7 -20 -20z"/>
</g>
</svg>