<?xml version="1.0" encoding="utf-8"?>
<!-- Generator: Adobe Illustrator 27.0.1, SVG Export Plug-In . SVG Version: 6.00 Build 0)  -->
<svg version="1.1" xmlns="http://www.w3.org/2000/svg" xmlns:xlink="http://www.w3.org/1999/xlink" x="0px" y="0px"
	 viewBox="0 0 751 750.8" style="enable-background:new 0 0 751 750.8;" xml:space="preserve">
<style type="text/css">
	.st0{display:none;}
	.st1{fill:#047A9B;}
	.st2{fill:#FFFFFF;}
</style>
<g id="Layer_2" class="st0">
	
		<image style="display:inline;overflow:visible;" width="2596" height="1298" xlink:href="179852208C50CE78.png"  transform="matrix(0.1347 0 0 0.1347 0.5468 144.8737)">
	</image>
</g>
<g id="Layer_3">
</g>
<g id="Layer_1">
	<circle class="st1" cx="375.6" cy="375.4" r="375.4"/>
	<g>
		<path class="st2" d="M500.6,326.4c-27.2-21.5-68.7-9.8-86.5,6.3c-18.8,16.9-17.3,46.2,1,54c17,7.2,43.9-0.3,53.2-35.3
			c17.6,9.1,20.2,38.2,2.7,59.3c-28,33.7-52.1,37.8-80,45.6c-1.3-0.2-2.5-0.3-3.8-0.5V223.4c17.9-5,31.2-21.5,31.2-41
			c0-23.5-19.1-42.6-42.6-42.6c-23.5,0-42.6,19.1-42.6,42.6c0,19.3,13,35.7,30.6,40.9v232.5c-1.4,0.1-2.8,0.3-4.2,0.5
			c-27.8-7.8-52-11.9-80-45.6c-17.5-21.1-14.9-50.3,2.7-59.3c9.3,35,36.2,42.5,53.2,35.3c18.3-7.7,19.8-37,1-54
			c-17.8-16.1-59.3-27.8-86.5-6.3c-27.2,21.5-32.2,71.1-0.5,109.3c18.6,22.4,40.5,35.1,59,43.8c-15.1,13.6-24.5,31.7-24.5,51.7
			c0,27.7,18,52,44.6,65.3c-5.7,6.4-9.5,13.5-11.5,19.9c-2.8,9-2.7,16.6-1.3,21.5c1.4,5,3.5,7.4,5.6,7.4c4.6,0,7.6-9.4,15.6-19.1
			c5.8-7.4,15.2-14.7,26.8-17.8v25.1c-7.5,4.1-12.7,12-12.7,21.1c0,13.4,10.8,24.2,24.2,24.2c13.4,0,24.2-10.8,24.2-24.2
			c0-9-5-16.7-12.2-20.9v-25.3c11.6,3.1,21,10.4,26.8,17.8c8,9.7,11,19.1,15.6,19.1c2.1,0,4.2-2.4,5.6-7.4
			c1.3-4.9,1.5-12.5-1.3-21.5c-2-6.5-5.8-13.5-11.6-20c26.5-13.3,44.4-37.5,44.4-65.1c0-20-9.4-38.1-24.5-51.7
			c18.5-8.7,40.4-21.4,59-43.8C532.8,397.5,527.8,347.8,500.6,326.4z M427.7,353.5c-4.5,0-8.1-3.6-8.1-8.1c0-4.5,3.6-8.1,8.1-8.1
			s8.1,3.6,8.1,8.1C435.7,349.9,432.1,353.5,427.7,353.5z M323,337.4c4.5,0,8.1,3.6,8.1,8.1c0,4.5-3.6,8.1-8.1,8.1s-8.1-3.6-8.1-8.1
			C314.9,341,318.5,337.4,323,337.4z M323.2,531.1c0-17.2,17.7-32.1,40.7-36v71.9C340.9,563.3,323.2,548.4,323.2,531.1z
			 M375.8,200.9c-10.2,0-18.6-8.3-18.6-18.6c0-10.2,8.3-18.6,18.6-18.6c10.2,0,18.6,8.3,18.6,18.6
			C394.4,192.6,386.1,200.9,375.8,200.9z M387.3,567v-71.8c22.8,3.9,40.3,18.8,40.3,35.9S410.1,563.1,387.3,567z"/>
		<path class="st2" d="M279.2,171.6c-6.9,0-12.8,3.7-16.2,9.2H144.6c-3.3-5.5-9.3-9.2-16.2-9.2c-10.5,0-19,8.5-19,19
			c0,10.5,8.5,19,19,19c6.9,0,12.8-3.7,16.2-9.2H263c3.3,5.5,9.3,9.2,16.2,9.2c10.5,0,19-8.5,19-19
			C298.2,180.1,289.7,171.6,279.2,171.6z"/>
		<path class="st2" d="M302.7,216.8c-6.9,0-12.8,3.7-16.2,9.2H162.9c-3.3-5.5-9.3-9.2-16.2-9.2c-10.5,0-19,8.5-19,19
			c0,10.5,8.5,19,19,19c6.9,0,12.8-3.7,16.2-9.2h123.6c3.3,5.5,9.3,9.2,16.2,9.2c10.5,0,19-8.5,19-19
			C321.7,225.3,313.2,216.8,302.7,216.8z"/>
		<path class="st2" d="M318.5,262c-6.9,0-12.8,3.7-16.2,9.2H201.3c-3.3-5.5-9.3-9.2-16.2-9.2c-10.5,0-19,8.5-19,19
			c0,10.5,8.5,19,19,19c6.9,0,12.8-3.7,16.2-9.2h101.1c3.3,5.5,9.3,9.2,16.2,9.2c10.5,0,19-8.5,19-19
			C337.6,270.5,329.1,262,318.5,262z"/>
		<path class="st2" d="M472,171.6c6.9,0,12.8,3.7,16.2,9.2h118.4c3.3-5.5,9.3-9.2,16.2-9.2c10.5,0,19,8.5,19,19c0,10.5-8.5,19-19,19
			c-6.9,0-12.8-3.7-16.2-9.2H488.2c-3.3,5.5-9.3,9.2-16.2,9.2c-10.5,0-19-8.5-19-19C453,180.1,461.5,171.6,472,171.6z"/>
		<path class="st2" d="M448.5,216.8c6.9,0,12.8,3.7,16.2,9.2h123.6c3.3-5.5,9.3-9.2,16.2-9.2c10.5,0,19,8.5,19,19
			c0,10.5-8.5,19-19,19c-6.9,0-12.8-3.7-16.2-9.2H464.7c-3.3,5.5-9.3,9.2-16.2,9.2c-10.5,0-19-8.5-19-19
			C429.5,225.3,438,216.8,448.5,216.8z"/>
		<path class="st2" d="M432.7,262c6.9,0,12.8,3.7,16.2,9.2h101.1c3.3-5.5,9.3-9.2,16.2-9.2c10.5,0,19,8.5,19,19c0,10.5-8.5,19-19,19
			c-6.9,0-12.8-3.7-16.2-9.2H448.8c-3.3,5.5-9.3,9.2-16.2,9.2c-10.5,0-19-8.5-19-19C413.6,270.5,422.2,262,432.7,262z"/>
	</g>
</g>
</svg>
