<?xml version="1.0" encoding="utf-8"?>
<!-- Generator: Adobe Illustrator 27.0.1, SVG Export Plug-In . SVG Version: 6.00 Build 0)  -->
<svg version="1.1" xmlns="http://www.w3.org/2000/svg" xmlns:xlink="http://www.w3.org/1999/xlink" x="0px" y="0px"
	 viewBox="0 0 751 750.8" style="enable-background:new 0 0 751 750.8;" xml:space="preserve">
<style type="text/css">
	.st0{display:none;}
	.st1{fill:#231F20;}
</style>
<g id="Layer_2" class="st0">
	
		<image style="display:inline;overflow:visible;" width="2596" height="1298" xlink:href="5316EB48BB1ED30D.png"  transform="matrix(0.1347 0 0 0.1347 0.5468 144.8737)">
	</image>
</g>
<g id="Layer_3">
</g>
<g id="Layer_1">
	<g>
		<path class="st1" d="M546.9,260.2c-37.3-29.4-94.2-13.4-118.6,8.6c-25.7,23.2-23.7,63.4,1.4,74c23.3,9.8,60.2-0.5,73-48.4
			c24.1,12.4,27.7,52.4,3.7,81.3C468,422,435,427.6,396.8,438.3c-1.7-0.3-3.5-0.5-5.2-0.7V119.1c24.6-6.9,42.7-29.5,42.7-56.2
			c0-32.2-26.2-58.4-58.4-58.4c-32.2,0-58.4,26.2-58.4,58.4c0,26.5,17.8,48.9,42,56v318.6c-1.9,0.2-3.9,0.5-5.8,0.7
			c-38.1-10.7-71.2-16.3-109.6-62.5c-24-28.9-20.4-68.9,3.7-81.3c12.8,47.9,49.7,58.2,73,48.4c25.1-10.6,27.1-50.8,1.4-74
			c-24.4-22-81.3-38.1-118.6-8.6c-37.3,29.4-44.2,97.5-0.8,149.8c25.5,30.7,55.5,48.2,80.9,60c-20.8,18.6-33.6,43.5-33.6,70.8
			c0,38,24.6,71.2,61.2,89.4c-7.8,8.8-13,18.4-15.7,27.2c-3.9,12.3-3.6,22.7-1.8,29.5c1.9,6.8,4.8,10.2,7.7,10.1
			c6.3,0,10.4-12.9,21.4-26.1c7.9-10.2,20.8-20.2,36.7-24.4V681c-10.3,5.6-17.4,16.4-17.4,29c0,18.3,14.8,33.1,33.1,33.1
			c18.3,0,33.1-14.8,33.1-33.1c0-12.3-6.8-22.9-16.7-28.6v-34.7c15.9,4.2,28.8,14.2,36.7,24.4c11,13.3,15.1,26.1,21.4,26.1
			c2.9,0,5.8-3.3,7.7-10.1c1.8-6.8,2-17.2-1.8-29.5c-2.7-8.9-8-18.5-15.9-27.4c36.3-18.3,60.8-51.4,60.8-89.2
			c0-27.4-12.8-52.2-33.6-70.8c25.4-11.9,55.4-29.3,80.8-60C591,357.7,584.2,289.7,546.9,260.2z M446.9,297.4
			c-6.1,0-11.1-4.9-11.1-11.1c0-6.1,4.9-11.1,11.1-11.1c6.1,0,11.1,4.9,11.1,11.1C458,292.5,453,297.4,446.9,297.4z M303.5,275.3
			c6.1,0,11.1,4.9,11.1,11.1c0,6.1-4.9,11.1-11.1,11.1c-6.1,0-11.1-4.9-11.1-11.1C292.5,280.3,297.4,275.3,303.5,275.3z
			 M303.7,540.9c0-23.6,24.3-44,55.7-49.3v98.6C328,584.9,303.7,564.5,303.7,540.9z M375.9,88.4c-14,0-25.5-11.4-25.5-25.5
			c0-14,11.4-25.5,25.5-25.5c14,0,25.5,11.4,25.5,25.5C401.4,76.9,389.9,88.4,375.9,88.4z M391.6,590v-98.4
			c31.2,5.4,55.2,25.7,55.2,49.2S422.8,584.6,391.6,590z"/>
		<path class="st1" d="M243.5,48.2c-9.4,0-17.6,5.1-22.1,12.6H59c-4.6-7.5-12.7-12.6-22.1-12.6c-14.4,0-26.1,11.7-26.1,26.1
			c0,14.4,11.7,26.1,26.1,26.1c9.4,0,17.6-5.1,22.1-12.6h162.3c4.6,7.5,12.7,12.6,22.1,12.6c14.4,0,26.1-11.7,26.1-26.1
			C269.6,59.8,257.9,48.2,243.5,48.2z"/>
		<path class="st1" d="M275.7,110.1c-9.4,0-17.6,5.1-22.1,12.6H84.1c-4.6-7.5-12.7-12.6-22.1-12.6c-14.4,0-26.1,11.7-26.1,26.1
			c0,14.4,11.7,26.1,26.1,26.1c9.4,0,17.6-5.1,22.1-12.6h169.4c4.6,7.5,12.7,12.6,22.1,12.6c14.4,0,26.1-11.7,26.1-26.1
			C301.8,121.8,290.1,110.1,275.7,110.1z"/>
		<path class="st1" d="M297.4,172.1c-9.4,0-17.6,5.1-22.1,12.6H136.7c-4.6-7.5-12.7-12.6-22.1-12.6c-14.4,0-26.1,11.7-26.1,26.1
			c0,14.4,11.7,26.1,26.1,26.1c9.4,0,17.6-5.1,22.1-12.6h138.6c4.6,7.5,12.7,12.6,22.1,12.6c14.4,0,26.1-11.7,26.1-26.1
			C323.5,183.7,311.8,172.1,297.4,172.1z"/>
		<path class="st1" d="M507.8,48.2c9.4,0,17.6,5.1,22.1,12.6h162.3c4.6-7.5,12.7-12.6,22.1-12.6c14.4,0,26.1,11.7,26.1,26.1
			c0,14.4-11.7,26.1-26.1,26.1c-9.4,0-17.6-5.1-22.1-12.6H529.9c-4.6,7.5-12.7,12.6-22.1,12.6c-14.4,0-26.1-11.7-26.1-26.1
			C481.7,59.8,493.3,48.2,507.8,48.2z"/>
		<path class="st1" d="M475.5,110.1c9.4,0,17.6,5.1,22.1,12.6h169.4c4.6-7.5,12.7-12.6,22.1-12.6c14.4,0,26.1,11.7,26.1,26.1
			c0,14.4-11.7,26.1-26.1,26.1c-9.4,0-17.6-5.1-22.1-12.6H497.7c-4.6,7.5-12.7,12.6-22.1,12.6c-14.4,0-26.1-11.7-26.1-26.1
			C449.4,121.8,461.1,110.1,475.5,110.1z"/>
		<path class="st1" d="M453.8,172.1c9.4,0,17.6,5.1,22.1,12.6h138.6c4.6-7.5,12.7-12.6,22.1-12.6c14.4,0,26.1,11.7,26.1,26.1
			c0,14.4-11.7,26.1-26.1,26.1c-9.4,0-17.6-5.1-22.1-12.6H476c-4.6,7.5-12.7,12.6-22.1,12.6c-14.4,0-26.1-11.7-26.1-26.1
			C427.7,183.7,439.4,172.1,453.8,172.1z"/>
	</g>
</g>
</svg>
